<?xml version="1.0" standalone="no"?>
<!DOCTYPE svg PUBLIC "-//W3C//DTD SVG 1.1//EN" "http://www.w3.org/Graphics/SVG/1.1/DTD/svg11.dtd" >
<svg xmlns="http://www.w3.org/2000/svg" xmlns:xlink="http://www.w3.org/1999/xlink" version="1.1">
<metadata>
Created by FontForge 20201107 at Tue Mar  9 14:04:00 2021
 By 
Copyright (c) 2021 by Cosimo Lorenzo Pancini. All rights reserved.
</metadata>
<defs>
<font id="CocoSharpTrial-Regular" horiz-adv-x="0" >
  <font-face 
    font-family="CocoSharp Trial"
    font-weight="400"
    font-stretch="normal"
    units-per-em="2000"
    panose-1="0 0 5 0 0 0 0 0 0 0"
    ascent="1600"
    descent="-400"
    x-height="1036"
    cap-height="1405"
    bbox="-1483 -1089 3026 2112"
    underline-thickness="95"
    underline-position="-189"
    unicode-range="U+0010-FEFC"
  />
<missing-glyph horiz-adv-x="926" 
d="M172 1496h587v-1851h-587v1851zM616 1311v61h-305v-61h120v-69h-122v-61h307v61h-122v69h122zM494 1004v129h-185v-192h307v63h-122zM370 1070h61v-66h-61v66zM616 830v61h-307v-61h122v-69h-122v-61h185v130h122zM616 595v185h-61v-123h-246v-62h307zM616 345v209h-185
v-104h63v43h61v-87h-185v148h-61v-209h307zM616 24v210h-307v-210h307zM370 173h185v-87h-185v87zM616 -79v61h-307v-61h130l-130 -87v-61h307v61h-188l129 87h59z" />
    <glyph glyph-name="uniFEF5" unicode="&#xfedf;&#xfe82;" horiz-adv-x="1355" arabic-form="isolated" 
d="M1004 136v1269h158v-1405h-970v136h305l-287 942h162l288 -942h344zM84 1182q19 88 66.5 127.5t98.5 39.5q28 0 51.5 -8.5t60.5 -25.5q28 -14 47 -21t38 -7q27 0 41 13.5t23 54.5l101 -29q-19 -88 -66 -127.5t-98 -39.5q-28 0 -52 8.5t-61 25.5q-27 14 -46 21t-38 7
q-26 0 -41.5 -14t-23.5 -54z" />
    <glyph glyph-name="uniFEF6" unicode="&#xfee0;&#xfe82;" horiz-adv-x="1405" arabic-form="final" 
d="M1419 0h-1184v136h253l-296 938h162l297 -938h327v1269h157v-1269h284v-136zM27 1235q19 88 66.5 127.5t98.5 39.5q28 0 51.5 -8.5t60.5 -25.5q28 -14 47 -21t38 -7q27 0 41 13.5t23 54.5l101 -29q-19 -88 -66 -127.5t-98 -39.5q-28 0 -52 8.5t-61 25.5q-27 14 -46 21
t-38 7q-26 0 -41.5 -14t-23.5 -54z" />
    <glyph glyph-name="uniFEF7" unicode="&#xfedf;&#xfe84;" horiz-adv-x="1355" arabic-form="isolated" 
d="M1004 136v1269h158v-1405h-970v136h305l-287 942h162l288 -942h344zM103 1255l133 23q-26 19 -42 53.5t-16 72.5q0 77 51 118.5t149 41.5h68l-16 -92h-42q-68 0 -96 -19.5t-28 -72.5q0 -44 31 -73t79 -29h137v-93h-111q-87 0 -147 -4t-150 -18v92z" />
    <glyph glyph-name="uniFEF8" unicode="&#xfee0;&#xfe84;" horiz-adv-x="1530" arabic-form="final" 
d="M1544 0h-1184v136h253l-296 938h162l297 -938h327v1269h157v-1269h284v-136zM192 1256l133 23q-26 19 -42 53.5t-16 72.5q0 77 51 118.5t149 41.5h68l-16 -92h-42q-68 0 -96 -19.5t-28 -72.5q0 -44 31 -73t79 -29h137v-93h-111q-87 0 -147 -4t-150 -18v92z" />
    <glyph glyph-name="uniFEF9" unicode="&#xfedf;&#xfe88;" horiz-adv-x="1355" arabic-form="isolated" 
d="M1004 136v1269h158v-1405h-970v136h305l-287 942h162l288 -942h344zM393 -466l134 23q-26 19 -42.5 53.5t-16.5 72.5q0 77 51.5 118.5t148.5 41.5h68l-15 -92h-43q-68 0 -96 -20t-28 -72q0 -44 31 -73t79 -29h137v-93h-125q-82 0 -140 -4t-143 -18v92z" />
    <glyph glyph-name="uniFEFA" unicode="&#xfee0;&#xfe88;" horiz-adv-x="1405" arabic-form="final" 
d="M1419 0h-1184v136h253l-296 938h162l297 -938h327v1269h157v-1269h284v-136zM417 -466l134 23q-26 19 -42.5 53.5t-16.5 72.5q0 77 51.5 118.5t148.5 41.5h68l-15 -92h-43q-68 0 -96 -20t-28 -72q0 -44 31 -73t79 -29h137v-93h-125q-82 0 -140 -4t-143 -18v92z" />
    <glyph glyph-name="uniFEFB" unicode="&#xfedf;&#xfe8e;" horiz-adv-x="1355" arabic-form="isolated" 
d="M1004 136v1269h158v-1405h-970v136h305l-287 942h162l288 -942h344z" />
    <glyph glyph-name="uniFEFC" unicode="&#xfee0;&#xfe8e;" horiz-adv-x="1405" arabic-form="final" 
d="M1419 0h-1184v136h253l-296 938h162l297 -938h327v1269h157v-1269h284v-136z" />
    <glyph glyph-name="uni06440671" unicode="&#xfedf;&#xfb51;" horiz-adv-x="1355" 
d="M1004 136v1269h158v-1405h-970v136h305l-287 942h162l288 -942h344zM57 1226l90 14q-1 53 23 109.5t75 95t127 38.5q90 0 131.5 -47t41.5 -140v-130h-278q-89 0 -210 -19v79zM249 1245h218v46q0 61 -20.5 88.5t-75.5 27.5q-46 0 -82 -23t-56.5 -61.5t-22.5 -81.5z" />
    <glyph glyph-name="uni06440671.fina" unicode="&#xfee0;&#xfb51;" horiz-adv-x="1405" 
d="M1419 0h-1184v136h253l-296 938h162l297 -938h327v1269h157v-1269h284v-136zM101 1226l90 14q-1 53 23 109.5t75 95t127 38.5q90 0 131.5 -47t41.5 -140v-130h-278q-89 0 -210 -19v79zM293 1245h218v46q0 61 -20.5 88.5t-75.5 27.5q-46 0 -82 -23t-56.5 -61.5
t-22.5 -81.5z" />
    <glyph glyph-name="uni066E.init" unicode="&#x66e;" horiz-adv-x="636" 
d="M443 0h-457v136h300v758h157v-894z" />
    <glyph glyph-name="uni066E.medi" unicode="&#x66e;" horiz-adv-x="767" 
d="M781 0h-795v136h319v758h158v-758h318v-136z" />
    <glyph glyph-name="uni066E.fina" unicode="&#x66e;" horiz-adv-x="2050" 
d="M1758 136h306v-136h-1393q-186 0 -315 68t-192.5 181.5t-63.5 249.5q0 89 40 183.5t117 170.5l104 -86q-52 -56 -80.5 -123.5t-28.5 -141.5q0 -101 49 -183.5t150 -132.5t251 -50h899v758h157v-758z" />
    <glyph glyph-name="uni066F.fina" unicode="&#x66f;" horiz-adv-x="1892" 
d="M1906 136v-136h-202v-100q0 -188 -128.5 -282t-370.5 -94h-542q-170 0 -299.5 64t-199.5 172.5t-70 239.5q0 118 40.5 228t121.5 195l101 -102q-52 -59 -80.5 -140.5t-28.5 -179.5q0 -100 49.5 -177t143.5 -120.5t223 -43.5h540q170 0 257 59t87 182v99h-225
q-124 0 -227 60.5t-163.5 166t-60.5 235.5q0 119 59.5 218t161.5 156.5t225 57.5h386v-758h202zM1548 136v569h2v59h-228q-82 0 -149.5 -41.5t-106 -111.5t-38.5 -153q0 -90 38.5 -163.5t105.5 -116t149 -42.5h227z" />
    <glyph glyph-name="uni06A1.init" unicode="&#x6a1;" horiz-adv-x="1113" 
d="M920 894v-894h-934v136h229q-60 63 -93.5 146.5t-33.5 179.5q0 119 59.5 218t161.5 156.5t225 57.5h386zM766 764h-228q-82 0 -149.5 -41.5t-106 -111.5t-38.5 -153q0 -90 38.5 -163.5t105.5 -116t149 -42.5h229v628z" />
    <glyph glyph-name="uni06A1.medi" unicode="&#x6a1;" horiz-adv-x="1172" 
d="M920 136h266v-136h-1200v136h229q-60 63 -93.5 146.5t-33.5 179.5q0 119 59.5 218t161.5 156.5t225 57.5h386v-758zM766 764h-228q-82 0 -149.5 -41.5t-106 -111.5t-38.5 -153q0 -90 38.5 -163.5t105.5 -116t149 -42.5h229v628z" />
    <glyph glyph-name="uni06A1.fina" unicode="&#x6a1;" horiz-adv-x="1846" 
d="M1657 136h203v-136h-1195q-186 0 -315 68t-192.5 181.5t-63.5 249.5q0 89 40 183.5t117 170.5l104 -86q-53 -56 -81 -123t-28 -142q0 -101 49 -183.5t150 -132.5t251 -50h256q-60 63 -93.5 146.5t-33.5 179.5q0 119 59.5 218t161.5 156.5t225 57.5h386v-758zM1502 136
v628h-228q-81 0 -148.5 -41.5t-106.5 -111.5t-39 -153q0 -90 38.5 -163.5t106 -116t148.5 -42.5h229z" />
    <glyph glyph-name="uni06C2.fina" unicode="&#x6c2;" horiz-adv-x="736" 
d="M607 38.5q-52 38.5 -87 136.5q-27 75 -54.5 108t-71.5 33q-43 0 -77.5 -38t-76.5 -132l-39 -89l-120 44l48 114q54 124 116.5 178.5t149.5 54.5q67 0 113 -38t82 -117q37 -76 68.5 -116.5t75.5 -40.5q12 0 15.5 -2t3.5 -8v-117q0 -5 -4 -7t-15 -2q-75 0 -127 38.5z
M179 686l133 23q-26 19 -42 53.5t-16 72.5q0 77 51 118.5t149 41.5h68l-16 -92h-42q-68 0 -96 -19.5t-28 -72.5q0 -44 31 -73t79 -29h137v-93h-111q-87 0 -147 -4t-150 -18v92z" />
    <glyph glyph-name="uni06C3.fina" unicode="&#x6c3;" horiz-adv-x="736" 
d="M607 38.5q-52 38.5 -87 136.5q-27 75 -54.5 108t-71.5 33q-43 0 -77.5 -38t-76.5 -132l-39 -89l-120 44l48 114q54 124 116.5 178.5t149.5 54.5q67 0 113 -38t82 -117q37 -76 68.5 -116.5t75.5 -40.5q12 0 15.5 -2t3.5 -8v-117q0 -5 -4 -7t-15 -2q-75 0 -127 38.5z
M453.5 601q-25.5 27 -25.5 66q0 40 25.5 67.5t67.5 27.5t69 -27.5t27 -67.5q0 -39 -26.5 -66t-69.5 -27q-42 0 -67.5 27zM199.5 600q-25.5 27 -25.5 66q0 40 25.5 67.5t67.5 27.5t69 -27.5t27 -67.5q0 -39 -26.5 -66t-69.5 -27q-42 0 -67.5 27z" />
    <glyph glyph-name="uniFB51" unicode="&#x671;" horiz-adv-x="648" arabic-form="final" 
d="M349 1496v-1360h313v-136h-470v1496h157zM2 1668l90 14q-1 53 23 109.5t75 95t127 38.5q90 0 131.5 -47t41.5 -140v-130h-278q-89 0 -210 -19v79zM194 1687h218v46q0 61 -20.5 88.5t-75.5 27.5q-46 0 -82 -23t-56.5 -61.5t-22.5 -81.5z" />
    <glyph glyph-name="uniFB67" unicode="&#x679;" horiz-adv-x="2050" arabic-form="final" 
d="M1758 136h306v-136h-1393q-186 0 -315 68t-192.5 181.5t-63.5 249.5q0 89 40 183.5t117 170.5l104 -86q-52 -56 -80.5 -123.5t-28.5 -141.5q0 -101 49 -183.5t150 -132.5t251 -50h899v758h157v-758zM1170.5 1254.5q29.5 -33.5 29.5 -82.5q0 -159 -211 -159h-215
q-4 0 -4 4v78q0 6 5 6h37l13 14v270h57v-211q59 56 106 85t91 29q62 0 91.5 -33.5zM974 1101q76 0 114 18t38 57q0 24 -17.5 37.5t-50.5 13.5q-34 0 -77 -30.5t-102 -95.5h95z" />
    <glyph glyph-name="uniFB68" unicode="&#x679;" horiz-adv-x="636" arabic-form="initial" 
d="M443 0h-457v136h300v758h157v-894zM559.5 1255.5q29.5 -33.5 29.5 -82.5q0 -159 -211 -159h-215q-4 0 -4 4v78q0 6 5 6h37l13 14v270h57v-211q59 56 106 85t91 29q62 0 91.5 -33.5zM363 1102q76 0 114 18t38 57q0 24 -17.5 37.5t-50.5 13.5q-34 0 -77 -30.5t-102 -95.5
h95z" />
    <glyph glyph-name="uniFB69" unicode="&#x679;" horiz-adv-x="767" arabic-form="medial" 
d="M781 0h-795v136h319v758h158v-758h318v-136zM585.5 1255.5q29.5 -33.5 29.5 -82.5q0 -159 -211 -159h-215q-4 0 -4 4v78q0 6 5 6h37l13 14v270h57v-211q59 56 106 85t91 29q62 0 91.5 -33.5zM389 1102q76 0 114 18t38 57q0 24 -17.5 37.5t-50.5 13.5q-34 0 -77 -30.5
t-102 -95.5h95z" />
    <glyph glyph-name="uniFB6B" unicode="&#x6a4;" horiz-adv-x="1846" arabic-form="final" 
d="M1657 136h203v-136h-1195q-186 0 -315 68t-192.5 181.5t-63.5 249.5q0 89 40 183.5t117 170.5l104 -86q-53 -56 -81 -123t-28 -142q0 -101 49 -183.5t150 -132.5t251 -50h256q-60 63 -93.5 146.5t-33.5 179.5q0 119 59.5 218t161.5 156.5t225 57.5h386v-758zM1502 136
v628h-228q-81 0 -148.5 -41.5t-106.5 -111.5t-39 -153q0 -90 38.5 -163.5t106 -116t148.5 -42.5h229zM1318.5 1291q-25.5 27 -25.5 66q0 40 25.5 67.5t67.5 27.5t69 -27.5t27 -67.5q0 -39 -26.5 -66t-69.5 -27q-42 0 -67.5 27zM1190.5 1080q-25.5 27 -25.5 66
q0 40 25.5 67.5t67.5 27.5t69 -27.5t27 -67.5q0 -39 -26.5 -66t-69.5 -27q-42 0 -67.5 27zM1452.5 1081q-25.5 27 -25.5 66q0 40 25.5 67.5t67.5 27.5t69 -27.5t27 -67.5q0 -39 -26.5 -66t-69.5 -27q-42 0 -67.5 27z" />
    <glyph glyph-name="uniFB6C" unicode="&#x6a4;" horiz-adv-x="1113" arabic-form="initial" 
d="M920 894v-894h-934v136h229q-60 63 -93.5 146.5t-33.5 179.5q0 119 59.5 218t161.5 156.5t225 57.5h386zM766 764h-228q-82 0 -149.5 -41.5t-106 -111.5t-38.5 -153q0 -90 38.5 -163.5t105.5 -116t149 -42.5h229v628zM565.5 1238q-25.5 27 -25.5 66q0 40 25.5 67.5
t67.5 27.5t69 -27.5t27 -67.5q0 -39 -26.5 -66t-69.5 -27q-42 0 -67.5 27zM437.5 1027q-25.5 27 -25.5 66q0 40 25.5 67.5t67.5 27.5t69 -27.5t27 -67.5q0 -39 -26.5 -66t-69.5 -27q-42 0 -67.5 27zM699.5 1028q-25.5 27 -25.5 66q0 40 25.5 67.5t67.5 27.5t69 -27.5
t27 -67.5q0 -39 -26.5 -66t-69.5 -27q-42 0 -67.5 27z" />
    <glyph glyph-name="uniFB6D" unicode="&#x6a4;" horiz-adv-x="1172" arabic-form="medial" 
d="M920 136h266v-136h-1200v136h229q-60 63 -93.5 146.5t-33.5 179.5q0 119 59.5 218t161.5 156.5t225 57.5h386v-758zM766 764h-228q-82 0 -149.5 -41.5t-106 -111.5t-38.5 -153q0 -90 38.5 -163.5t105.5 -116t149 -42.5h229v628zM599.5 1240q-25.5 27 -25.5 66
q0 40 25.5 67.5t67.5 27.5t69 -27.5t27 -67.5q0 -39 -26.5 -66t-69.5 -27q-42 0 -67.5 27zM471.5 1029q-25.5 27 -25.5 66q0 40 25.5 67.5t67.5 27.5t69 -27.5t27 -67.5q0 -39 -26.5 -66t-69.5 -27q-42 0 -67.5 27zM733.5 1030q-25.5 27 -25.5 66q0 40 25.5 67.5t67.5 27.5
t69 -27.5t27 -67.5q0 -39 -26.5 -66t-69.5 -27q-42 0 -67.5 27z" />
    <glyph glyph-name="uniFB7B" unicode="&#x686;" horiz-adv-x="1289" arabic-form="final" 
d="M182 -158q-64 106 -64 234q0 131 62.5 233.5t172 160t243.5 57.5q118 0 220 -45q-42 112 -85.5 179t-108.5 102.5t-165 35.5q-78 0 -151.5 -26.5t-125.5 -69.5l-80 112q82 68 177.5 102t184.5 34q146 0 240.5 -56.5t150.5 -151t107 -239.5q47 -134 79.5 -204t89.5 -117
t147 -47h27v-136h-28q-81 0 -141 26.5t-103.5 70t-90.5 110.5q-72 101 -150 146t-188 45q-91 0 -166.5 -39t-119.5 -111.5t-44 -169.5q0 -88 38 -158zM450 88.5q-24 24.5 -24 60.5t23.5 61t62.5 25q38 0 62.5 -25t24.5 -61t-24 -60.5t-63 -24.5q-38 0 -62 24.5zM656.5 88.5
q-23.5 24.5 -23.5 60.5q0 37 23.5 61.5t62.5 24.5q38 0 62 -25t24 -61t-24 -60.5t-63 -24.5q-38 0 -61.5 24.5zM553.5 -107q-23.5 25 -23.5 61t23.5 60.5t62.5 24.5q38 0 62.5 -25t24.5 -60q0 -36 -24.5 -61t-62.5 -25q-39 0 -62.5 25z" />
    <glyph glyph-name="uniFB7C" unicode="&#x686;" horiz-adv-x="1434" arabic-form="initial" 
d="M1341 136v-136h-1355v136h1004q-43 52 -77.5 124.5t-74.5 182.5q-44 131 -89 208t-117 118.5t-186 41.5q-81 0 -156.5 -28t-130.5 -74l-77 99q78 68 176 102.5t195 34.5q156 0 253.5 -55t154 -150.5t107.5 -250.5q41 -127 80.5 -200.5t105 -113t171.5 -39.5h16z
M398.5 -423q-25.5 27 -25.5 66q0 40 25.5 67.5t67.5 27.5t69 -27.5t27 -67.5q0 -39 -26.5 -66t-69.5 -27q-42 0 -67.5 27zM269.5 -217q-25.5 27 -25.5 66q0 40 25.5 67.5t67.5 27.5t69 -27.5t27 -67.5q0 -39 -26.5 -66t-69.5 -27q-42 0 -67.5 27zM529.5 -217
q-25.5 27 -25.5 66q0 40 25.5 67.5t67.5 27.5t69 -27.5t27 -67.5q0 -39 -26.5 -66t-69.5 -27q-42 0 -67.5 27z" />
    <glyph glyph-name="uniFB7D" unicode="&#x686;" horiz-adv-x="1413" arabic-form="medial" 
d="M1427 136v-136h-1441v136h1108q-46 52 -82.5 125t-74.5 178q-44 131 -89.5 208.5t-117.5 119t-185 41.5q-81 0 -156.5 -28t-131.5 -75l-76 99q78 68 175.5 102.5t194.5 34.5q157 0 254.5 -55t154 -150t107.5 -250q41 -127 80.5 -199.5t104.5 -111.5t172 -39h3z
M473.5 -423q-25.5 27 -25.5 66q0 40 25.5 67.5t67.5 27.5t69 -27.5t27 -67.5q0 -39 -26.5 -66t-69.5 -27q-42 0 -67.5 27zM344.5 -217q-25.5 27 -25.5 66q0 40 25.5 67.5t67.5 27.5t69 -27.5t27 -67.5q0 -39 -26.5 -66t-69.5 -27q-42 0 -67.5 27zM604.5 -217
q-25.5 27 -25.5 66q0 40 25.5 67.5t67.5 27.5t69 -27.5t27 -67.5q0 -39 -26.5 -66t-69.5 -27q-42 0 -67.5 27z" />
    <glyph glyph-name="uniFB89" unicode="&#x688;" horiz-adv-x="1436" arabic-form="final" 
d="M1450 136v-136h-1350v136h918q-24 173 -104 318t-203 248t-274 155l66 130q176 -59 319.5 -180.5t236.5 -294t117 -376.5h274zM724.5 1318.5q29.5 -33.5 29.5 -82.5q0 -159 -211 -159h-215q-4 0 -4 4v78q0 6 5 6h37l13 14v270h57v-211q59 56 106 85t91 29
q62 0 91.5 -33.5zM528 1165q76 0 114 18t38 57q0 24 -17.5 37.5t-50.5 13.5q-34 0 -77 -30.5t-102 -95.5h95z" />
    <glyph glyph-name="uniFB8B" unicode="&#x698;" horiz-adv-x="570" arabic-form="final" 
d="M584 136v-136h-250v-14q0 -177 -76 -273t-225 -96q-29 0 -65.5 7.5t-65.5 19.5l20 133q47 -20 93 -20q87 0 125.5 56.5t38.5 168.5v909h155v-755h250zM193.5 1231q-25.5 27 -25.5 66q0 40 25.5 67.5t67.5 27.5t69 -27.5t27 -67.5q0 -39 -26.5 -66t-69.5 -27
q-42 0 -67.5 27zM65.5 1020q-25.5 27 -25.5 66q0 40 25.5 67.5t67.5 27.5t69 -27.5t27 -67.5q0 -39 -26.5 -66t-69.5 -27q-42 0 -67.5 27zM327.5 1021q-25.5 27 -25.5 66q0 40 25.5 67.5t67.5 27.5t69 -27.5t27 -67.5q0 -39 -26.5 -66t-69.5 -27q-42 0 -67.5 27z" />
    <glyph glyph-name="uniFB8D" unicode="&#x691;" horiz-adv-x="570" arabic-form="final" 
d="M584 136v-136h-250v-14q0 -177 -76 -273t-225 -96q-29 0 -65.5 7.5t-65.5 19.5l20 133q47 -20 93 -20q87 0 125.5 56.5t38.5 168.5v909h155v-755h250zM458.5 1252.5q29.5 -33.5 29.5 -82.5q0 -159 -211 -159h-215q-4 0 -4 4v78q0 6 5 6h37l13 14v270h57v-211
q59 56 106 85t91 29q62 0 91.5 -33.5zM262 1099q76 0 114 18t38 57q0 24 -17.5 37.5t-50.5 13.5q-34 0 -77 -30.5t-102 -95.5h95z" />
    <glyph glyph-name="uniFB8F" unicode="&#x6a9;" horiz-adv-x="2068" arabic-form="final" 
d="M1786 136h296v-136h-1417q-186 0 -315 68t-192.5 181.5t-63.5 249.5q0 89 40 183.5t117 170.5l104 -86q-53 -56 -81 -123t-28 -142q0 -101 49 -183.5t150 -132.5t251 -50h933v195q0 140 -74 217t-225 77h-521v135q23 174 134.5 314.5t288.5 221.5t389 84l20 -143
q-172 -4 -316.5 -64.5t-242 -167t-132.5 -245.5h379q145 0 248 -52.5t156 -148.5t53 -225v-198z" />
    <glyph glyph-name="uniFB90" unicode="&#x6a9;" horiz-adv-x="1273" arabic-form="initial" 
d="M624 760q145 0 247.5 -52.5t155.5 -148.5t53 -225v-334h-1094v136h937v195q0 139 -74 216.5t-224 77.5h-522v135q23 174 134.5 314.5t288.5 221.5t390 84l19 -143q-172 -4 -316.5 -64.5t-241.5 -167t-132 -245.5h379z" />
    <glyph glyph-name="uniFB91" unicode="&#x6a9;" horiz-adv-x="1362" arabic-form="medial" 
d="M1080 136h296v-136h-1390v136h937v195q0 139 -74 216.5t-224 77.5h-522v135q23 174 134.5 314.5t288.5 221.5t390 84l19 -143q-172 -4 -316.5 -64.5t-241.5 -167t-132 -245.5h379q145 0 247.5 -52.5t155.5 -148.5t53 -225v-198z" />
    <glyph glyph-name="uniFB93" unicode="&#x6af;" horiz-adv-x="2068" arabic-form="final" 
d="M1786 136h296v-136h-1417q-186 0 -315 68t-192.5 181.5t-63.5 249.5q0 89 40 183.5t117 170.5l104 -86q-53 -56 -81 -123t-28 -142q0 -101 49 -183.5t150 -132.5t251 -50h933v195q0 140 -74 217t-225 77h-521v135q23 174 134.5 314.5t288.5 221.5t389 84l20 -143
q-172 -4 -316.5 -64.5t-242 -167t-132.5 -245.5h379q145 0 248 -52.5t156 -148.5t53 -225v-198zM1228 1408q-132 -50 -241.5 -138t-179.5 -200.5t-88 -235.5l-61 14q19 129 94.5 251.5t192 218.5t255.5 151z" />
    <glyph glyph-name="uniFB94" unicode="&#x6af;" horiz-adv-x="1273" arabic-form="initial" 
d="M624 760q145 0 247.5 -52.5t155.5 -148.5t53 -225v-334h-1094v136h937v195q0 139 -74 216.5t-224 77.5h-522v135q23 174 134.5 314.5t288.5 221.5t390 84l19 -143q-172 -4 -316.5 -64.5t-241.5 -167t-132 -245.5h379zM523 1408q-132 -50 -241.5 -138t-179.5 -200.5
t-88 -235.5l-61 14q19 129 94.5 251.5t192 218.5t255.5 151z" />
    <glyph glyph-name="uniFB95" unicode="&#x6af;" horiz-adv-x="1362" arabic-form="medial" 
d="M1080 136h296v-136h-1390v136h937v195q0 139 -74 216.5t-224 77.5h-522v135q23 174 134.5 314.5t288.5 221.5t390 84l19 -143q-172 -4 -316.5 -64.5t-241.5 -167t-132 -245.5h379q145 0 247.5 -52.5t155.5 -148.5t53 -225v-198zM522 1408q-132 -50 -241.5 -138
t-179.5 -200.5t-88 -235.5l-61 14q19 129 94.5 251.5t192 218.5t255.5 151z" />
    <glyph glyph-name="uniFB9F" unicode="&#x6ba;" horiz-adv-x="1492" arabic-form="final" 
d="M1506 136v-136h-285q-15 -155 -97 -271t-205.5 -178t-259.5 -62q-162 0 -291 74.5t-201.5 203.5t-72.5 284q0 104 41 209t122 190l101 -102q-52 -58 -81 -134t-29 -162q0 -120 52 -215t145.5 -148.5t213.5 -53.5q107 0 201 53t150.5 151.5t56.5 228.5v737h157v-669h282z
" />
    <glyph glyph-name="uniFBA7" unicode="&#x6c1;" horiz-adv-x="739" arabic-form="final" 
d="M607 38.5q-52 38.5 -87 136.5q-27 75 -54.5 108t-71.5 33q-43 0 -77.5 -38t-76.5 -132l-39 -89l-120 44l48 114q54 124 116.5 178.5t149.5 54.5q67 0 113 -38t82 -117q37 -76 68.5 -116.5t75.5 -40.5q12 0 15.5 -2t3.5 -8v-117q0 -5 -4 -7t-15 -2q-75 0 -127 38.5z" />
    <glyph glyph-name="uniFBA8" unicode="&#x6c1;" horiz-adv-x="681" arabic-form="initial" 
d="M488 0h-502v136h332v790h170v-926zM122 -410l114 288l120 -6l-82 -282h-152z" />
    <glyph glyph-name="uniFBA9" unicode="&#x6c1;" horiz-adv-x="969" arabic-form="medial" 
d="M377 170q-58 -75 -152 -122.5t-211 -47.5h-28v136h29q104 0 181 41t118.5 113t41.5 164v18l153 1l14 -486q55 71 148.5 110t215.5 39h96v-136h-97q-105 0 -182 -36t-118 -104t-41 -161v-27l-152 -1zM717 -451l103 269l109 -3l-74 -266h-138z" />
    <glyph glyph-name="uniFBAB" unicode="&#x6be;" horiz-adv-x="1979" arabic-form="final" 
d="M1699 136h294v-136h-1899v136h405q-63 58 -97.5 138t-34.5 170q0 128 61.5 230t170 160t245.5 58q140 0 248 -55t168 -156t61 -234v-311h221v406q0 167 -77 295t-213.5 199t-311.5 71v146q223 0 395.5 -88.5t268 -247t95.5 -361.5v-420zM1166 136v302q0 97 -39.5 166.5
t-112.5 106.5t-171 37q-94 0 -168 -37t-116 -106.5t-42 -163.5q0 -109 56.5 -191t152.5 -114h440z" />
    <glyph glyph-name="uniFBAC" unicode="&#x6be;" horiz-adv-x="1784" arabic-form="initial" 
d="M1592 0h-1606v136h406q-63 58 -98 138t-35 170q0 128 61.5 230t170.5 160t246 58q140 0 248 -55t168 -156t60 -234v-311h221v406q0 166 -76.5 294.5t-213.5 199.5t-311 71v146q223 0 395.5 -88.5t268 -247t95.5 -361.5v-556zM1058 136v302q0 97 -39.5 167t-112 106.5
t-171.5 36.5q-94 0 -168 -37t-116 -106.5t-42 -163.5q0 -109 56.5 -191t153.5 -114h439z" />
    <glyph glyph-name="uniFBAD" unicode="&#x6be;" horiz-adv-x="1872" arabic-form="medial" 
d="M1592 136h294v-136h-1900v136h406q-63 58 -98 138t-35 170q0 128 61.5 230t170.5 160t246 58q140 0 248 -55t168 -156t60 -234v-311h221v406q0 166 -76.5 294.5t-213.5 199.5t-311 71v146q223 0 395.5 -88.5t268 -247t95.5 -361.5v-420zM1058 136v302q0 97 -39.5 167
t-112 106.5t-171.5 36.5q-94 0 -168 -37t-116 -106.5t-42 -163.5q0 -109 56.5 -191t153.5 -114h439z" />
    <glyph glyph-name="uniFBAF" unicode="&#x6d2;" horiz-adv-x="1176" arabic-form="final" 
d="M1190 136v-136h-824q-55 0 -92 -32t-37 -81q0 -48 38 -79t95 -31h477l-18 -149h-457q-83 0 -146.5 36t-97.5 96t-34 131q0 73 36 129t98.5 86t138.5 30h823z" />
    <glyph glyph-name="uniFBB1" unicode="&#x6d3;" horiz-adv-x="1176" arabic-form="final" 
d="M1190 136v-136h-824q-55 0 -92 -32t-37 -81q0 -48 38 -79t95 -31h477l-18 -149h-457q-83 0 -146.5 36t-97.5 96t-34 131q0 73 36 129t98.5 86t138.5 30h823zM231 376l133 23q-26 19 -42 53.5t-16 72.5q0 77 51 118.5t149 41.5h68l-16 -92h-42q-68 0 -96 -19.5t-28 -72.5
q0 -44 31 -73t79 -29h137v-93h-111q-87 0 -147 -4t-150 -18v92z" />
    <glyph glyph-name="uniFBFD" unicode="&#x6cc;" horiz-adv-x="2032" arabic-form="final" 
d="M689 -386q-164 0 -300.5 67.5t-215.5 184.5t-79 258q0 106 40.5 210t120.5 189l102 -102q-54 -60 -83 -135.5t-29 -158.5q0 -99 59 -186t161 -139.5t224 -52.5h484q98 0 144 37t46 93q0 43 -28.5 81t-71.5 70.5t-119 82.5q-100 65 -162.5 115.5t-107 120.5t-44.5 156
q0 101 44.5 178.5t133.5 121t216 43.5q134 0 211 -49.5t112.5 -121t70.5 -191.5q34 -116 67.5 -185t106 -116.5t197.5 -47.5h57v-137h-54q-180 0 -279.5 57.5t-141 139t-76.5 212.5q-28 102 -53.5 160.5t-80 97.5t-150.5 39q-74 0 -123.5 -27t-73 -71.5t-23.5 -97.5
q0 -54 32 -99.5t79 -82t128 -89.5q94 -60 151.5 -106t98 -108.5t40.5 -141.5q0 -78 -43.5 -138.5t-136 -95.5t-233.5 -35h-418z" />
    <glyph glyph-name="uniFBFE" unicode="&#x6cc;" horiz-adv-x="636" arabic-form="initial" 
d="M443 0h-457v136h300v758h157v-894zM379.5 -343q-25.5 27 -25.5 66q0 40 25.5 67.5t67.5 27.5t69 -27.5t27 -67.5q0 -39 -26.5 -66t-69.5 -27q-42 0 -67.5 27zM129.5 -343q-25.5 27 -25.5 66q0 40 25.5 67.5t67.5 27.5t69 -27.5t27 -67.5q0 -39 -26.5 -66t-69.5 -27
q-42 0 -67.5 27z" />
    <glyph glyph-name="uniFBFF" unicode="&#x6cc;" horiz-adv-x="767" arabic-form="medial" 
d="M781 0h-795v136h319v758h158v-758h318v-136zM446.5 -343q-25.5 27 -25.5 66q0 40 25.5 67.5t67.5 27.5t69 -27.5t27 -67.5q0 -39 -26.5 -66t-69.5 -27q-42 0 -67.5 27zM196.5 -343q-25.5 27 -25.5 66q0 40 25.5 67.5t67.5 27.5t69 -27.5t27 -67.5q0 -39 -26.5 -66
t-69.5 -27q-42 0 -67.5 27z" />
    <glyph glyph-name="uniFE82" unicode="&#x622;" horiz-adv-x="648" arabic-form="final" 
d="M349 1496v-1360h313v-136h-470v1496h157zM11 1597q19 88 66.5 127.5t98.5 39.5q28 0 51.5 -8.5t60.5 -25.5q28 -14 47 -21t38 -7q27 0 41 13.5t23 54.5l101 -29q-19 -88 -66 -127.5t-98 -39.5q-28 0 -52 8.5t-61 25.5q-27 14 -46 21t-38 7q-26 0 -41.5 -14t-23.5 -54z
" />
    <glyph glyph-name="uniFE84" unicode="&#x623;" horiz-adv-x="736" arabic-form="final" 
d="M437 1496v-1360h313v-136h-470v1496h157zM134 1699l133 23q-26 19 -42 53.5t-16 72.5q0 77 51 118.5t149 41.5h68l-16 -92h-42q-68 0 -96 -19.5t-28 -72.5q0 -44 31 -73t79 -29h137v-93h-111q-87 0 -147 -4t-150 -18v92z" />
    <glyph glyph-name="uniFE86" unicode="&#x624;" horiz-adv-x="1177" arabic-form="final" 
d="M1191 136v-136h-276v-57q0 -218 -110.5 -326t-306.5 -108q-161 0 -306 66l61 134q59 -26 122.5 -40t122.5 -14q131 0 195.5 69.5t64.5 228.5v47h-225q-124 0 -227 60.5t-163.5 166t-60.5 235.5q0 119 59.5 218t161.5 156.5t225 57.5h387v-758h276zM758 136v628h-227
q-81 0 -148.5 -41.5t-106.5 -111.5t-39 -153q0 -90 39 -163.5t106 -116t149 -42.5h227zM439 1125l133 23q-26 19 -42 53.5t-16 72.5q0 77 51 118.5t149 41.5h68l-16 -92h-42q-68 0 -96 -19.5t-28 -72.5q0 -44 31 -73t79 -29h137v-93h-111q-87 0 -147 -4t-150 -18v92z" />
    <glyph glyph-name="uniFE88" unicode="&#x625;" horiz-adv-x="648" arabic-form="final" 
d="M349 1496v-1360h313v-136h-470v1496h157zM65 -466l134 23q-26 19 -42.5 53.5t-16.5 72.5q0 77 51.5 118.5t148.5 41.5h68l-15 -92h-43q-68 0 -96 -20t-28 -72q0 -44 31 -73t79 -29h137v-93h-125q-82 0 -140 -4t-143 -18v92z" />
    <glyph glyph-name="uniFE8A" unicode="&#x626;" horiz-adv-x="2032" arabic-form="final" 
d="M689 -386q-164 0 -300.5 67.5t-215.5 184.5t-79 258q0 106 40.5 210t120.5 189l102 -102q-54 -60 -83 -135.5t-29 -158.5q0 -99 59 -186t161 -139.5t224 -52.5h484q98 0 144 37t46 93q0 43 -28.5 81t-71.5 70.5t-119 82.5q-100 65 -162.5 115.5t-107 120.5t-44.5 156
q0 101 44.5 178.5t133.5 121t216 43.5q134 0 211 -49.5t112.5 -121t70.5 -191.5q34 -116 67.5 -185t106 -116.5t197.5 -47.5h57v-137h-54q-180 0 -279.5 57.5t-141 139t-76.5 212.5q-28 102 -53.5 160.5t-80 97.5t-150.5 39q-74 0 -123.5 -27t-73 -71.5t-23.5 -97.5
q0 -54 32 -99.5t79 -82t128 -89.5q94 -60 151.5 -106t98 -108.5t40.5 -141.5q0 -78 -43.5 -138.5t-136 -95.5t-233.5 -35h-418zM281 812l133 23q-26 19 -42 53.5t-16 72.5q0 77 51 118.5t149 41.5h68l-16 -92h-42q-68 0 -96 -19.5t-28 -72.5q0 -44 31 -73t79 -29h137v-93
h-111q-87 0 -147 -4t-150 -18v92z" />
    <glyph glyph-name="uniFE8B" unicode="&#x626;" horiz-adv-x="636" arabic-form="initial" 
d="M443 0h-457v136h300v758h157v-894zM144 1122l133 23q-26 19 -42 53.5t-16 72.5q0 77 51 118.5t149 41.5h68l-16 -92h-42q-68 0 -96 -19.5t-28 -72.5q0 -44 31 -73t79 -29h137v-93h-111q-87 0 -147 -4t-150 -18v92z" />
    <glyph glyph-name="uniFE8C" unicode="&#x626;" horiz-adv-x="767" arabic-form="medial" 
d="M781 0h-795v136h319v758h158v-758h318v-136zM170 1122l133 23q-26 19 -42 53.5t-16 72.5q0 77 51 118.5t149 41.5h68l-16 -92h-42q-68 0 -96 -19.5t-28 -72.5q0 -44 31 -73t79 -29h137v-93h-111q-87 0 -147 -4t-150 -18v92z" />
    <glyph glyph-name="uniFE8E" unicode="&#x627;" horiz-adv-x="648" arabic-form="final" 
d="M349 1496v-1360h313v-136h-470v1496h157z" />
    <glyph glyph-name="uniFE90" unicode="&#x628;" horiz-adv-x="2050" arabic-form="final" 
d="M1758 136h306v-136h-1393q-186 0 -315 68t-192.5 181.5t-63.5 249.5q0 89 40 183.5t117 170.5l104 -86q-52 -56 -80.5 -123.5t-28.5 -141.5q0 -101 49 -183.5t150 -132.5t251 -50h899v758h157v-758zM928.5 -331q-25.5 27 -25.5 66q0 40 25.5 67.5t67.5 27.5t69 -27.5
t27 -67.5q0 -39 -26.5 -66t-69.5 -27q-42 0 -67.5 27z" />
    <glyph glyph-name="uniFE91" unicode="&#x628;" horiz-adv-x="636" arabic-form="initial" 
d="M443 0h-457v136h300v758h157v-894zM266.5 -331q-25.5 27 -25.5 66q0 40 25.5 67.5t67.5 27.5t69 -27.5t27 -67.5q0 -39 -26.5 -66t-69.5 -27q-42 0 -67.5 27z" />
    <glyph glyph-name="uniFE92" unicode="&#x628;" horiz-adv-x="767" arabic-form="medial" 
d="M781 0h-795v136h319v758h158v-758h318v-136zM319.5 -331q-25.5 27 -25.5 66q0 40 25.5 67.5t67.5 27.5t69 -27.5t27 -67.5q0 -39 -26.5 -66t-69.5 -27q-42 0 -67.5 27z" />
    <glyph glyph-name="uniFE94" unicode="&#x629;" horiz-adv-x="1140" arabic-form="final" 
d="M863 136h291v-136h-647q-115 0 -209.5 55t-149 151t-54.5 214q0 108 54 196.5t148.5 139.5t209.5 51h199v128h158v-799zM705 136v542h-202q-72 0 -132 -34.5t-94.5 -94.5t-34.5 -131q0 -79 34.5 -143.5t93.5 -101.5t131 -37h204zM660.5 1078q-25.5 27 -25.5 66
q0 40 25.5 67.5t67.5 27.5t69 -27.5t27 -67.5q0 -39 -26.5 -66t-69.5 -27q-42 0 -67.5 27zM406.5 1077q-25.5 27 -25.5 66q0 40 25.5 67.5t67.5 27.5t69 -27.5t27 -67.5q0 -39 -26.5 -66t-69.5 -27q-42 0 -67.5 27z" />
    <glyph glyph-name="uniFE96" unicode="&#x62a;" horiz-adv-x="2050" arabic-form="final" 
d="M1758 136h306v-136h-1393q-186 0 -315 68t-192.5 181.5t-63.5 249.5q0 89 40 183.5t117 170.5l104 -86q-52 -56 -80.5 -123.5t-28.5 -141.5q0 -101 49 -183.5t150 -132.5t251 -50h899v758h157v-758zM1029.5 1036q-25.5 27 -25.5 66q0 40 25.5 67.5t67.5 27.5t69 -27.5
t27 -67.5q0 -39 -26.5 -66t-69.5 -27q-42 0 -67.5 27zM775.5 1035q-25.5 27 -25.5 66q0 40 25.5 67.5t67.5 27.5t69 -27.5t27 -67.5q0 -39 -26.5 -66t-69.5 -27q-42 0 -67.5 27z" />
    <glyph glyph-name="uniFE97" unicode="&#x62a;" horiz-adv-x="636" arabic-form="initial" 
d="M443 0h-457v136h300v758h157v-894zM418.5 1037q-25.5 27 -25.5 66q0 40 25.5 67.5t67.5 27.5t69 -27.5t27 -67.5q0 -39 -26.5 -66t-69.5 -27q-42 0 -67.5 27zM164.5 1036q-25.5 27 -25.5 66q0 40 25.5 67.5t67.5 27.5t69 -27.5t27 -67.5q0 -39 -26.5 -66t-69.5 -27
q-42 0 -67.5 27z" />
    <glyph glyph-name="uniFE98" unicode="&#x62a;" horiz-adv-x="767" arabic-form="medial" 
d="M781 0h-795v136h319v758h158v-758h318v-136zM444.5 1037q-25.5 27 -25.5 66q0 40 25.5 67.5t67.5 27.5t69 -27.5t27 -67.5q0 -39 -26.5 -66t-69.5 -27q-42 0 -67.5 27zM190.5 1036q-25.5 27 -25.5 66q0 40 25.5 67.5t67.5 27.5t69 -27.5t27 -67.5q0 -39 -26.5 -66
t-69.5 -27q-42 0 -67.5 27z" />
    <glyph glyph-name="uniFE9A" unicode="&#x62b;" horiz-adv-x="2050" arabic-form="final" 
d="M1758 136h306v-136h-1393q-186 0 -315 68t-192.5 181.5t-63.5 249.5q0 89 40 183.5t117 170.5l104 -86q-52 -56 -80.5 -123.5t-28.5 -141.5q0 -101 49 -183.5t150 -132.5t251 -50h899v758h157v-758zM905.5 1233q-25.5 27 -25.5 66q0 40 25.5 67.5t67.5 27.5t69 -27.5
t27 -67.5q0 -39 -26.5 -66t-69.5 -27q-42 0 -67.5 27zM777.5 1022q-25.5 27 -25.5 66q0 40 25.5 67.5t67.5 27.5t69 -27.5t27 -67.5q0 -39 -26.5 -66t-69.5 -27q-42 0 -67.5 27zM1039.5 1023q-25.5 27 -25.5 66q0 40 25.5 67.5t67.5 27.5t69 -27.5t27 -67.5q0 -39 -26.5 -66
t-69.5 -27q-42 0 -67.5 27z" />
    <glyph glyph-name="uniFE9B" unicode="&#x62b;" horiz-adv-x="636" arabic-form="initial" 
d="M443 0h-457v136h300v758h157v-894zM294.5 1234q-25.5 27 -25.5 66q0 40 25.5 67.5t67.5 27.5t69 -27.5t27 -67.5q0 -39 -26.5 -66t-69.5 -27q-42 0 -67.5 27zM166.5 1023q-25.5 27 -25.5 66q0 40 25.5 67.5t67.5 27.5t69 -27.5t27 -67.5q0 -39 -26.5 -66t-69.5 -27
q-42 0 -67.5 27zM428.5 1024q-25.5 27 -25.5 66q0 40 25.5 67.5t67.5 27.5t69 -27.5t27 -67.5q0 -39 -26.5 -66t-69.5 -27q-42 0 -67.5 27z" />
    <glyph glyph-name="uniFE9C" unicode="&#x62b;" horiz-adv-x="767" arabic-form="medial" 
d="M781 0h-795v136h319v758h158v-758h318v-136zM320.5 1234q-25.5 27 -25.5 66q0 40 25.5 67.5t67.5 27.5t69 -27.5t27 -67.5q0 -39 -26.5 -66t-69.5 -27q-42 0 -67.5 27zM192.5 1023q-25.5 27 -25.5 66q0 40 25.5 67.5t67.5 27.5t69 -27.5t27 -67.5q0 -39 -26.5 -66
t-69.5 -27q-42 0 -67.5 27zM454.5 1024q-25.5 27 -25.5 66q0 40 25.5 67.5t67.5 27.5t69 -27.5t27 -67.5q0 -39 -26.5 -66t-69.5 -27q-42 0 -67.5 27z" />
    <glyph glyph-name="uniFE9E" unicode="&#x62c;" horiz-adv-x="1421" arabic-form="final" 
d="M1433 3h-4v-3h-610q-146 0 -239 -42t-135 -113t-42 -161q0 -64 25.5 -122t72.5 -107l-95 -85q-70 69 -109 153.5t-39 162.5q0 123 53.5 224.5t172.5 163.5t304 62h317q-46 52 -82.5 125t-74.5 178q-44 131 -89.5 208.5t-117.5 119t-185 41.5q-81 0 -156.5 -28t-131.5 -75
l-76 99q78 68 175.5 102.5t194.5 34.5q157 0 254.5 -55t154 -150t107.5 -250q41 -127 80.5 -199.5t104.5 -111.5t172 -39zM655.5 -379q-25.5 27 -25.5 66q0 40 25.5 67.5t67.5 27.5t69 -27.5t27 -67.5q0 -39 -26.5 -66t-69.5 -27q-42 0 -67.5 27z" />
    <glyph glyph-name="uniFE9F" unicode="&#x62c;" horiz-adv-x="1434" arabic-form="initial" 
d="M1341 136v-136h-1355v136h1004q-43 52 -77.5 124.5t-74.5 182.5q-44 131 -89 208t-117 118.5t-186 41.5q-81 0 -156.5 -28t-130.5 -74l-77 99q78 68 176 102.5t195 34.5q156 0 253.5 -55t154 -150.5t107.5 -250.5q41 -127 80.5 -200.5t105 -113t171.5 -39.5h16z
M405.5 -331q-25.5 27 -25.5 66q0 40 25.5 67.5t67.5 27.5t69 -27.5t27 -67.5q0 -39 -26.5 -66t-69.5 -27q-42 0 -67.5 27z" />
    <glyph glyph-name="uniFEA0" unicode="&#x62c;" horiz-adv-x="1327" arabic-form="medial" 
d="M1341 136v-136h-1355v136h1004q-43 52 -77.5 124.5t-74.5 182.5q-44 131 -89 208t-117 118.5t-186 41.5q-81 0 -156.5 -28t-130.5 -74l-77 99q78 68 176 102.5t195 34.5q156 0 253.5 -55t154 -150.5t107.5 -250.5q41 -127 80.5 -200.5t105 -113t171.5 -39.5h16z
M509.5 -331q-25.5 27 -25.5 66q0 40 25.5 67.5t67.5 27.5t69 -27.5t27 -67.5q0 -39 -26.5 -66t-69.5 -27q-42 0 -67.5 27z" />
    <glyph glyph-name="uniFEA2" unicode="&#x62d;" horiz-adv-x="1421" arabic-form="final" 
d="M1433 3h-4v-3h-610q-146 0 -239 -42t-135 -113t-42 -161q0 -64 25.5 -122t72.5 -107l-95 -85q-70 69 -109 153.5t-39 162.5q0 123 53.5 224.5t172.5 163.5t304 62h317q-46 52 -82.5 125t-74.5 178q-44 131 -89.5 208.5t-117.5 119t-185 41.5q-81 0 -156.5 -28t-131.5 -75
l-76 99q78 68 175.5 102.5t194.5 34.5q157 0 254.5 -55t154 -150t107.5 -250q41 -127 80.5 -199.5t104.5 -111.5t172 -39z" />
    <glyph glyph-name="uniFEA3" unicode="&#x62d;" horiz-adv-x="1434" arabic-form="initial" 
d="M1341 136v-136h-1355v136h1004q-43 52 -77.5 124.5t-74.5 182.5q-44 131 -89 208t-117 118.5t-186 41.5q-81 0 -156.5 -28t-130.5 -74l-77 99q78 68 176 102.5t195 34.5q156 0 253.5 -55t154 -150.5t107.5 -250.5q41 -127 80.5 -200.5t105 -113t171.5 -39.5h16z" />
    <glyph glyph-name="uniFEA4" unicode="&#x62d;" horiz-adv-x="1413" arabic-form="medial" 
d="M1427 136v-136h-1441v136h1108q-46 52 -82.5 125t-74.5 178q-44 131 -89.5 208.5t-117.5 119t-185 41.5q-81 0 -156.5 -28t-131.5 -75l-76 99q78 68 175.5 102.5t194.5 34.5q157 0 254.5 -55t154 -150t107.5 -250q41 -127 80.5 -199.5t104.5 -111.5t172 -39h3z" />
    <glyph glyph-name="uniFEA6" unicode="&#x62e;" horiz-adv-x="1421" arabic-form="final" 
d="M1433 3h-4v-3h-610q-146 0 -239 -42t-135 -113t-42 -161q0 -64 25.5 -122t72.5 -107l-95 -85q-70 69 -109 153.5t-39 162.5q0 123 53.5 224.5t172.5 163.5t304 62h317q-46 52 -82.5 125t-74.5 178q-44 131 -89.5 208.5t-117.5 119t-185 41.5q-81 0 -156.5 -28t-131.5 -75
l-76 99q78 68 175.5 102.5t194.5 34.5q157 0 254.5 -55t154 -150t107.5 -250q41 -127 80.5 -199.5t104.5 -111.5t172 -39zM525.5 1068q-25.5 27 -25.5 66q0 40 25.5 67.5t67.5 27.5t69 -27.5t27 -67.5q0 -39 -26.5 -66t-69.5 -27q-42 0 -67.5 27z" />
    <glyph glyph-name="uniFEA7" unicode="&#x62e;" horiz-adv-x="1434" arabic-form="initial" 
d="M1341 136v-136h-1355v136h1004q-43 52 -77.5 124.5t-74.5 182.5q-44 131 -89 208t-117 118.5t-186 41.5q-81 0 -156.5 -28t-130.5 -74l-77 99q78 68 176 102.5t195 34.5q156 0 253.5 -55t154 -150.5t107.5 -250.5q41 -127 80.5 -200.5t105 -113t171.5 -39.5h16z
M407.5 1075q-25.5 27 -25.5 66q0 40 25.5 67.5t67.5 27.5t69 -27.5t27 -67.5q0 -39 -26.5 -66t-69.5 -27q-42 0 -67.5 27z" />
    <glyph glyph-name="uniFEA8" unicode="&#x62e;" horiz-adv-x="1413" arabic-form="medial" 
d="M1427 136v-136h-1441v136h1108q-46 52 -82.5 125t-74.5 178q-44 131 -89.5 208.5t-117.5 119t-185 41.5q-81 0 -156.5 -28t-131.5 -75l-76 99q78 68 175.5 102.5t194.5 34.5q157 0 254.5 -55t154 -150t107.5 -250q41 -127 80.5 -199.5t104.5 -111.5t172 -39h3z
M490.5 1094q-25.5 27 -25.5 66q0 40 25.5 67.5t67.5 27.5t69 -27.5t27 -67.5q0 -39 -26.5 -66t-69.5 -27q-42 0 -67.5 27z" />
    <glyph glyph-name="uniFEAA" unicode="&#x62f;" horiz-adv-x="1436" arabic-form="final" 
d="M1450 136v-136h-1350v136h918q-24 173 -104 318t-203 248t-274 155l66 130q176 -59 319.5 -180.5t236.5 -294t117 -376.5h274z" />
    <glyph glyph-name="uniFEAC" unicode="&#x630;" horiz-adv-x="1436" arabic-form="final" 
d="M1450 136v-136h-1350v136h918q-24 173 -104 318t-203 248t-274 155l66 130q176 -59 319.5 -180.5t236.5 -294t117 -376.5h274zM465.5 1113q-25.5 27 -25.5 66q0 40 25.5 67.5t67.5 27.5t69 -27.5t27 -67.5q0 -39 -26.5 -66t-69.5 -27q-42 0 -67.5 27z" />
    <glyph glyph-name="uniFEAE" unicode="&#x631;" horiz-adv-x="570" arabic-form="final" 
d="M584 136v-136h-250v-14q0 -177 -76 -273t-225 -96q-29 0 -65.5 7.5t-65.5 19.5l20 133q47 -20 93 -20q87 0 125.5 56.5t38.5 168.5v909h155v-755h250z" />
    <glyph glyph-name="uniFEB0" unicode="&#x632;" horiz-adv-x="570" arabic-form="final" 
d="M584 136v-136h-250v-14q0 -177 -76 -273t-225 -96q-29 0 -65.5 7.5t-65.5 19.5l20 133q47 -20 93 -20q87 0 125.5 56.5t38.5 168.5v909h155v-755h250zM198.5 1047q-25.5 27 -25.5 66q0 40 25.5 67.5t67.5 27.5t69 -27.5t27 -67.5q0 -39 -26.5 -66t-69.5 -27
q-42 0 -67.5 27z" />
    <glyph glyph-name="uniFEB2" unicode="&#x633;" horiz-adv-x="2741" arabic-form="final" 
d="M2457 136h298v-136h-1534q-15 -155 -97 -271t-205.5 -178t-259.5 -62q-162 0 -291 74.5t-201.5 203.5t-72.5 284q0 104 41 209t122 190l101 -102q-52 -58 -81 -134t-29 -162q0 -120 52 -215t145.5 -148.5t213.5 -53.5q107 0 201 53t150.5 151.5t56.5 228.5v737h157v-669
h454v631h158v-631h464v758h157v-758z" />
    <glyph glyph-name="uniFEB3" unicode="&#x633;" horiz-adv-x="2022" arabic-form="initial" 
d="M1673 136v758h157v-894h-1844v136h443v672h157v-672h465v631h158v-631h464z" />
    <glyph glyph-name="uniFEB4" unicode="&#x633;" horiz-adv-x="2111" arabic-form="medial" 
d="M1830 894v-758h295v-136h-2139v136h443v672h157v-672h465v631h158v-631h464v758h157z" />
    <glyph glyph-name="uniFEB6" unicode="&#x634;" horiz-adv-x="2741" arabic-form="final" 
d="M2457 136h298v-136h-1534q-15 -155 -97 -271t-205.5 -178t-259.5 -62q-162 0 -291 74.5t-201.5 203.5t-72.5 284q0 104 41 209t122 190l101 -102q-52 -58 -81 -134t-29 -162q0 -120 52 -215t145.5 -148.5t213.5 -53.5q107 0 201 53t150.5 151.5t56.5 228.5v737h157v-669
h454v631h158v-631h464v758h157v-758zM1693.5 1159q-25.5 27 -25.5 66q0 40 25.5 67.5t67.5 27.5t69 -27.5t27 -67.5q0 -39 -26.5 -66t-69.5 -27q-42 0 -67.5 27zM1565.5 948q-25.5 27 -25.5 66q0 40 25.5 67.5t67.5 27.5t69 -27.5t27 -67.5q0 -39 -26.5 -66t-69.5 -27
q-42 0 -67.5 27zM1827.5 949q-25.5 27 -25.5 66q0 40 25.5 67.5t67.5 27.5t69 -27.5t27 -67.5q0 -39 -26.5 -66t-69.5 -27q-42 0 -67.5 27z" />
    <glyph glyph-name="uniFEB7" unicode="&#x634;" horiz-adv-x="2022" arabic-form="initial" 
d="M1673 136v758h157v-894h-1844v136h443v672h157v-672h465v631h158v-631h464zM1058.5 1142q-25.5 27 -25.5 66q0 40 25.5 67.5t67.5 27.5t69 -27.5t27 -67.5q0 -39 -26.5 -66t-69.5 -27q-42 0 -67.5 27zM930.5 931q-25.5 27 -25.5 66q0 40 25.5 67.5t67.5 27.5t69 -27.5
t27 -67.5q0 -39 -26.5 -66t-69.5 -27q-42 0 -67.5 27zM1192.5 932q-25.5 27 -25.5 66q0 40 25.5 67.5t67.5 27.5t69 -27.5t27 -67.5q0 -39 -26.5 -66t-69.5 -27q-42 0 -67.5 27z" />
    <glyph glyph-name="uniFEB8" unicode="&#x634;" horiz-adv-x="2111" arabic-form="medial" 
d="M1830 894v-758h295v-136h-2139v136h443v672h157v-672h465v631h158v-631h464v758h157zM1078.5 1141q-25.5 27 -25.5 66q0 40 25.5 67.5t67.5 27.5t69 -27.5t27 -67.5q0 -39 -26.5 -66t-69.5 -27q-42 0 -67.5 27zM950.5 930q-25.5 27 -25.5 66q0 40 25.5 67.5t67.5 27.5
t69 -27.5t27 -67.5q0 -39 -26.5 -66t-69.5 -27q-42 0 -67.5 27zM1212.5 931q-25.5 27 -25.5 66q0 40 25.5 67.5t67.5 27.5t69 -27.5t27 -67.5q0 -39 -26.5 -66t-69.5 -27q-42 0 -67.5 27z" />
    <glyph glyph-name="uniFEBA" unicode="&#x635;" horiz-adv-x="2723" arabic-form="final" 
d="M2468 136h269v-136h-1510q-15 -155 -97 -271t-205 -178t-260 -62q-162 0 -291 74.5t-201.5 203.5t-72.5 284q0 104 41 209t122 190l102 -102q-52 -58 -81 -134t-29 -162q0 -120 52 -215t145 -148.5t213 -53.5q99 0 187 45t146.5 130t71.5 199h-1l2 8q2 32 2 51v737h157
v-408q93 142 220.5 250t266.5 166.5t267 58.5q240 0 362 -127t122 -369v-240zM2303 136v241q0 171 -84.5 262.5t-246.5 91.5q-128 0 -269 -75.5t-262.5 -211.5t-190.5 -308h1053z" />
    <glyph glyph-name="uniFEBB" unicode="&#x635;" horiz-adv-x="1856" arabic-form="initial" 
d="M1541 745q122 -127 122 -369v-376h-1677v136h296v678h157l1 -396q94 136 218.5 239t260 159t260.5 56q240 0 362 -127zM1498 377q0 171 -84.5 262.5t-246.5 91.5q-128 0 -269.5 -75.5t-262.5 -211.5t-190 -308h1053v241z" />
    <glyph glyph-name="uniFEBC" unicode="&#x635;" horiz-adv-x="1883" arabic-form="medial" 
d="M1663 136h234v-136h-1911v136h296v678h157l1 -396q94 136 218.5 239t260 159t260.5 56q240 0 362 -127t122 -369v-240zM1498 377q0 171 -84.5 262.5t-246.5 91.5q-128 0 -269.5 -75.5t-262.5 -211.5t-190 -308h1053v241z" />
    <glyph glyph-name="uniFEBE" unicode="&#x636;" horiz-adv-x="2723" arabic-form="final" 
d="M2468 136h269v-136h-1510q-15 -155 -97 -271t-205 -178t-260 -62q-162 0 -291 74.5t-201.5 203.5t-72.5 284q0 104 41 209t122 190l102 -102q-52 -58 -81 -134t-29 -162q0 -120 52 -215t145 -148.5t213 -53.5q99 0 187 45t146.5 130t71.5 199h-1l2 8q2 32 2 51v737h157
v-408q93 142 220.5 250t266.5 166.5t267 58.5q240 0 362 -127t122 -369v-240zM2303 136v241q0 171 -84.5 262.5t-246.5 91.5q-128 0 -269 -75.5t-262.5 -211.5t-190.5 -308h1053zM1916.5 1111q-25.5 27 -25.5 66q0 40 25.5 67.5t67.5 27.5t69 -27.5t27 -67.5
q0 -39 -26.5 -66t-69.5 -27q-42 0 -67.5 27z" />
    <glyph glyph-name="uniFEBF" unicode="&#x636;" horiz-adv-x="1856" arabic-form="initial" 
d="M1541 745q122 -127 122 -369v-376h-1677v136h296v678h157l1 -396q94 136 218.5 239t260 159t260.5 56q240 0 362 -127zM1498 377q0 171 -84.5 262.5t-246.5 91.5q-128 0 -269.5 -75.5t-262.5 -211.5t-190 -308h1053v241zM1146.5 1016q-25.5 27 -25.5 66q0 40 25.5 67.5
t67.5 27.5t69 -27.5t27 -67.5q0 -39 -26.5 -66t-69.5 -27q-42 0 -67.5 27z" />
    <glyph glyph-name="uniFEC0" unicode="&#x636;" horiz-adv-x="1883" arabic-form="medial" 
d="M1663 136h234v-136h-1911v136h296v678h157l1 -396q94 136 218.5 239t260 159t260.5 56q240 0 362 -127t122 -369v-240zM1498 377q0 171 -84.5 262.5t-246.5 91.5q-128 0 -269.5 -75.5t-262.5 -211.5t-190 -308h1053v241zM1099.5 1129q-25.5 27 -25.5 66q0 40 25.5 67.5
t67.5 27.5t69 -27.5t27 -67.5q0 -39 -26.5 -66t-69.5 -27q-42 0 -67.5 27z" />
    <glyph glyph-name="uniFEC2" unicode="&#x637;" horiz-adv-x="1948" arabic-form="final" 
d="M1756 136h206v-136h-1868v136h284v1360h158v-1073q94 135 218.5 237t259 157t258.5 55q240 0 362 -127t122 -369v-240zM1591 377q0 171 -84.5 262.5t-246.5 91.5q-128 0 -269 -75.5t-262.5 -211.5t-190.5 -308h1053v241z" />
    <glyph glyph-name="uniFEC3" unicode="&#x637;" horiz-adv-x="1841" arabic-form="initial" 
d="M1526 745q122 -127 122 -369v-376h-1662v136h284v1360h158v-1073q94 135 218.5 237t259 157t258.5 55q240 0 362 -127zM1483 377q0 171 -84.5 262.5t-246.5 91.5q-128 0 -269 -75.5t-262.5 -211.5t-190.5 -308h1053v241z" />
    <glyph glyph-name="uniFEC4" unicode="&#x637;" horiz-adv-x="1840" arabic-form="medial" 
d="M1649 136h205v-136h-1868v136h284v1360h158v-1074q94 135 218.5 237t259 157.5t258.5 55.5q240 0 362.5 -127t122.5 -369v-240zM1483 377q0 171 -84 262.5t-246 91.5q-128 0 -269.5 -75.5t-263 -211.5t-190.5 -308h1053v241z" />
    <glyph glyph-name="uniFEC6" unicode="&#x638;" horiz-adv-x="1948" arabic-form="final" 
d="M1756 136h206v-136h-1868v136h284v1360h158v-1073q94 135 218.5 237t259 157t258.5 55q240 0 362 -127t122 -369v-240zM1591 377q0 171 -84.5 262.5t-246.5 91.5q-128 0 -269 -75.5t-262.5 -211.5t-190.5 -308h1053v241zM1222.5 1025q-25.5 27 -25.5 66q0 40 25.5 67.5
t67.5 27.5t69 -27.5t27 -67.5q0 -39 -26.5 -66t-69.5 -27q-42 0 -67.5 27z" />
    <glyph glyph-name="uniFEC7" unicode="&#x638;" horiz-adv-x="1841" arabic-form="initial" 
d="M1526 745q122 -127 122 -369v-376h-1662v136h284v1360h158v-1073q94 135 218.5 237t259 157t258.5 55q240 0 362 -127zM1483 377q0 171 -84.5 262.5t-246.5 91.5q-128 0 -269 -75.5t-262.5 -211.5t-190.5 -308h1053v241zM988.5 1025q-25.5 27 -25.5 66q0 40 25.5 67.5
t67.5 27.5t69 -27.5t27 -67.5q0 -39 -26.5 -66t-69.5 -27q-42 0 -67.5 27z" />
    <glyph glyph-name="uniFEC8" unicode="&#x638;" horiz-adv-x="1840" arabic-form="medial" 
d="M1648 136h206v-136h-1868v136h284v1360h158v-1073q94 135 218.5 237t259 157t258.5 55q240 0 362 -127t122 -369v-240zM1483 377q0 171 -84.5 262.5t-246.5 91.5q-128 0 -269 -75.5t-262.5 -211.5t-190.5 -308h1053v241zM1115.5 1025q-25.5 27 -25.5 66q0 40 25.5 67.5
t67.5 27.5t69 -27.5t27 -67.5q0 -39 -26.5 -66t-69.5 -27q-42 0 -67.5 27z" />
    <glyph glyph-name="uniFECA" unicode="&#x639;" horiz-adv-x="1243" arabic-form="final" 
d="M1257 137v-137h-56q-140 0 -303.5 76.5t-303.5 201.5q-127 -59 -198 -102.5t-109.5 -96t-38.5 -122.5q0 -48 31.5 -96.5t100.5 -81t173 -32.5q110 0 193 27.5t136 68.5l94 -102q-82 -59 -190 -95t-238 -36q-146 0 -249 52t-154 132t-51 162q0 93 37 159t122.5 125.5
t243.5 133.5q-86 95 -139 195.5t-63 195.5q65 90 166.5 137.5t224.5 47.5q122 0 221.5 -47.5t164.5 -137.5q-12 -106 -102 -219t-239 -200q113 -95 234 -152t230 -57h62zM539 799q-67 -29 -99 -71q20 -63 70.5 -138.5t121.5 -150.5q120 65 200.5 145.5t94.5 144.5
q-27 44 -95 71.5t-147 27.5t-146 -29z" />
    <glyph glyph-name="uniFECB" unicode="&#x639;" horiz-adv-x="1326" arabic-form="initial" 
d="M-14 0v136h472q-54 29 -101 84.5t-75 126.5t-28 143q0 127 56.5 226t162.5 154.5t247 55.5q84 0 171 -31t155 -92l-89 -108q-47 42 -107.5 65t-127.5 23q-101 0 -174 -39t-112 -110t-39 -165q0 -83 46 -160t123.5 -125t166.5 -48h499v-136h-1246z" />
    <glyph glyph-name="uniFECC" unicode="&#x639;" horiz-adv-x="1108" arabic-form="medial" 
d="M1122 136v-136h-119q-108 0 -223.5 38.5t-225.5 107.5q-110 -69 -225.5 -107.5t-223.5 -38.5h-119v136h118q83 0 169.5 23.5t168.5 67.5q-133 109 -219.5 245.5t-101.5 274.5q75 86 193.5 138.5t240.5 52.5q120 0 238 -53t196 -138q-15 -138 -101.5 -274t-220.5 -245
q82 -44 168.5 -68t168.5 -24h118zM364 491.5q76 -108.5 191 -193.5q115 85 191 193t91 218q-18 20 -63 43.5t-103.5 39.5t-114.5 16q-54 0 -111.5 -15t-103.5 -38t-68 -46q15 -109 91 -217.5z" />
    <glyph glyph-name="uniFECE" unicode="&#x63a;" horiz-adv-x="1243" arabic-form="final" 
d="M1257 137v-137h-56q-140 0 -303.5 76.5t-303.5 201.5q-127 -59 -198 -102.5t-109.5 -96t-38.5 -122.5q0 -48 31.5 -96.5t100.5 -81t173 -32.5q110 0 193 27.5t136 68.5l94 -102q-82 -59 -190 -95t-238 -36q-146 0 -249 52t-154 132t-51 162q0 93 37 159t122.5 125.5
t243.5 133.5q-86 95 -139 195.5t-63 195.5q65 90 166.5 137.5t224.5 47.5q122 0 221.5 -47.5t164.5 -137.5q-12 -106 -102 -219t-239 -200q113 -95 234 -152t230 -57h62zM539 799q-67 -29 -99 -71q20 -63 70.5 -138.5t121.5 -150.5q120 65 200.5 145.5t94.5 144.5
q-27 44 -95 71.5t-147 27.5t-146 -29zM627.5 1105q-25.5 27 -25.5 66q0 40 25.5 67.5t67.5 27.5t69 -27.5t27 -67.5q0 -39 -26.5 -66t-69.5 -27q-42 0 -67.5 27z" />
    <glyph glyph-name="uniFECF" unicode="&#x63a;" horiz-adv-x="1326" arabic-form="initial" 
d="M-14 0v136h472q-54 29 -101 84.5t-75 126.5t-28 143q0 127 56.5 226t162.5 154.5t247 55.5q84 0 171 -31t155 -92l-89 -108q-47 42 -107.5 65t-127.5 23q-101 0 -174 -39t-112 -110t-39 -165q0 -83 46 -160t123.5 -125t166.5 -48h499v-136h-1246zM647.5 1058
q-25.5 27 -25.5 66q0 40 25.5 67.5t67.5 27.5t69 -27.5t27 -67.5q0 -39 -26.5 -66t-69.5 -27q-42 0 -67.5 27z" />
    <glyph glyph-name="uniFED0" unicode="&#x63a;" horiz-adv-x="1108" arabic-form="medial" 
d="M1122 136v-136h-119q-108 0 -223.5 38.5t-225.5 107.5q-110 -69 -225.5 -107.5t-223.5 -38.5h-119v136h118q83 0 169.5 23.5t168.5 67.5q-133 109 -219.5 245.5t-101.5 274.5q75 86 193.5 138.5t240.5 52.5q120 0 238 -53t196 -138q-15 -138 -101.5 -274t-220.5 -245
q82 -44 168.5 -68t168.5 -24h118zM364 491.5q76 -108.5 191 -193.5q115 85 191 193t91 218q-18 20 -63 43.5t-103.5 39.5t-114.5 16q-54 0 -111.5 -15t-103.5 -38t-68 -46q15 -109 91 -217.5zM494.5 1104q-25.5 27 -25.5 66q0 40 25.5 67.5t67.5 27.5t69 -27.5t27 -67.5
q0 -39 -26.5 -66t-69.5 -27q-42 0 -67.5 27z" />
    <glyph glyph-name="uniFED2" unicode="&#x641;" horiz-adv-x="1846" arabic-form="final" 
d="M1657 136h203v-136h-1195q-186 0 -315 68t-192.5 181.5t-63.5 249.5q0 89 40 183.5t117 170.5l104 -86q-53 -56 -81 -123t-28 -142q0 -101 49 -183.5t150 -132.5t251 -50h256q-60 63 -93.5 146.5t-33.5 179.5q0 119 59.5 218t161.5 156.5t225 57.5h386v-758zM1502 136
v628h-228q-81 0 -148.5 -41.5t-106.5 -111.5t-39 -153q0 -90 38.5 -163.5t106 -116t148.5 -42.5h229zM1324.5 1107q-25.5 27 -25.5 66q0 40 25.5 67.5t67.5 27.5t69 -27.5t27 -67.5q0 -39 -26.5 -66t-69.5 -27q-42 0 -67.5 27z" />
    <glyph glyph-name="uniFED3" unicode="&#x641;" horiz-adv-x="1113" arabic-form="initial" 
d="M920 894v-894h-934v136h229q-60 63 -93.5 146.5t-33.5 179.5q0 119 59.5 218t161.5 156.5t225 57.5h386zM766 764h-228q-82 0 -149.5 -41.5t-106 -111.5t-38.5 -153q0 -90 38.5 -163.5t105.5 -116t149 -42.5h229v628zM570.5 1054q-25.5 27 -25.5 66q0 40 25.5 67.5
t67.5 27.5t69 -27.5t27 -67.5q0 -39 -26.5 -66t-69.5 -27q-42 0 -67.5 27z" />
    <glyph glyph-name="uniFED4" unicode="&#x641;" horiz-adv-x="1172" arabic-form="medial" 
d="M920 136h266v-136h-1200v136h229q-60 63 -93.5 146.5t-33.5 179.5q0 119 59.5 218t161.5 156.5t225 57.5h386v-758zM766 764h-228q-82 0 -149.5 -41.5t-106 -111.5t-38.5 -153q0 -90 38.5 -163.5t105.5 -116t149 -42.5h229v628zM605.5 1056q-25.5 27 -25.5 66
q0 40 25.5 67.5t67.5 27.5t69 -27.5t27 -67.5q0 -39 -26.5 -66t-69.5 -27q-42 0 -67.5 27z" />
    <glyph glyph-name="uniFED6" unicode="&#x642;" horiz-adv-x="1892" arabic-form="final" 
d="M1906 136v-136h-202v-100q0 -188 -128.5 -282t-370.5 -94h-542q-170 0 -299.5 64t-199.5 172.5t-70 239.5q0 118 40.5 228t121.5 195l101 -102q-52 -59 -80.5 -140.5t-28.5 -179.5q0 -100 49.5 -177t143.5 -120.5t223 -43.5h540q170 0 257 59t87 182v99h-225
q-124 0 -227 60.5t-163.5 166t-60.5 235.5q0 119 59.5 218t161.5 156.5t225 57.5h386v-758h202zM1548 136v569h2v59h-228q-82 0 -149.5 -41.5t-106 -111.5t-38.5 -153q0 -90 38.5 -163.5t105.5 -116t149 -42.5h227zM1528.5 1106q-25.5 27 -25.5 66q0 40 25.5 67.5t67.5 27.5
t69 -27.5t27 -67.5q0 -39 -26.5 -66t-69.5 -27q-42 0 -67.5 27zM1274.5 1105q-25.5 27 -25.5 66q0 40 25.5 67.5t67.5 27.5t69 -27.5t27 -67.5q0 -39 -26.5 -66t-69.5 -27q-42 0 -67.5 27z" />
    <glyph glyph-name="uniFED7" unicode="&#x642;" horiz-adv-x="1113" arabic-form="initial" 
d="M920 894v-894h-934v136h229q-60 63 -93.5 146.5t-33.5 179.5q0 119 59.5 218t161.5 156.5t225 57.5h386zM766 764h-228q-82 0 -149.5 -41.5t-106 -111.5t-38.5 -153q0 -90 38.5 -163.5t105.5 -116t149 -42.5h229v628zM689.5 1041q-25.5 27 -25.5 66q0 40 25.5 67.5
t67.5 27.5t69 -27.5t27 -67.5q0 -39 -26.5 -66t-69.5 -27q-42 0 -67.5 27zM435.5 1040q-25.5 27 -25.5 66q0 40 25.5 67.5t67.5 27.5t69 -27.5t27 -67.5q0 -39 -26.5 -66t-69.5 -27q-42 0 -67.5 27z" />
    <glyph glyph-name="uniFED8" unicode="&#x642;" horiz-adv-x="1172" arabic-form="medial" 
d="M920 136h266v-136h-1200v136h229q-60 63 -93.5 146.5t-33.5 179.5q0 119 59.5 218t161.5 156.5t225 57.5h386v-758zM766 764h-228q-82 0 -149.5 -41.5t-106 -111.5t-38.5 -153q0 -90 38.5 -163.5t105.5 -116t149 -42.5h229v628zM723.5 1043q-25.5 27 -25.5 66
q0 40 25.5 67.5t67.5 27.5t69 -27.5t27 -67.5q0 -39 -26.5 -66t-69.5 -27q-42 0 -67.5 27zM469.5 1042q-25.5 27 -25.5 66q0 40 25.5 67.5t67.5 27.5t69 -27.5t27 -67.5q0 -39 -26.5 -66t-69.5 -27q-42 0 -67.5 27z" />
    <glyph glyph-name="uniFEDA" unicode="&#x643;" horiz-adv-x="2014" arabic-form="final" 
d="M1746 136h282v-136h-1265q-186 0 -315 68t-192.5 181.5t-63.5 249.5q0 90 40 184.5t117 170.5l104 -87q-52 -55 -80.5 -122.5t-28.5 -141.5q0 -101 49 -184t150 -133t251 -50h794v1361h158v-1361zM1222 807h-111q-87 0 -147 -4t-150 -18v92l133 23q-26 19 -42 53.5
t-16 72.5q0 77 51 118.5t149 41.5h68l-16 -92h-42q-68 0 -96 -19.5t-28 -72.5q0 -44 31 -73t79 -29h137v-93z" />
    <glyph glyph-name="uniFEDB" unicode="&#x643;" horiz-adv-x="1273" arabic-form="initial" 
d="M624 760q145 0 247.5 -52.5t155.5 -148.5t53 -225v-334h-1094v136h937v195q0 139 -74 216.5t-224 77.5h-522v135q23 174 134.5 314.5t288.5 221.5t390 84l19 -143q-172 -4 -316.5 -64.5t-241.5 -167t-132 -245.5h379z" />
    <glyph glyph-name="uniFEDC" unicode="&#x643;" horiz-adv-x="1362" arabic-form="medial" 
d="M1080 136h296v-136h-1390v136h937v195q0 139 -74 216.5t-224 77.5h-522v135q23 174 134.5 314.5t288.5 221.5t390 84l19 -143q-172 -4 -316.5 -64.5t-241.5 -167t-132 -245.5h379q145 0 247.5 -52.5t155.5 -148.5t53 -225v-198z" />
    <glyph glyph-name="uniFEDE" unicode="&#x644;" horiz-adv-x="1495" arabic-form="final" 
d="M1509 136v-136h-288q-15 -155 -97 -271t-205.5 -178t-259.5 -62q-162 0 -291 74.5t-201.5 203.5t-72.5 284q0 104 41 209t122 190l101 -102q-52 -58 -81 -134t-29 -162q0 -120 52 -215t145.5 -148.5t213.5 -53.5q107 0 201 53t150.5 151.5t56.5 228.5v1337h157v-1269h285
z" />
    <glyph glyph-name="uniFEDF" unicode="&#x644;" horiz-adv-x="621" arabic-form="initial" 
d="M428 0h-442v136h284v1360h158v-1496z" />
    <glyph glyph-name="uniFEE0" unicode="&#x644;" horiz-adv-x="699" arabic-form="medial" 
d="M713 0h-727v136h284v1360h158v-1360h285v-136z" />
    <glyph glyph-name="uniFEE2" unicode="&#x645;" horiz-adv-x="1424" arabic-form="final" 
d="M1438 136v-136h-16q-123 0 -209 48t-133 127q-64 -82 -164 -128.5t-223 -46.5h-305q-76 0 -108 -40.5t-32 -131.5v-363h-154v365q0 150 65.5 226t202.5 80q-61 57 -94 138t-33 178q0 126 62 227t167.5 158.5t231.5 57.5q133 0 241.5 -57.5t171 -159t62.5 -228.5
q0 -44 -8 -90h8v-13q0 -63 32 -111t90.5 -74t136.5 -26h8zM701 136q90 0 163.5 40t116.5 113t43 166q0 90 -42.5 160.5t-117.5 109.5t-167 39q-87 0 -159.5 -40t-115 -111.5t-42.5 -163.5q0 -106 46.5 -189t124.5 -124h150z" />
    <glyph glyph-name="uniFEE3" unicode="&#x645;" horiz-adv-x="1180" arabic-form="initial" 
d="M850.5 858q110.5 -59 173.5 -163t63 -232q0 -131 -61 -236.5t-171.5 -166t-252.5 -60.5h-616v136h273q-65 58 -100 142.5t-35 184.5q0 128 63 231.5t173 163t245 59.5t245.5 -59zM609 136q92 0 167.5 41.5t119.5 117t44 172.5q0 94 -44 167t-120.5 113t-170.5 40
q-95 0 -172.5 -39.5t-122.5 -113t-45 -169.5q0 -114 52 -203t139 -126h153z" />
    <glyph glyph-name="uniFEE4" unicode="&#x645;" horiz-adv-x="1340" arabic-form="medial" 
d="M1354 136v-136h-17q-124 0 -210.5 49.5t-132.5 129.5q-65 -84 -166 -131.5t-226 -47.5h-616v136h273q-65 58 -100 142.5t-35 184.5q0 128 63 231.5t173 163t245 59.5t245.5 -59t173.5 -163t63 -232q0 -48 -10 -103h10v-13q0 -63 32 -111t90.5 -74t136.5 -26h8zM609 136
q92 0 167.5 41.5t119.5 117t44 172.5q0 94 -44 167t-120.5 113t-170.5 40q-95 0 -172.5 -39.5t-122.5 -113t-45 -169.5q0 -114 52 -203t139 -126h153z" />
    <glyph glyph-name="uniFEE6" unicode="&#x646;" horiz-adv-x="1492" arabic-form="final" 
d="M1506 136v-136h-285q-15 -155 -97 -271t-205.5 -178t-259.5 -62q-162 0 -291 74.5t-201.5 203.5t-72.5 284q0 104 41 209t122 190l101 -102q-52 -58 -81 -134t-29 -162q0 -120 52 -215t145.5 -148.5t213.5 -53.5q107 0 201 53t150.5 151.5t56.5 228.5v737h157v-669h282z
M610.5 864q-25.5 27 -25.5 66q0 40 25.5 67.5t67.5 27.5t69 -27.5t27 -67.5q0 -39 -26.5 -66t-69.5 -27q-42 0 -67.5 27z" />
    <glyph glyph-name="uniFEE7" unicode="&#x646;" horiz-adv-x="636" arabic-form="initial" 
d="M443 0h-457v136h300v758h157v-894zM299.5 1050q-25.5 27 -25.5 66q0 40 25.5 67.5t67.5 27.5t69 -27.5t27 -67.5q0 -39 -26.5 -66t-69.5 -27q-42 0 -67.5 27z" />
    <glyph glyph-name="uniFEE8" unicode="&#x646;" horiz-adv-x="767" arabic-form="medial" 
d="M781 0h-795v136h319v758h158v-758h318v-136zM325.5 1050q-25.5 27 -25.5 66q0 40 25.5 67.5t67.5 27.5t69 -27.5t27 -67.5q0 -39 -26.5 -66t-69.5 -27q-42 0 -67.5 27z" />
    <glyph glyph-name="uniFEEA" unicode="&#x647;" horiz-adv-x="1140" arabic-form="final" 
d="M863 136h291v-136h-647q-115 0 -209.5 55t-149 151t-54.5 214q0 108 54 196.5t148.5 139.5t209.5 51h199v128h158v-799zM705 136v542h-202q-72 0 -132 -34.5t-94.5 -94.5t-34.5 -131q0 -79 34.5 -143.5t93.5 -101.5t131 -37h204z" />
    <glyph glyph-name="uniFEEB" unicode="&#x647;" horiz-adv-x="1784" arabic-form="initial" 
d="M1592 0h-1606v136h406q-63 58 -98 138t-35 170q0 128 61.5 230t170.5 160t246 58q140 0 248 -55t168 -156t60 -234v-311h221v406q0 166 -76.5 294.5t-213.5 199.5t-311 71v146q223 0 395.5 -88.5t268 -247t95.5 -361.5v-556zM1058 136v302q0 97 -39.5 167t-112 106.5
t-171.5 36.5q-94 0 -168 -37t-116 -106.5t-42 -163.5q0 -109 56.5 -191t153.5 -114h439z" />
    <glyph glyph-name="uniFEEC" unicode="&#x647;" horiz-adv-x="1872" arabic-form="medial" 
d="M1592 136h294v-136h-1900v136h406q-63 58 -98 138t-35 170q0 128 61.5 230t170.5 160t246 58q140 0 248 -55t168 -156t60 -234v-311h221v406q0 166 -76.5 294.5t-213.5 199.5t-311 71v146q223 0 395.5 -88.5t268 -247t95.5 -361.5v-420zM1058 136v302q0 97 -39.5 167
t-112 106.5t-171.5 36.5q-94 0 -168 -37t-116 -106.5t-42 -163.5q0 -109 56.5 -191t153.5 -114h439z" />
    <glyph glyph-name="uniFEEE" unicode="&#x648;" horiz-adv-x="1177" arabic-form="final" 
d="M1191 136v-136h-276v-57q0 -218 -110.5 -326t-306.5 -108q-161 0 -306 66l61 134q59 -26 122.5 -40t122.5 -14q131 0 195.5 69.5t64.5 228.5v47h-225q-124 0 -227 60.5t-163.5 166t-60.5 235.5q0 119 59.5 218t161.5 156.5t225 57.5h387v-758h276zM758 136v628h-227
q-81 0 -148.5 -41.5t-106.5 -111.5t-39 -153q0 -90 39 -163.5t106 -116t149 -42.5h227z" />
    <glyph glyph-name="uniFEF0" unicode="&#x649;" horiz-adv-x="2032" arabic-form="final" 
d="M689 -386q-164 0 -300.5 67.5t-215.5 184.5t-79 258q0 106 40.5 210t120.5 189l102 -102q-54 -60 -83 -135.5t-29 -158.5q0 -99 59 -186t161 -139.5t224 -52.5h484q98 0 144 37t46 93q0 43 -28.5 81t-71.5 70.5t-119 82.5q-100 65 -162.5 115.5t-107 120.5t-44.5 156
q0 101 44.5 178.5t133.5 121t216 43.5q134 0 211 -49.5t112.5 -121t70.5 -191.5q34 -116 67.5 -185t106 -116.5t197.5 -47.5h57v-137h-54q-180 0 -279.5 57.5t-141 139t-76.5 212.5q-28 102 -53.5 160.5t-80 97.5t-150.5 39q-74 0 -123.5 -27t-73 -71.5t-23.5 -97.5
q0 -54 32 -99.5t79 -82t128 -89.5q94 -60 151.5 -106t98 -108.5t40.5 -141.5q0 -78 -43.5 -138.5t-136 -95.5t-233.5 -35h-418z" />
    <glyph glyph-name="uniFEF2" unicode="&#x64a;" horiz-adv-x="2032" arabic-form="final" 
d="M689 -386q-164 0 -300.5 67.5t-215.5 184.5t-79 258q0 106 40.5 210t120.5 189l102 -102q-54 -60 -83 -135.5t-29 -158.5q0 -99 59 -186t161 -139.5t224 -52.5h484q98 0 144 37t46 93q0 43 -28.5 81t-71.5 70.5t-119 82.5q-100 65 -162.5 115.5t-107 120.5t-44.5 156
q0 101 44.5 178.5t133.5 121t216 43.5q134 0 211 -49.5t112.5 -121t70.5 -191.5q34 -116 67.5 -185t106 -116.5t197.5 -47.5h57v-137h-54q-180 0 -279.5 57.5t-141 139t-76.5 212.5q-28 102 -53.5 160.5t-80 97.5t-150.5 39q-74 0 -123.5 -27t-73 -71.5t-23.5 -97.5
q0 -54 32 -99.5t79 -82t128 -89.5q94 -60 151.5 -106t98 -108.5t40.5 -141.5q0 -78 -43.5 -138.5t-136 -95.5t-233.5 -35h-418zM965.5 -590q-25.5 27 -25.5 66q0 40 25.5 67.5t67.5 27.5t69 -27.5t27 -67.5q0 -39 -26.5 -66t-69.5 -27q-42 0 -67.5 27zM715.5 -590
q-25.5 27 -25.5 66q0 40 25.5 67.5t67.5 27.5t69 -27.5t27 -67.5q0 -39 -26.5 -66t-69.5 -27q-42 0 -67.5 27z" />
    <glyph glyph-name="uniFEF3" unicode="&#x64a;" horiz-adv-x="636" arabic-form="initial" 
d="M443 0h-457v136h300v758h157v-894zM379.5 -343q-25.5 27 -25.5 66q0 40 25.5 67.5t67.5 27.5t69 -27.5t27 -67.5q0 -39 -26.5 -66t-69.5 -27q-42 0 -67.5 27zM129.5 -343q-25.5 27 -25.5 66q0 40 25.5 67.5t67.5 27.5t69 -27.5t27 -67.5q0 -39 -26.5 -66t-69.5 -27
q-42 0 -67.5 27z" />
    <glyph glyph-name="uniFEF4" unicode="&#x64a;" horiz-adv-x="767" arabic-form="medial" 
d="M781 0h-795v136h319v758h158v-758h318v-136zM446.5 -343q-25.5 27 -25.5 66q0 40 25.5 67.5t67.5 27.5t69 -27.5t27 -67.5q0 -39 -26.5 -66t-69.5 -27q-42 0 -67.5 27zM196.5 -343q-25.5 27 -25.5 66q0 40 25.5 67.5t67.5 27.5t69 -27.5t27 -67.5q0 -39 -26.5 -66
t-69.5 -27q-42 0 -67.5 27z" />
    <glyph glyph-name=".notdef" horiz-adv-x="926" 
d="M172 1496h587v-1851h-587v1851zM616 1311v61h-305v-61h120v-69h-122v-61h307v61h-122v69h122zM494 1004v129h-185v-192h307v63h-122zM370 1070h61v-66h-61v66zM616 830v61h-307v-61h122v-69h-122v-61h185v130h122zM616 595v185h-61v-123h-246v-62h307zM616 345v209h-185
v-104h63v43h61v-87h-185v148h-61v-209h307zM616 24v210h-307v-210h307zM370 173h185v-87h-185v87zM616 -79v61h-307v-61h130l-130 -87v-61h307v61h-188l129 87h59z" />
    <glyph glyph-name="uni0000" 
 />
    <glyph glyph-name="uni0000" 
 />
    <glyph glyph-name="nonmarkingreturn" horiz-adv-x="666" 
 />
    <glyph glyph-name="uni0010" horiz-adv-x="1725" 
 />
    <glyph glyph-name="space" unicode=" " horiz-adv-x="491" 
 />
    <glyph glyph-name="exclam" unicode="!" horiz-adv-x="627" 
d="M392 396h-154l-6 1009h165zM232 12q-32 31 -32 77t32 77t81 31t81.5 -31.5t32.5 -76.5q0 -46 -32.5 -77t-81.5 -31t-81 31z" />
    <glyph glyph-name="quotedbl" unicode="&#x22;" horiz-adv-x="629" 
d="M246 987h-152v418h152v-418zM535 987h-152v418h152v-418z" />
    <glyph glyph-name="numbersign" unicode="#" horiz-adv-x="1193" 
d="M322 9h-152l62 357h-212l1 129h233l61 340h-226l2 127h245l77 436h151l-76 -436h330l78 436h152l-79 -436h204v-127h-223l-62 -340h215l-1 -129h-234l-64 -357h-153l64 357h-330zM467 835l-61 -340h330l61 340h-330z" />
    <glyph glyph-name="dollar" unicode="$" horiz-adv-x="1162" 
d="M1037.5 187q-54.5 -87 -149.5 -138t-217 -64v-208h-166v209q-138 15 -259.5 77t-204.5 165l108 104q79 -95 198 -146t245 -51q95 0 171 29t119.5 85.5t43.5 137.5q0 79 -47.5 128t-124 78.5t-212.5 65.5q-132 34 -223.5 74t-154.5 116.5t-63 197.5q0 100 50 180
t141.5 130.5t212.5 62.5v221h166v-222q110 -14 209 -58.5t175 -114.5l-98 -113q-70 64 -168.5 101.5t-199.5 37.5q-89 0 -163 -27.5t-117.5 -80t-43.5 -122.5q0 -73 45 -118t113 -70.5t195 -59.5q153 -44 250.5 -88t160.5 -120.5t63 -195.5q0 -116 -54.5 -203z" />
    <glyph glyph-name="percent" unicode="%" horiz-adv-x="1895" 
 />
    <glyph glyph-name="ampersand" unicode="&#x26;" horiz-adv-x="1440" 
d="M1390 0h-196l-129 169q-81 -95 -188.5 -145.5t-234.5 -50.5q-152 0 -276 67.5t-195 183.5t-71 256q0 107 42.5 207.5t124 173.5t193.5 99l-235 308v137h857v-154h-632l593 -789q45 135 41 304l164 2q1 -263 -92 -456zM815 181.5q85 42.5 147 122.5l-398 521
q-154 -6 -228 -94.5t-74 -230.5q0 -104 51.5 -186.5t136 -128.5t179.5 -46q101 0 186 42.5z" />
    <glyph glyph-name="quotesingle" unicode="'" horiz-adv-x="340" 
d="M246 987h-152v418h152v-418z" />
    <glyph glyph-name="parenleft" unicode="(" horiz-adv-x="573" 
d="M447 -424q-347 361 -347 984q0 630 346 991l107 -90q-139 -141 -216 -372.5t-77 -527.5q0 -292 77 -522.5t216 -372.5z" />
    <glyph glyph-name="parenright" unicode=")" horiz-adv-x="573" 
d="M20 -334q139 142 216 372.5t77 522.5q0 296 -77 527.5t-216 372.5l107 90q346 -361 346 -991q0 -623 -347 -984z" />
    <glyph glyph-name="asterisk" unicode="*" horiz-adv-x="844" 
d="M744 1186v-100l-244 5l127 -208l-86 -51l-117 214l-118 -213l-87 51l128 207l-247 -5v101l246 -5l-126 210l86 50l118 -215l119 214l86 -50l-128 -209z" />
    <glyph glyph-name="plus" unicode="+" horiz-adv-x="1094" 
d="M612 223h-132v388h-380v128h380v383h132v-383h382v-128h-382v-388z" />
    <glyph glyph-name="comma" unicode="," horiz-adv-x="437" 
d="M100 -193q112 95 112 168v6q-25 0 -48.5 15t-38 39.5t-14.5 51.5q0 51 32.5 80.5t80.5 29.5q50 0 81.5 -30t31.5 -98q0 -92 -41.5 -173t-123.5 -154z" />
    <glyph glyph-name="hyphen" unicode="-" horiz-adv-x="828" 
d="M728 455h-628v146h628v-146z" />
    <glyph glyph-name="period" unicode="." horiz-adv-x="427" 
d="M132 12q-32 31 -32 77t32 77t81 31t81.5 -31.5t32.5 -76.5q0 -46 -32.5 -77t-81.5 -31t-81 31z" />
    <glyph glyph-name="slash" unicode="/" horiz-adv-x="894" 
d="M146 -272h-174l737 1789h173z" />
    <glyph glyph-name="zero" unicode="0" horiz-adv-x="2718" 
d="M2244 924v-386h-2508v386h972q5 73 44 133.5t101.5 95.5t136.5 35t136.5 -35t101.5 -95.5t44 -133.5h972zM1160 1094q-76 66 -170 66q-48 0 -92 -17.5t-78 -48.5h340zM1186 742q58 71 58 162q0 96 -64 170l-332 -332h338zM792 1066q-58 -71 -58 -162q0 -48 17.5 -92
t48.5 -78l334 332h-342zM1518 642.5q38 36.5 38 91.5q0 54 -38 90t-94 36t-93 -36t-37 -90q0 -55 37 -91.5t93 -36.5t94 36.5zM-82 784h56v70h-192v-70h58v-172h78v172zM112 612h82l-42 92q28 25 28 64q0 37 -27 61.5t-65 24.5h-100v-242h78v70h16zM206 612h76v242h-76v-242
zM456 650l10 -38h84l-82 242h-90l-82 -242h82l10 38h68zM564 612h164v66h-86v176h-78v-242zM1724 612h80v242h-78v-128l-74 128h-80v-242h78l-2 118zM1828 612h164v66h-86v176h-78v-242zM2114 612v96l82 146h-90l-32 -72l-30 72h-92l84 -146v-96h78zM1463 774q15 -16 15 -40
q0 -26 -15 -42t-39 -16q-23 0 -38.5 16.5t-15.5 41.5q0 24 15.5 40t38.5 16q24 0 39 -16zM86 788q6 0 11 -6t5 -14q0 -9 -5 -15.5t-11 -6.5h-20v42h20zM404 714l16 58h2l16 -58h-34zM820 714q74 -64 170 -64q47 0 91 17t79 47h-340zM702 352q25 -14 52 -14q22 0 37 12t15 34
q0 15 -12 25t-34 19q-18 6 -25 10.5t-7 15.5q0 10 8 16t20 6q10 0 21 -4t19 -10v26q-20 10 -40 10q-23 0 -37.5 -11.5t-14.5 -32.5q0 -19 10.5 -27.5t33.5 -18.5q18 -5 26 -10t8 -14q0 -12 -8 -18t-20 -6q-27 0 -52 18v-26zM903 361q23 -23 57 -23q33 0 56.5 23t23.5 57
q0 33 -23.5 56.5t-56.5 23.5q-34 0 -57 -23.5t-23 -56.5q0 -34 23 -57zM1198 336v158h-24v-108l-98 110h-12v-156h24v104l98 -108h12zM-166 494h-100v-154h24v58h66v22h-66v52h76v22zM-146 400q0 -27 17.5 -44.5t44.5 -17.5q28 0 46 17.5t18 44.5v94h-24v-94q0 -16 -12 -28
t-28 -12q-17 0 -27.5 11t-10.5 29v94h-24v-94zM34 494h-24v-154h94v22h-70v132zM150 494h-24v-154h96v22h-72v132zM366 340l64 154h-28l-44 -114l-44 114h-28l64 -154h16zM550 494h-100v-154h100v22h-76v46h66v20h-66v44h76v22zM662 340h28l-30 62q11 6 17.5 17.5t6.5 24.5
q0 21 -14.5 35.5t-35.5 14.5h-58v-154h24v56h36zM854 494h-24v-154h24v154zM998.5 376.5q-15.5 -16.5 -38.5 -16.5q-24 0 -40 16.5t-16 41.5q0 24 16 40t40 16q23 0 38.5 -16t15.5 -40q0 -25 -15.5 -41.5zM652.5 424q-7.5 -8 -18.5 -8h-34v56h34q11 0 18.5 -8t7.5 -20
t-7.5 -20zM2172 366l50 48l-50 48l-16 -14l26 -22h-916v-24h916l-26 -22zM694 107.5q34 -33.5 84 -33.5q51 0 84.5 33t33.5 83q0 48 -33.5 81t-84.5 33q-50 0 -84 -33t-34 -81q0 -49 34 -82.5zM1314 94q31 -20 76 -20q39 0 63.5 19.5t24.5 54.5q0 53 -72 70q-5 2 -13.5 4
t-11.5 4.5t-3 7.5q0 8 22 8q14 0 32.5 -6t31.5 -16v68q-35 16 -64 16q-41 0 -65.5 -18t-24.5 -50q0 -28 15 -43.5t49 -26.5q7 -2 16 -4.5t13.5 -5.5t4.5 -8q0 -12 -18 -12q-26 0 -76 32v-74zM1604 107.5q34 -33.5 82 -33.5q24 0 52 14l2 70q-20 -20 -50 -20q-21 0 -35.5 15
t-14.5 37q0 21 14.5 35.5t35.5 14.5t44 -14v66q-21 12 -46 12q-50 0 -84 -33t-34 -81q0 -49 34 -82.5zM1780.5 107.5q34.5 -33.5 85.5 -33.5q50 0 84 33.5t34 82.5q0 48 -34 81t-84 33q-51 0 -85.5 -33t-34.5 -81q0 -49 34.5 -82.5zM-264 236h72l-82 -156h190v62h-76l82 156
h-186v-62zM94 298h-158v-218h160v60h-90v20h76v60h-76v18h88v60zM104 236h52v-156h70v156h52v62h-174v-62zM336 114h62l8 -34h76l-74 218h-80l-74 -218h72zM652 298h-158v-218h70v68h74v58h-74v32h88v60zM1120 80v218h-70v-116l-66 116h-72v-218h70l-2 106l68 -106h72z
M1132 236h52v-156h70v156h50v62h-172v-62zM2068 298h-70v-218h70v86l28 -54h50l28 54v-86h68v218h-70l-52 -100zM812.5 152.5q-13.5 -14.5 -34.5 -14.5t-34.5 14.5t-13.5 37.5q0 21 13.5 35.5t34.5 14.5t34.5 -14.5t13.5 -35.5q0 -23 -13.5 -37.5zM1900 153q-14 -15 -34 -15
q-21 0 -35.5 15t-14.5 37q0 21 14.5 35.5t35.5 14.5q20 0 34 -14.5t14 -35.5q0 -22 -14 -37zM368 224l14 -52h-30l14 52h2zM1498 84q10 -10 26 -10q15 0 24.5 10t9.5 24t-9.5 23t-24.5 9q-16 0 -26 -9t-10 -23t10 -24z" />
    <glyph glyph-name="one" unicode="1" horiz-adv-x="2744" 
d="M2244 924v-386h-2508v386h972q5 73 44 133.5t101.5 95.5t136.5 35t136.5 -35t101.5 -95.5t44 -133.5h972zM1160 1094q-76 66 -170 66q-48 0 -92 -17.5t-78 -48.5h340zM1186 742q58 71 58 162q0 96 -64 170l-332 -332h338zM792 1066q-58 -71 -58 -162q0 -48 17.5 -92
t48.5 -78l334 332h-342zM1518 642.5q38 36.5 38 91.5q0 54 -38 90t-94 36t-93 -36t-37 -90q0 -55 37 -91.5t93 -36.5t94 36.5zM-82 784h56v70h-192v-70h58v-172h78v172zM112 612h82l-42 92q28 25 28 64q0 37 -27 61.5t-65 24.5h-100v-242h78v70h16zM206 612h76v242h-76v-242
zM456 650l10 -38h84l-82 242h-90l-82 -242h82l10 38h68zM564 612h164v66h-86v176h-78v-242zM1724 612h80v242h-78v-128l-74 128h-80v-242h78l-2 118zM1828 612h164v66h-86v176h-78v-242zM2114 612v96l82 146h-90l-32 -72l-30 72h-92l84 -146v-96h78zM1463 774q15 -16 15 -40
q0 -26 -15 -42t-39 -16q-23 0 -38.5 16.5t-15.5 41.5q0 24 15.5 40t38.5 16q24 0 39 -16zM86 788q6 0 11 -6t5 -14q0 -9 -5 -15.5t-11 -6.5h-20v42h20zM404 714l16 58h2l16 -58h-34zM820 714q74 -64 170 -64q47 0 91 17t79 47h-340zM702 352q25 -14 52 -14q22 0 37 12t15 34
q0 15 -12 25t-34 19q-18 6 -25 10.5t-7 15.5q0 10 8 16t20 6q10 0 21 -4t19 -10v26q-20 10 -40 10q-23 0 -37.5 -11.5t-14.5 -32.5q0 -19 10.5 -27.5t33.5 -18.5q18 -5 26 -10t8 -14q0 -12 -8 -18t-20 -6q-27 0 -52 18v-26zM903 361q23 -23 57 -23q33 0 56.5 23t23.5 57
q0 33 -23.5 56.5t-56.5 23.5q-34 0 -57 -23.5t-23 -56.5q0 -34 23 -57zM1198 336v158h-24v-108l-98 110h-12v-156h24v104l98 -108h12zM-166 494h-100v-154h24v58h66v22h-66v52h76v22zM-146 400q0 -27 17.5 -44.5t44.5 -17.5q28 0 46 17.5t18 44.5v94h-24v-94q0 -16 -12 -28
t-28 -12q-17 0 -27.5 11t-10.5 29v94h-24v-94zM34 494h-24v-154h94v22h-70v132zM150 494h-24v-154h96v22h-72v132zM366 340l64 154h-28l-44 -114l-44 114h-28l64 -154h16zM550 494h-100v-154h100v22h-76v46h66v20h-66v44h76v22zM662 340h28l-30 62q11 6 17.5 17.5t6.5 24.5
q0 21 -14.5 35.5t-35.5 14.5h-58v-154h24v56h36zM854 494h-24v-154h24v154zM998.5 376.5q-15.5 -16.5 -38.5 -16.5q-24 0 -40 16.5t-16 41.5q0 24 16 40t40 16q23 0 38.5 -16t15.5 -40q0 -25 -15.5 -41.5zM652.5 424q-7.5 -8 -18.5 -8h-34v56h34q11 0 18.5 -8t7.5 -20
t-7.5 -20zM2172 366l50 48l-50 48l-16 -14l26 -22h-916v-24h916l-26 -22zM694 107.5q34 -33.5 84 -33.5q51 0 84.5 33t33.5 83q0 48 -33.5 81t-84.5 33q-50 0 -84 -33t-34 -81q0 -49 34 -82.5zM1314 94q31 -20 76 -20q39 0 63.5 19.5t24.5 54.5q0 53 -72 70q-5 2 -13.5 4
t-11.5 4.5t-3 7.5q0 8 22 8q14 0 32.5 -6t31.5 -16v68q-35 16 -64 16q-41 0 -65.5 -18t-24.5 -50q0 -28 15 -43.5t49 -26.5q7 -2 16 -4.5t13.5 -5.5t4.5 -8q0 -12 -18 -12q-26 0 -76 32v-74zM1604 107.5q34 -33.5 82 -33.5q24 0 52 14l2 70q-20 -20 -50 -20q-21 0 -35.5 15
t-14.5 37q0 21 14.5 35.5t35.5 14.5t44 -14v66q-21 12 -46 12q-50 0 -84 -33t-34 -81q0 -49 34 -82.5zM1780.5 107.5q34.5 -33.5 85.5 -33.5q50 0 84 33.5t34 82.5q0 48 -34 81t-84 33q-51 0 -85.5 -33t-34.5 -81q0 -49 34.5 -82.5zM-264 236h72l-82 -156h190v62h-76l82 156
h-186v-62zM94 298h-158v-218h160v60h-90v20h76v60h-76v18h88v60zM104 236h52v-156h70v156h52v62h-174v-62zM336 114h62l8 -34h76l-74 218h-80l-74 -218h72zM652 298h-158v-218h70v68h74v58h-74v32h88v60zM1120 80v218h-70v-116l-66 116h-72v-218h70l-2 106l68 -106h72z
M1132 236h52v-156h70v156h50v62h-172v-62zM2068 298h-70v-218h70v86l28 -54h50l28 54v-86h68v218h-70l-52 -100zM812.5 152.5q-13.5 -14.5 -34.5 -14.5t-34.5 14.5t-13.5 37.5q0 21 13.5 35.5t34.5 14.5t34.5 -14.5t13.5 -35.5q0 -23 -13.5 -37.5zM1900 153q-14 -15 -34 -15
q-21 0 -35.5 15t-14.5 37q0 21 14.5 35.5t35.5 14.5q20 0 34 -14.5t14 -35.5q0 -22 -14 -37zM368 224l14 -52h-30l14 52h2zM1498 84q10 -10 26 -10q15 0 24.5 10t9.5 24t-9.5 23t-24.5 9q-16 0 -26 -9t-10 -23t10 -24z" />
    <glyph glyph-name="two" unicode="2" horiz-adv-x="2540" 
d="M2244 924v-386h-2508v386h972q5 73 44 133.5t101.5 95.5t136.5 35t136.5 -35t101.5 -95.5t44 -133.5h972zM1160 1094q-76 66 -170 66q-48 0 -92 -17.5t-78 -48.5h340zM1186 742q58 71 58 162q0 96 -64 170l-332 -332h338zM792 1066q-58 -71 -58 -162q0 -48 17.5 -92
t48.5 -78l334 332h-342zM1518 642.5q38 36.5 38 91.5q0 54 -38 90t-94 36t-93 -36t-37 -90q0 -55 37 -91.5t93 -36.5t94 36.5zM-82 784h56v70h-192v-70h58v-172h78v172zM112 612h82l-42 92q28 25 28 64q0 37 -27 61.5t-65 24.5h-100v-242h78v70h16zM206 612h76v242h-76v-242
zM456 650l10 -38h84l-82 242h-90l-82 -242h82l10 38h68zM564 612h164v66h-86v176h-78v-242zM1724 612h80v242h-78v-128l-74 128h-80v-242h78l-2 118zM1828 612h164v66h-86v176h-78v-242zM2114 612v96l82 146h-90l-32 -72l-30 72h-92l84 -146v-96h78zM1463 774q15 -16 15 -40
q0 -26 -15 -42t-39 -16q-23 0 -38.5 16.5t-15.5 41.5q0 24 15.5 40t38.5 16q24 0 39 -16zM86 788q6 0 11 -6t5 -14q0 -9 -5 -15.5t-11 -6.5h-20v42h20zM404 714l16 58h2l16 -58h-34zM820 714q74 -64 170 -64q47 0 91 17t79 47h-340zM702 352q25 -14 52 -14q22 0 37 12t15 34
q0 15 -12 25t-34 19q-18 6 -25 10.5t-7 15.5q0 10 8 16t20 6q10 0 21 -4t19 -10v26q-20 10 -40 10q-23 0 -37.5 -11.5t-14.5 -32.5q0 -19 10.5 -27.5t33.5 -18.5q18 -5 26 -10t8 -14q0 -12 -8 -18t-20 -6q-27 0 -52 18v-26zM903 361q23 -23 57 -23q33 0 56.5 23t23.5 57
q0 33 -23.5 56.5t-56.5 23.5q-34 0 -57 -23.5t-23 -56.5q0 -34 23 -57zM1198 336v158h-24v-108l-98 110h-12v-156h24v104l98 -108h12zM-166 494h-100v-154h24v58h66v22h-66v52h76v22zM-146 400q0 -27 17.5 -44.5t44.5 -17.5q28 0 46 17.5t18 44.5v94h-24v-94q0 -16 -12 -28
t-28 -12q-17 0 -27.5 11t-10.5 29v94h-24v-94zM34 494h-24v-154h94v22h-70v132zM150 494h-24v-154h96v22h-72v132zM366 340l64 154h-28l-44 -114l-44 114h-28l64 -154h16zM550 494h-100v-154h100v22h-76v46h66v20h-66v44h76v22zM662 340h28l-30 62q11 6 17.5 17.5t6.5 24.5
q0 21 -14.5 35.5t-35.5 14.5h-58v-154h24v56h36zM854 494h-24v-154h24v154zM998.5 376.5q-15.5 -16.5 -38.5 -16.5q-24 0 -40 16.5t-16 41.5q0 24 16 40t40 16q23 0 38.5 -16t15.5 -40q0 -25 -15.5 -41.5zM652.5 424q-7.5 -8 -18.5 -8h-34v56h34q11 0 18.5 -8t7.5 -20
t-7.5 -20zM2172 366l50 48l-50 48l-16 -14l26 -22h-916v-24h916l-26 -22zM694 107.5q34 -33.5 84 -33.5q51 0 84.5 33t33.5 83q0 48 -33.5 81t-84.5 33q-50 0 -84 -33t-34 -81q0 -49 34 -82.5zM1314 94q31 -20 76 -20q39 0 63.5 19.5t24.5 54.5q0 53 -72 70q-5 2 -13.5 4
t-11.5 4.5t-3 7.5q0 8 22 8q14 0 32.5 -6t31.5 -16v68q-35 16 -64 16q-41 0 -65.5 -18t-24.5 -50q0 -28 15 -43.5t49 -26.5q7 -2 16 -4.5t13.5 -5.5t4.5 -8q0 -12 -18 -12q-26 0 -76 32v-74zM1604 107.5q34 -33.5 82 -33.5q24 0 52 14l2 70q-20 -20 -50 -20q-21 0 -35.5 15
t-14.5 37q0 21 14.5 35.5t35.5 14.5t44 -14v66q-21 12 -46 12q-50 0 -84 -33t-34 -81q0 -49 34 -82.5zM1780.5 107.5q34.5 -33.5 85.5 -33.5q50 0 84 33.5t34 82.5q0 48 -34 81t-84 33q-51 0 -85.5 -33t-34.5 -81q0 -49 34.5 -82.5zM-264 236h72l-82 -156h190v62h-76l82 156
h-186v-62zM94 298h-158v-218h160v60h-90v20h76v60h-76v18h88v60zM104 236h52v-156h70v156h52v62h-174v-62zM336 114h62l8 -34h76l-74 218h-80l-74 -218h72zM652 298h-158v-218h70v68h74v58h-74v32h88v60zM1120 80v218h-70v-116l-66 116h-72v-218h70l-2 106l68 -106h72z
M1132 236h52v-156h70v156h50v62h-172v-62zM2068 298h-70v-218h70v86l28 -54h50l28 54v-86h68v218h-70l-52 -100zM812.5 152.5q-13.5 -14.5 -34.5 -14.5t-34.5 14.5t-13.5 37.5q0 21 13.5 35.5t34.5 14.5t34.5 -14.5t13.5 -35.5q0 -23 -13.5 -37.5zM1900 153q-14 -15 -34 -15
q-21 0 -35.5 15t-14.5 37q0 21 14.5 35.5t35.5 14.5q20 0 34 -14.5t14 -35.5q0 -22 -14 -37zM368 224l14 -52h-30l14 52h2zM1498 84q10 -10 26 -10q15 0 24.5 10t9.5 24t-9.5 23t-24.5 9q-16 0 -26 -9t-10 -23t10 -24z" />
    <glyph glyph-name="three" unicode="3" horiz-adv-x="2496" 
d="M2244 924v-386h-2508v386h972q5 73 44 133.5t101.5 95.5t136.5 35t136.5 -35t101.5 -95.5t44 -133.5h972zM1160 1094q-76 66 -170 66q-48 0 -92 -17.5t-78 -48.5h340zM1186 742q58 71 58 162q0 96 -64 170l-332 -332h338zM792 1066q-58 -71 -58 -162q0 -48 17.5 -92
t48.5 -78l334 332h-342zM1518 642.5q38 36.5 38 91.5q0 54 -38 90t-94 36t-93 -36t-37 -90q0 -55 37 -91.5t93 -36.5t94 36.5zM-82 784h56v70h-192v-70h58v-172h78v172zM112 612h82l-42 92q28 25 28 64q0 37 -27 61.5t-65 24.5h-100v-242h78v70h16zM206 612h76v242h-76v-242
zM456 650l10 -38h84l-82 242h-90l-82 -242h82l10 38h68zM564 612h164v66h-86v176h-78v-242zM1724 612h80v242h-78v-128l-74 128h-80v-242h78l-2 118zM1828 612h164v66h-86v176h-78v-242zM2114 612v96l82 146h-90l-32 -72l-30 72h-92l84 -146v-96h78zM1463 774q15 -16 15 -40
q0 -26 -15 -42t-39 -16q-23 0 -38.5 16.5t-15.5 41.5q0 24 15.5 40t38.5 16q24 0 39 -16zM86 788q6 0 11 -6t5 -14q0 -9 -5 -15.5t-11 -6.5h-20v42h20zM404 714l16 58h2l16 -58h-34zM820 714q74 -64 170 -64q47 0 91 17t79 47h-340zM702 352q25 -14 52 -14q22 0 37 12t15 34
q0 15 -12 25t-34 19q-18 6 -25 10.5t-7 15.5q0 10 8 16t20 6q10 0 21 -4t19 -10v26q-20 10 -40 10q-23 0 -37.5 -11.5t-14.5 -32.5q0 -19 10.5 -27.5t33.5 -18.5q18 -5 26 -10t8 -14q0 -12 -8 -18t-20 -6q-27 0 -52 18v-26zM903 361q23 -23 57 -23q33 0 56.5 23t23.5 57
q0 33 -23.5 56.5t-56.5 23.5q-34 0 -57 -23.5t-23 -56.5q0 -34 23 -57zM1198 336v158h-24v-108l-98 110h-12v-156h24v104l98 -108h12zM-166 494h-100v-154h24v58h66v22h-66v52h76v22zM-146 400q0 -27 17.5 -44.5t44.5 -17.5q28 0 46 17.5t18 44.5v94h-24v-94q0 -16 -12 -28
t-28 -12q-17 0 -27.5 11t-10.5 29v94h-24v-94zM34 494h-24v-154h94v22h-70v132zM150 494h-24v-154h96v22h-72v132zM366 340l64 154h-28l-44 -114l-44 114h-28l64 -154h16zM550 494h-100v-154h100v22h-76v46h66v20h-66v44h76v22zM662 340h28l-30 62q11 6 17.5 17.5t6.5 24.5
q0 21 -14.5 35.5t-35.5 14.5h-58v-154h24v56h36zM854 494h-24v-154h24v154zM998.5 376.5q-15.5 -16.5 -38.5 -16.5q-24 0 -40 16.5t-16 41.5q0 24 16 40t40 16q23 0 38.5 -16t15.5 -40q0 -25 -15.5 -41.5zM652.5 424q-7.5 -8 -18.5 -8h-34v56h34q11 0 18.5 -8t7.5 -20
t-7.5 -20zM2172 366l50 48l-50 48l-16 -14l26 -22h-916v-24h916l-26 -22zM694 107.5q34 -33.5 84 -33.5q51 0 84.5 33t33.5 83q0 48 -33.5 81t-84.5 33q-50 0 -84 -33t-34 -81q0 -49 34 -82.5zM1314 94q31 -20 76 -20q39 0 63.5 19.5t24.5 54.5q0 53 -72 70q-5 2 -13.5 4
t-11.5 4.5t-3 7.5q0 8 22 8q14 0 32.5 -6t31.5 -16v68q-35 16 -64 16q-41 0 -65.5 -18t-24.5 -50q0 -28 15 -43.5t49 -26.5q7 -2 16 -4.5t13.5 -5.5t4.5 -8q0 -12 -18 -12q-26 0 -76 32v-74zM1604 107.5q34 -33.5 82 -33.5q24 0 52 14l2 70q-20 -20 -50 -20q-21 0 -35.5 15
t-14.5 37q0 21 14.5 35.5t35.5 14.5t44 -14v66q-21 12 -46 12q-50 0 -84 -33t-34 -81q0 -49 34 -82.5zM1780.5 107.5q34.5 -33.5 85.5 -33.5q50 0 84 33.5t34 82.5q0 48 -34 81t-84 33q-51 0 -85.5 -33t-34.5 -81q0 -49 34.5 -82.5zM-264 236h72l-82 -156h190v62h-76l82 156
h-186v-62zM94 298h-158v-218h160v60h-90v20h76v60h-76v18h88v60zM104 236h52v-156h70v156h52v62h-174v-62zM336 114h62l8 -34h76l-74 218h-80l-74 -218h72zM652 298h-158v-218h70v68h74v58h-74v32h88v60zM1120 80v218h-70v-116l-66 116h-72v-218h70l-2 106l68 -106h72z
M1132 236h52v-156h70v156h50v62h-172v-62zM2068 298h-70v-218h70v86l28 -54h50l28 54v-86h68v218h-70l-52 -100zM812.5 152.5q-13.5 -14.5 -34.5 -14.5t-34.5 14.5t-13.5 37.5q0 21 13.5 35.5t34.5 14.5t34.5 -14.5t13.5 -35.5q0 -23 -13.5 -37.5zM1900 153q-14 -15 -34 -15
q-21 0 -35.5 15t-14.5 37q0 21 14.5 35.5t35.5 14.5q20 0 34 -14.5t14 -35.5q0 -22 -14 -37zM368 224l14 -52h-30l14 52h2zM1498 84q10 -10 26 -10q15 0 24.5 10t9.5 24t-9.5 23t-24.5 9q-16 0 -26 -9t-10 -23t10 -24z" />
    <glyph glyph-name="four" unicode="4" horiz-adv-x="2394" 
d="M2244 924v-386h-2508v386h972q5 73 44 133.5t101.5 95.5t136.5 35t136.5 -35t101.5 -95.5t44 -133.5h972zM1160 1094q-76 66 -170 66q-48 0 -92 -17.5t-78 -48.5h340zM1186 742q58 71 58 162q0 96 -64 170l-332 -332h338zM792 1066q-58 -71 -58 -162q0 -48 17.5 -92
t48.5 -78l334 332h-342zM1518 642.5q38 36.5 38 91.5q0 54 -38 90t-94 36t-93 -36t-37 -90q0 -55 37 -91.5t93 -36.5t94 36.5zM-82 784h56v70h-192v-70h58v-172h78v172zM112 612h82l-42 92q28 25 28 64q0 37 -27 61.5t-65 24.5h-100v-242h78v70h16zM206 612h76v242h-76v-242
zM456 650l10 -38h84l-82 242h-90l-82 -242h82l10 38h68zM564 612h164v66h-86v176h-78v-242zM1724 612h80v242h-78v-128l-74 128h-80v-242h78l-2 118zM1828 612h164v66h-86v176h-78v-242zM2114 612v96l82 146h-90l-32 -72l-30 72h-92l84 -146v-96h78zM1463 774q15 -16 15 -40
q0 -26 -15 -42t-39 -16q-23 0 -38.5 16.5t-15.5 41.5q0 24 15.5 40t38.5 16q24 0 39 -16zM86 788q6 0 11 -6t5 -14q0 -9 -5 -15.5t-11 -6.5h-20v42h20zM404 714l16 58h2l16 -58h-34zM820 714q74 -64 170 -64q47 0 91 17t79 47h-340zM702 352q25 -14 52 -14q22 0 37 12t15 34
q0 15 -12 25t-34 19q-18 6 -25 10.5t-7 15.5q0 10 8 16t20 6q10 0 21 -4t19 -10v26q-20 10 -40 10q-23 0 -37.5 -11.5t-14.5 -32.5q0 -19 10.5 -27.5t33.5 -18.5q18 -5 26 -10t8 -14q0 -12 -8 -18t-20 -6q-27 0 -52 18v-26zM903 361q23 -23 57 -23q33 0 56.5 23t23.5 57
q0 33 -23.5 56.5t-56.5 23.5q-34 0 -57 -23.5t-23 -56.5q0 -34 23 -57zM1198 336v158h-24v-108l-98 110h-12v-156h24v104l98 -108h12zM-166 494h-100v-154h24v58h66v22h-66v52h76v22zM-146 400q0 -27 17.5 -44.5t44.5 -17.5q28 0 46 17.5t18 44.5v94h-24v-94q0 -16 -12 -28
t-28 -12q-17 0 -27.5 11t-10.5 29v94h-24v-94zM34 494h-24v-154h94v22h-70v132zM150 494h-24v-154h96v22h-72v132zM366 340l64 154h-28l-44 -114l-44 114h-28l64 -154h16zM550 494h-100v-154h100v22h-76v46h66v20h-66v44h76v22zM662 340h28l-30 62q11 6 17.5 17.5t6.5 24.5
q0 21 -14.5 35.5t-35.5 14.5h-58v-154h24v56h36zM854 494h-24v-154h24v154zM998.5 376.5q-15.5 -16.5 -38.5 -16.5q-24 0 -40 16.5t-16 41.5q0 24 16 40t40 16q23 0 38.5 -16t15.5 -40q0 -25 -15.5 -41.5zM652.5 424q-7.5 -8 -18.5 -8h-34v56h34q11 0 18.5 -8t7.5 -20
t-7.5 -20zM2172 366l50 48l-50 48l-16 -14l26 -22h-916v-24h916l-26 -22zM694 107.5q34 -33.5 84 -33.5q51 0 84.5 33t33.5 83q0 48 -33.5 81t-84.5 33q-50 0 -84 -33t-34 -81q0 -49 34 -82.5zM1314 94q31 -20 76 -20q39 0 63.5 19.5t24.5 54.5q0 53 -72 70q-5 2 -13.5 4
t-11.5 4.5t-3 7.5q0 8 22 8q14 0 32.5 -6t31.5 -16v68q-35 16 -64 16q-41 0 -65.5 -18t-24.5 -50q0 -28 15 -43.5t49 -26.5q7 -2 16 -4.5t13.5 -5.5t4.5 -8q0 -12 -18 -12q-26 0 -76 32v-74zM1604 107.5q34 -33.5 82 -33.5q24 0 52 14l2 70q-20 -20 -50 -20q-21 0 -35.5 15
t-14.5 37q0 21 14.5 35.5t35.5 14.5t44 -14v66q-21 12 -46 12q-50 0 -84 -33t-34 -81q0 -49 34 -82.5zM1780.5 107.5q34.5 -33.5 85.5 -33.5q50 0 84 33.5t34 82.5q0 48 -34 81t-84 33q-51 0 -85.5 -33t-34.5 -81q0 -49 34.5 -82.5zM-264 236h72l-82 -156h190v62h-76l82 156
h-186v-62zM94 298h-158v-218h160v60h-90v20h76v60h-76v18h88v60zM104 236h52v-156h70v156h52v62h-174v-62zM336 114h62l8 -34h76l-74 218h-80l-74 -218h72zM652 298h-158v-218h70v68h74v58h-74v32h88v60zM1120 80v218h-70v-116l-66 116h-72v-218h70l-2 106l68 -106h72z
M1132 236h52v-156h70v156h50v62h-172v-62zM2068 298h-70v-218h70v86l28 -54h50l28 54v-86h68v218h-70l-52 -100zM812.5 152.5q-13.5 -14.5 -34.5 -14.5t-34.5 14.5t-13.5 37.5q0 21 13.5 35.5t34.5 14.5t34.5 -14.5t13.5 -35.5q0 -23 -13.5 -37.5zM1900 153q-14 -15 -34 -15
q-21 0 -35.5 15t-14.5 37q0 21 14.5 35.5t35.5 14.5q20 0 34 -14.5t14 -35.5q0 -22 -14 -37zM368 224l14 -52h-30l14 52h2zM1498 84q10 -10 26 -10q15 0 24.5 10t9.5 24t-9.5 23t-24.5 9q-16 0 -26 -9t-10 -23t10 -24z" />
    <glyph glyph-name="five" unicode="5" horiz-adv-x="2475" 
d="M2244 924v-386h-2508v386h972q5 73 44 133.5t101.5 95.5t136.5 35t136.5 -35t101.5 -95.5t44 -133.5h972zM1160 1094q-76 66 -170 66q-48 0 -92 -17.5t-78 -48.5h340zM1186 742q58 71 58 162q0 96 -64 170l-332 -332h338zM792 1066q-58 -71 -58 -162q0 -48 17.5 -92
t48.5 -78l334 332h-342zM1518 642.5q38 36.5 38 91.5q0 54 -38 90t-94 36t-93 -36t-37 -90q0 -55 37 -91.5t93 -36.5t94 36.5zM-82 784h56v70h-192v-70h58v-172h78v172zM112 612h82l-42 92q28 25 28 64q0 37 -27 61.5t-65 24.5h-100v-242h78v70h16zM206 612h76v242h-76v-242
zM456 650l10 -38h84l-82 242h-90l-82 -242h82l10 38h68zM564 612h164v66h-86v176h-78v-242zM1724 612h80v242h-78v-128l-74 128h-80v-242h78l-2 118zM1828 612h164v66h-86v176h-78v-242zM2114 612v96l82 146h-90l-32 -72l-30 72h-92l84 -146v-96h78zM1463 774q15 -16 15 -40
q0 -26 -15 -42t-39 -16q-23 0 -38.5 16.5t-15.5 41.5q0 24 15.5 40t38.5 16q24 0 39 -16zM86 788q6 0 11 -6t5 -14q0 -9 -5 -15.5t-11 -6.5h-20v42h20zM404 714l16 58h2l16 -58h-34zM820 714q74 -64 170 -64q47 0 91 17t79 47h-340zM702 352q25 -14 52 -14q22 0 37 12t15 34
q0 15 -12 25t-34 19q-18 6 -25 10.5t-7 15.5q0 10 8 16t20 6q10 0 21 -4t19 -10v26q-20 10 -40 10q-23 0 -37.5 -11.5t-14.5 -32.5q0 -19 10.5 -27.5t33.5 -18.5q18 -5 26 -10t8 -14q0 -12 -8 -18t-20 -6q-27 0 -52 18v-26zM903 361q23 -23 57 -23q33 0 56.5 23t23.5 57
q0 33 -23.5 56.5t-56.5 23.5q-34 0 -57 -23.5t-23 -56.5q0 -34 23 -57zM1198 336v158h-24v-108l-98 110h-12v-156h24v104l98 -108h12zM-166 494h-100v-154h24v58h66v22h-66v52h76v22zM-146 400q0 -27 17.5 -44.5t44.5 -17.5q28 0 46 17.5t18 44.5v94h-24v-94q0 -16 -12 -28
t-28 -12q-17 0 -27.5 11t-10.5 29v94h-24v-94zM34 494h-24v-154h94v22h-70v132zM150 494h-24v-154h96v22h-72v132zM366 340l64 154h-28l-44 -114l-44 114h-28l64 -154h16zM550 494h-100v-154h100v22h-76v46h66v20h-66v44h76v22zM662 340h28l-30 62q11 6 17.5 17.5t6.5 24.5
q0 21 -14.5 35.5t-35.5 14.5h-58v-154h24v56h36zM854 494h-24v-154h24v154zM998.5 376.5q-15.5 -16.5 -38.5 -16.5q-24 0 -40 16.5t-16 41.5q0 24 16 40t40 16q23 0 38.5 -16t15.5 -40q0 -25 -15.5 -41.5zM652.5 424q-7.5 -8 -18.5 -8h-34v56h34q11 0 18.5 -8t7.5 -20
t-7.5 -20zM2172 366l50 48l-50 48l-16 -14l26 -22h-916v-24h916l-26 -22zM694 107.5q34 -33.5 84 -33.5q51 0 84.5 33t33.5 83q0 48 -33.5 81t-84.5 33q-50 0 -84 -33t-34 -81q0 -49 34 -82.5zM1314 94q31 -20 76 -20q39 0 63.5 19.5t24.5 54.5q0 53 -72 70q-5 2 -13.5 4
t-11.5 4.5t-3 7.5q0 8 22 8q14 0 32.5 -6t31.5 -16v68q-35 16 -64 16q-41 0 -65.5 -18t-24.5 -50q0 -28 15 -43.5t49 -26.5q7 -2 16 -4.5t13.5 -5.5t4.5 -8q0 -12 -18 -12q-26 0 -76 32v-74zM1604 107.5q34 -33.5 82 -33.5q24 0 52 14l2 70q-20 -20 -50 -20q-21 0 -35.5 15
t-14.5 37q0 21 14.5 35.5t35.5 14.5t44 -14v66q-21 12 -46 12q-50 0 -84 -33t-34 -81q0 -49 34 -82.5zM1780.5 107.5q34.5 -33.5 85.5 -33.5q50 0 84 33.5t34 82.5q0 48 -34 81t-84 33q-51 0 -85.5 -33t-34.5 -81q0 -49 34.5 -82.5zM-264 236h72l-82 -156h190v62h-76l82 156
h-186v-62zM94 298h-158v-218h160v60h-90v20h76v60h-76v18h88v60zM104 236h52v-156h70v156h52v62h-174v-62zM336 114h62l8 -34h76l-74 218h-80l-74 -218h72zM652 298h-158v-218h70v68h74v58h-74v32h88v60zM1120 80v218h-70v-116l-66 116h-72v-218h70l-2 106l68 -106h72z
M1132 236h52v-156h70v156h50v62h-172v-62zM2068 298h-70v-218h70v86l28 -54h50l28 54v-86h68v218h-70l-52 -100zM812.5 152.5q-13.5 -14.5 -34.5 -14.5t-34.5 14.5t-13.5 37.5q0 21 13.5 35.5t34.5 14.5t34.5 -14.5t13.5 -35.5q0 -23 -13.5 -37.5zM1900 153q-14 -15 -34 -15
q-21 0 -35.5 15t-14.5 37q0 21 14.5 35.5t35.5 14.5q20 0 34 -14.5t14 -35.5q0 -22 -14 -37zM368 224l14 -52h-30l14 52h2zM1498 84q10 -10 26 -10q15 0 24.5 10t9.5 24t-9.5 23t-24.5 9q-16 0 -26 -9t-10 -23t10 -24z" />
    <glyph glyph-name="six" unicode="6" horiz-adv-x="2649" 
d="M2244 924v-386h-2508v386h972q5 73 44 133.5t101.5 95.5t136.5 35t136.5 -35t101.5 -95.5t44 -133.5h972zM1160 1094q-76 66 -170 66q-48 0 -92 -17.5t-78 -48.5h340zM1186 742q58 71 58 162q0 96 -64 170l-332 -332h338zM792 1066q-58 -71 -58 -162q0 -48 17.5 -92
t48.5 -78l334 332h-342zM1518 642.5q38 36.5 38 91.5q0 54 -38 90t-94 36t-93 -36t-37 -90q0 -55 37 -91.5t93 -36.5t94 36.5zM-82 784h56v70h-192v-70h58v-172h78v172zM112 612h82l-42 92q28 25 28 64q0 37 -27 61.5t-65 24.5h-100v-242h78v70h16zM206 612h76v242h-76v-242
zM456 650l10 -38h84l-82 242h-90l-82 -242h82l10 38h68zM564 612h164v66h-86v176h-78v-242zM1724 612h80v242h-78v-128l-74 128h-80v-242h78l-2 118zM1828 612h164v66h-86v176h-78v-242zM2114 612v96l82 146h-90l-32 -72l-30 72h-92l84 -146v-96h78zM1463 774q15 -16 15 -40
q0 -26 -15 -42t-39 -16q-23 0 -38.5 16.5t-15.5 41.5q0 24 15.5 40t38.5 16q24 0 39 -16zM86 788q6 0 11 -6t5 -14q0 -9 -5 -15.5t-11 -6.5h-20v42h20zM404 714l16 58h2l16 -58h-34zM820 714q74 -64 170 -64q47 0 91 17t79 47h-340zM702 352q25 -14 52 -14q22 0 37 12t15 34
q0 15 -12 25t-34 19q-18 6 -25 10.5t-7 15.5q0 10 8 16t20 6q10 0 21 -4t19 -10v26q-20 10 -40 10q-23 0 -37.5 -11.5t-14.5 -32.5q0 -19 10.5 -27.5t33.5 -18.5q18 -5 26 -10t8 -14q0 -12 -8 -18t-20 -6q-27 0 -52 18v-26zM903 361q23 -23 57 -23q33 0 56.5 23t23.5 57
q0 33 -23.5 56.5t-56.5 23.5q-34 0 -57 -23.5t-23 -56.5q0 -34 23 -57zM1198 336v158h-24v-108l-98 110h-12v-156h24v104l98 -108h12zM-166 494h-100v-154h24v58h66v22h-66v52h76v22zM-146 400q0 -27 17.5 -44.5t44.5 -17.5q28 0 46 17.5t18 44.5v94h-24v-94q0 -16 -12 -28
t-28 -12q-17 0 -27.5 11t-10.5 29v94h-24v-94zM34 494h-24v-154h94v22h-70v132zM150 494h-24v-154h96v22h-72v132zM366 340l64 154h-28l-44 -114l-44 114h-28l64 -154h16zM550 494h-100v-154h100v22h-76v46h66v20h-66v44h76v22zM662 340h28l-30 62q11 6 17.5 17.5t6.5 24.5
q0 21 -14.5 35.5t-35.5 14.5h-58v-154h24v56h36zM854 494h-24v-154h24v154zM998.5 376.5q-15.5 -16.5 -38.5 -16.5q-24 0 -40 16.5t-16 41.5q0 24 16 40t40 16q23 0 38.5 -16t15.5 -40q0 -25 -15.5 -41.5zM652.5 424q-7.5 -8 -18.5 -8h-34v56h34q11 0 18.5 -8t7.5 -20
t-7.5 -20zM2172 366l50 48l-50 48l-16 -14l26 -22h-916v-24h916l-26 -22zM694 107.5q34 -33.5 84 -33.5q51 0 84.5 33t33.5 83q0 48 -33.5 81t-84.5 33q-50 0 -84 -33t-34 -81q0 -49 34 -82.5zM1314 94q31 -20 76 -20q39 0 63.5 19.5t24.5 54.5q0 53 -72 70q-5 2 -13.5 4
t-11.5 4.5t-3 7.5q0 8 22 8q14 0 32.5 -6t31.5 -16v68q-35 16 -64 16q-41 0 -65.5 -18t-24.5 -50q0 -28 15 -43.5t49 -26.5q7 -2 16 -4.5t13.5 -5.5t4.5 -8q0 -12 -18 -12q-26 0 -76 32v-74zM1604 107.5q34 -33.5 82 -33.5q24 0 52 14l2 70q-20 -20 -50 -20q-21 0 -35.5 15
t-14.5 37q0 21 14.5 35.5t35.5 14.5t44 -14v66q-21 12 -46 12q-50 0 -84 -33t-34 -81q0 -49 34 -82.5zM1780.5 107.5q34.5 -33.5 85.5 -33.5q50 0 84 33.5t34 82.5q0 48 -34 81t-84 33q-51 0 -85.5 -33t-34.5 -81q0 -49 34.5 -82.5zM-264 236h72l-82 -156h190v62h-76l82 156
h-186v-62zM94 298h-158v-218h160v60h-90v20h76v60h-76v18h88v60zM104 236h52v-156h70v156h52v62h-174v-62zM336 114h62l8 -34h76l-74 218h-80l-74 -218h72zM652 298h-158v-218h70v68h74v58h-74v32h88v60zM1120 80v218h-70v-116l-66 116h-72v-218h70l-2 106l68 -106h72z
M1132 236h52v-156h70v156h50v62h-172v-62zM2068 298h-70v-218h70v86l28 -54h50l28 54v-86h68v218h-70l-52 -100zM812.5 152.5q-13.5 -14.5 -34.5 -14.5t-34.5 14.5t-13.5 37.5q0 21 13.5 35.5t34.5 14.5t34.5 -14.5t13.5 -35.5q0 -23 -13.5 -37.5zM1900 153q-14 -15 -34 -15
q-21 0 -35.5 15t-14.5 37q0 21 14.5 35.5t35.5 14.5q20 0 34 -14.5t14 -35.5q0 -22 -14 -37zM368 224l14 -52h-30l14 52h2zM1498 84q10 -10 26 -10q15 0 24.5 10t9.5 24t-9.5 23t-24.5 9q-16 0 -26 -9t-10 -23t10 -24z" />
    <glyph glyph-name="seven" unicode="7" horiz-adv-x="2379" 
d="M2244 924v-386h-2508v386h972q5 73 44 133.5t101.5 95.5t136.5 35t136.5 -35t101.5 -95.5t44 -133.5h972zM1160 1094q-76 66 -170 66q-48 0 -92 -17.5t-78 -48.5h340zM1186 742q58 71 58 162q0 96 -64 170l-332 -332h338zM792 1066q-58 -71 -58 -162q0 -48 17.5 -92
t48.5 -78l334 332h-342zM1518 642.5q38 36.5 38 91.5q0 54 -38 90t-94 36t-93 -36t-37 -90q0 -55 37 -91.5t93 -36.5t94 36.5zM-82 784h56v70h-192v-70h58v-172h78v172zM112 612h82l-42 92q28 25 28 64q0 37 -27 61.5t-65 24.5h-100v-242h78v70h16zM206 612h76v242h-76v-242
zM456 650l10 -38h84l-82 242h-90l-82 -242h82l10 38h68zM564 612h164v66h-86v176h-78v-242zM1724 612h80v242h-78v-128l-74 128h-80v-242h78l-2 118zM1828 612h164v66h-86v176h-78v-242zM2114 612v96l82 146h-90l-32 -72l-30 72h-92l84 -146v-96h78zM1463 774q15 -16 15 -40
q0 -26 -15 -42t-39 -16q-23 0 -38.5 16.5t-15.5 41.5q0 24 15.5 40t38.5 16q24 0 39 -16zM86 788q6 0 11 -6t5 -14q0 -9 -5 -15.5t-11 -6.5h-20v42h20zM404 714l16 58h2l16 -58h-34zM820 714q74 -64 170 -64q47 0 91 17t79 47h-340zM702 352q25 -14 52 -14q22 0 37 12t15 34
q0 15 -12 25t-34 19q-18 6 -25 10.5t-7 15.5q0 10 8 16t20 6q10 0 21 -4t19 -10v26q-20 10 -40 10q-23 0 -37.5 -11.5t-14.5 -32.5q0 -19 10.5 -27.5t33.5 -18.5q18 -5 26 -10t8 -14q0 -12 -8 -18t-20 -6q-27 0 -52 18v-26zM903 361q23 -23 57 -23q33 0 56.5 23t23.5 57
q0 33 -23.5 56.5t-56.5 23.5q-34 0 -57 -23.5t-23 -56.5q0 -34 23 -57zM1198 336v158h-24v-108l-98 110h-12v-156h24v104l98 -108h12zM-166 494h-100v-154h24v58h66v22h-66v52h76v22zM-146 400q0 -27 17.5 -44.5t44.5 -17.5q28 0 46 17.5t18 44.5v94h-24v-94q0 -16 -12 -28
t-28 -12q-17 0 -27.5 11t-10.5 29v94h-24v-94zM34 494h-24v-154h94v22h-70v132zM150 494h-24v-154h96v22h-72v132zM366 340l64 154h-28l-44 -114l-44 114h-28l64 -154h16zM550 494h-100v-154h100v22h-76v46h66v20h-66v44h76v22zM662 340h28l-30 62q11 6 17.5 17.5t6.5 24.5
q0 21 -14.5 35.5t-35.5 14.5h-58v-154h24v56h36zM854 494h-24v-154h24v154zM998.5 376.5q-15.5 -16.5 -38.5 -16.5q-24 0 -40 16.5t-16 41.5q0 24 16 40t40 16q23 0 38.5 -16t15.5 -40q0 -25 -15.5 -41.5zM652.5 424q-7.5 -8 -18.5 -8h-34v56h34q11 0 18.5 -8t7.5 -20
t-7.5 -20zM2172 366l50 48l-50 48l-16 -14l26 -22h-916v-24h916l-26 -22zM694 107.5q34 -33.5 84 -33.5q51 0 84.5 33t33.5 83q0 48 -33.5 81t-84.5 33q-50 0 -84 -33t-34 -81q0 -49 34 -82.5zM1314 94q31 -20 76 -20q39 0 63.5 19.5t24.5 54.5q0 53 -72 70q-5 2 -13.5 4
t-11.5 4.5t-3 7.5q0 8 22 8q14 0 32.5 -6t31.5 -16v68q-35 16 -64 16q-41 0 -65.5 -18t-24.5 -50q0 -28 15 -43.5t49 -26.5q7 -2 16 -4.5t13.5 -5.5t4.5 -8q0 -12 -18 -12q-26 0 -76 32v-74zM1604 107.5q34 -33.5 82 -33.5q24 0 52 14l2 70q-20 -20 -50 -20q-21 0 -35.5 15
t-14.5 37q0 21 14.5 35.5t35.5 14.5t44 -14v66q-21 12 -46 12q-50 0 -84 -33t-34 -81q0 -49 34 -82.5zM1780.5 107.5q34.5 -33.5 85.5 -33.5q50 0 84 33.5t34 82.5q0 48 -34 81t-84 33q-51 0 -85.5 -33t-34.5 -81q0 -49 34.5 -82.5zM-264 236h72l-82 -156h190v62h-76l82 156
h-186v-62zM94 298h-158v-218h160v60h-90v20h76v60h-76v18h88v60zM104 236h52v-156h70v156h52v62h-174v-62zM336 114h62l8 -34h76l-74 218h-80l-74 -218h72zM652 298h-158v-218h70v68h74v58h-74v32h88v60zM1120 80v218h-70v-116l-66 116h-72v-218h70l-2 106l68 -106h72z
M1132 236h52v-156h70v156h50v62h-172v-62zM2068 298h-70v-218h70v86l28 -54h50l28 54v-86h68v218h-70l-52 -100zM812.5 152.5q-13.5 -14.5 -34.5 -14.5t-34.5 14.5t-13.5 37.5q0 21 13.5 35.5t34.5 14.5t34.5 -14.5t13.5 -35.5q0 -23 -13.5 -37.5zM1900 153q-14 -15 -34 -15
q-21 0 -35.5 15t-14.5 37q0 21 14.5 35.5t35.5 14.5q20 0 34 -14.5t14 -35.5q0 -22 -14 -37zM368 224l14 -52h-30l14 52h2zM1498 84q10 -10 26 -10q15 0 24.5 10t9.5 24t-9.5 23t-24.5 9q-16 0 -26 -9t-10 -23t10 -24z" />
    <glyph glyph-name="eight" unicode="8" horiz-adv-x="2641" 
d="M2244 924v-386h-2508v386h972q5 73 44 133.5t101.5 95.5t136.5 35t136.5 -35t101.5 -95.5t44 -133.5h972zM1160 1094q-76 66 -170 66q-48 0 -92 -17.5t-78 -48.5h340zM1186 742q58 71 58 162q0 96 -64 170l-332 -332h338zM792 1066q-58 -71 -58 -162q0 -48 17.5 -92
t48.5 -78l334 332h-342zM1518 642.5q38 36.5 38 91.5q0 54 -38 90t-94 36t-93 -36t-37 -90q0 -55 37 -91.5t93 -36.5t94 36.5zM-82 784h56v70h-192v-70h58v-172h78v172zM112 612h82l-42 92q28 25 28 64q0 37 -27 61.5t-65 24.5h-100v-242h78v70h16zM206 612h76v242h-76v-242
zM456 650l10 -38h84l-82 242h-90l-82 -242h82l10 38h68zM564 612h164v66h-86v176h-78v-242zM1724 612h80v242h-78v-128l-74 128h-80v-242h78l-2 118zM1828 612h164v66h-86v176h-78v-242zM2114 612v96l82 146h-90l-32 -72l-30 72h-92l84 -146v-96h78zM1463 774q15 -16 15 -40
q0 -26 -15 -42t-39 -16q-23 0 -38.5 16.5t-15.5 41.5q0 24 15.5 40t38.5 16q24 0 39 -16zM86 788q6 0 11 -6t5 -14q0 -9 -5 -15.5t-11 -6.5h-20v42h20zM404 714l16 58h2l16 -58h-34zM820 714q74 -64 170 -64q47 0 91 17t79 47h-340zM702 352q25 -14 52 -14q22 0 37 12t15 34
q0 15 -12 25t-34 19q-18 6 -25 10.5t-7 15.5q0 10 8 16t20 6q10 0 21 -4t19 -10v26q-20 10 -40 10q-23 0 -37.5 -11.5t-14.5 -32.5q0 -19 10.5 -27.5t33.5 -18.5q18 -5 26 -10t8 -14q0 -12 -8 -18t-20 -6q-27 0 -52 18v-26zM903 361q23 -23 57 -23q33 0 56.5 23t23.5 57
q0 33 -23.5 56.5t-56.5 23.5q-34 0 -57 -23.5t-23 -56.5q0 -34 23 -57zM1198 336v158h-24v-108l-98 110h-12v-156h24v104l98 -108h12zM-166 494h-100v-154h24v58h66v22h-66v52h76v22zM-146 400q0 -27 17.5 -44.5t44.5 -17.5q28 0 46 17.5t18 44.5v94h-24v-94q0 -16 -12 -28
t-28 -12q-17 0 -27.5 11t-10.5 29v94h-24v-94zM34 494h-24v-154h94v22h-70v132zM150 494h-24v-154h96v22h-72v132zM366 340l64 154h-28l-44 -114l-44 114h-28l64 -154h16zM550 494h-100v-154h100v22h-76v46h66v20h-66v44h76v22zM662 340h28l-30 62q11 6 17.5 17.5t6.5 24.5
q0 21 -14.5 35.5t-35.5 14.5h-58v-154h24v56h36zM854 494h-24v-154h24v154zM998.5 376.5q-15.5 -16.5 -38.5 -16.5q-24 0 -40 16.5t-16 41.5q0 24 16 40t40 16q23 0 38.5 -16t15.5 -40q0 -25 -15.5 -41.5zM652.5 424q-7.5 -8 -18.5 -8h-34v56h34q11 0 18.5 -8t7.5 -20
t-7.5 -20zM2172 366l50 48l-50 48l-16 -14l26 -22h-916v-24h916l-26 -22zM694 107.5q34 -33.5 84 -33.5q51 0 84.5 33t33.5 83q0 48 -33.5 81t-84.5 33q-50 0 -84 -33t-34 -81q0 -49 34 -82.5zM1314 94q31 -20 76 -20q39 0 63.5 19.5t24.5 54.5q0 53 -72 70q-5 2 -13.5 4
t-11.5 4.5t-3 7.5q0 8 22 8q14 0 32.5 -6t31.5 -16v68q-35 16 -64 16q-41 0 -65.5 -18t-24.5 -50q0 -28 15 -43.5t49 -26.5q7 -2 16 -4.5t13.5 -5.5t4.5 -8q0 -12 -18 -12q-26 0 -76 32v-74zM1604 107.5q34 -33.5 82 -33.5q24 0 52 14l2 70q-20 -20 -50 -20q-21 0 -35.5 15
t-14.5 37q0 21 14.5 35.5t35.5 14.5t44 -14v66q-21 12 -46 12q-50 0 -84 -33t-34 -81q0 -49 34 -82.5zM1780.5 107.5q34.5 -33.5 85.5 -33.5q50 0 84 33.5t34 82.5q0 48 -34 81t-84 33q-51 0 -85.5 -33t-34.5 -81q0 -49 34.5 -82.5zM-264 236h72l-82 -156h190v62h-76l82 156
h-186v-62zM94 298h-158v-218h160v60h-90v20h76v60h-76v18h88v60zM104 236h52v-156h70v156h52v62h-174v-62zM336 114h62l8 -34h76l-74 218h-80l-74 -218h72zM652 298h-158v-218h70v68h74v58h-74v32h88v60zM1120 80v218h-70v-116l-66 116h-72v-218h70l-2 106l68 -106h72z
M1132 236h52v-156h70v156h50v62h-172v-62zM2068 298h-70v-218h70v86l28 -54h50l28 54v-86h68v218h-70l-52 -100zM812.5 152.5q-13.5 -14.5 -34.5 -14.5t-34.5 14.5t-13.5 37.5q0 21 13.5 35.5t34.5 14.5t34.5 -14.5t13.5 -35.5q0 -23 -13.5 -37.5zM1900 153q-14 -15 -34 -15
q-21 0 -35.5 15t-14.5 37q0 21 14.5 35.5t35.5 14.5q20 0 34 -14.5t14 -35.5q0 -22 -14 -37zM368 224l14 -52h-30l14 52h2zM1498 84q10 -10 26 -10q15 0 24.5 10t9.5 24t-9.5 23t-24.5 9q-16 0 -26 -9t-10 -23t10 -24z" />
    <glyph glyph-name="nine" unicode="9" horiz-adv-x="2705" 
d="M2244 924v-386h-2508v386h972q5 73 44 133.5t101.5 95.5t136.5 35t136.5 -35t101.5 -95.5t44 -133.5h972zM1160 1094q-76 66 -170 66q-48 0 -92 -17.5t-78 -48.5h340zM1186 742q58 71 58 162q0 96 -64 170l-332 -332h338zM792 1066q-58 -71 -58 -162q0 -48 17.5 -92
t48.5 -78l334 332h-342zM1518 642.5q38 36.5 38 91.5q0 54 -38 90t-94 36t-93 -36t-37 -90q0 -55 37 -91.5t93 -36.5t94 36.5zM-82 784h56v70h-192v-70h58v-172h78v172zM112 612h82l-42 92q28 25 28 64q0 37 -27 61.5t-65 24.5h-100v-242h78v70h16zM206 612h76v242h-76v-242
zM456 650l10 -38h84l-82 242h-90l-82 -242h82l10 38h68zM564 612h164v66h-86v176h-78v-242zM1724 612h80v242h-78v-128l-74 128h-80v-242h78l-2 118zM1828 612h164v66h-86v176h-78v-242zM2114 612v96l82 146h-90l-32 -72l-30 72h-92l84 -146v-96h78zM1463 774q15 -16 15 -40
q0 -26 -15 -42t-39 -16q-23 0 -38.5 16.5t-15.5 41.5q0 24 15.5 40t38.5 16q24 0 39 -16zM86 788q6 0 11 -6t5 -14q0 -9 -5 -15.5t-11 -6.5h-20v42h20zM404 714l16 58h2l16 -58h-34zM820 714q74 -64 170 -64q47 0 91 17t79 47h-340zM702 352q25 -14 52 -14q22 0 37 12t15 34
q0 15 -12 25t-34 19q-18 6 -25 10.5t-7 15.5q0 10 8 16t20 6q10 0 21 -4t19 -10v26q-20 10 -40 10q-23 0 -37.5 -11.5t-14.5 -32.5q0 -19 10.5 -27.5t33.5 -18.5q18 -5 26 -10t8 -14q0 -12 -8 -18t-20 -6q-27 0 -52 18v-26zM903 361q23 -23 57 -23q33 0 56.5 23t23.5 57
q0 33 -23.5 56.5t-56.5 23.5q-34 0 -57 -23.5t-23 -56.5q0 -34 23 -57zM1198 336v158h-24v-108l-98 110h-12v-156h24v104l98 -108h12zM-166 494h-100v-154h24v58h66v22h-66v52h76v22zM-146 400q0 -27 17.5 -44.5t44.5 -17.5q28 0 46 17.5t18 44.5v94h-24v-94q0 -16 -12 -28
t-28 -12q-17 0 -27.5 11t-10.5 29v94h-24v-94zM34 494h-24v-154h94v22h-70v132zM150 494h-24v-154h96v22h-72v132zM366 340l64 154h-28l-44 -114l-44 114h-28l64 -154h16zM550 494h-100v-154h100v22h-76v46h66v20h-66v44h76v22zM662 340h28l-30 62q11 6 17.5 17.5t6.5 24.5
q0 21 -14.5 35.5t-35.5 14.5h-58v-154h24v56h36zM854 494h-24v-154h24v154zM998.5 376.5q-15.5 -16.5 -38.5 -16.5q-24 0 -40 16.5t-16 41.5q0 24 16 40t40 16q23 0 38.5 -16t15.5 -40q0 -25 -15.5 -41.5zM652.5 424q-7.5 -8 -18.5 -8h-34v56h34q11 0 18.5 -8t7.5 -20
t-7.5 -20zM2172 366l50 48l-50 48l-16 -14l26 -22h-916v-24h916l-26 -22zM694 107.5q34 -33.5 84 -33.5q51 0 84.5 33t33.5 83q0 48 -33.5 81t-84.5 33q-50 0 -84 -33t-34 -81q0 -49 34 -82.5zM1314 94q31 -20 76 -20q39 0 63.5 19.5t24.5 54.5q0 53 -72 70q-5 2 -13.5 4
t-11.5 4.5t-3 7.5q0 8 22 8q14 0 32.5 -6t31.5 -16v68q-35 16 -64 16q-41 0 -65.5 -18t-24.5 -50q0 -28 15 -43.5t49 -26.5q7 -2 16 -4.5t13.5 -5.5t4.5 -8q0 -12 -18 -12q-26 0 -76 32v-74zM1604 107.5q34 -33.5 82 -33.5q24 0 52 14l2 70q-20 -20 -50 -20q-21 0 -35.5 15
t-14.5 37q0 21 14.5 35.5t35.5 14.5t44 -14v66q-21 12 -46 12q-50 0 -84 -33t-34 -81q0 -49 34 -82.5zM1780.5 107.5q34.5 -33.5 85.5 -33.5q50 0 84 33.5t34 82.5q0 48 -34 81t-84 33q-51 0 -85.5 -33t-34.5 -81q0 -49 34.5 -82.5zM-264 236h72l-82 -156h190v62h-76l82 156
h-186v-62zM94 298h-158v-218h160v60h-90v20h76v60h-76v18h88v60zM104 236h52v-156h70v156h52v62h-174v-62zM336 114h62l8 -34h76l-74 218h-80l-74 -218h72zM652 298h-158v-218h70v68h74v58h-74v32h88v60zM1120 80v218h-70v-116l-66 116h-72v-218h70l-2 106l68 -106h72z
M1132 236h52v-156h70v156h50v62h-172v-62zM2068 298h-70v-218h70v86l28 -54h50l28 54v-86h68v218h-70l-52 -100zM812.5 152.5q-13.5 -14.5 -34.5 -14.5t-34.5 14.5t-13.5 37.5q0 21 13.5 35.5t34.5 14.5t34.5 -14.5t13.5 -35.5q0 -23 -13.5 -37.5zM1900 153q-14 -15 -34 -15
q-21 0 -35.5 15t-14.5 37q0 21 14.5 35.5t35.5 14.5q20 0 34 -14.5t14 -35.5q0 -22 -14 -37zM368 224l14 -52h-30l14 52h2zM1498 84q10 -10 26 -10q15 0 24.5 10t9.5 24t-9.5 23t-24.5 9q-16 0 -26 -9t-10 -23t10 -24z" />
    <glyph glyph-name="colon" unicode=":" horiz-adv-x="427" 
d="M132 876q-32 31 -32 77t32 77t81 31t81.5 -31.5t32.5 -76.5q0 -46 -32.5 -77t-81.5 -31t-81 31zM132 4q-32 31 -32 77t32 77t81 31t81.5 -31.5t32.5 -76.5q0 -46 -32.5 -77t-81.5 -31t-81 31z" />
    <glyph glyph-name="semicolon" unicode=";" horiz-adv-x="438" 
d="M101 -193q112 95 112 168v6q-25 0 -48.5 15t-38 39.5t-14.5 51.5q0 51 32.5 80.5t80.5 29.5q50 0 81.5 -30t31.5 -98q0 -92 -41.5 -173t-123.5 -154zM140 874q-32 31 -32 77t32 77t81 31t81.5 -31.5t32.5 -76.5q0 -46 -32.5 -77t-81.5 -31t-81 31z" />
    <glyph glyph-name="less" unicode="&#x3c;" horiz-adv-x="1062" 
d="M962 390v-187l-862 406v127l862 404v-184l-632 -284z" />
    <glyph glyph-name="equal" unicode="=" horiz-adv-x="1154" 
d="M1054 803h-954v159h954v-159zM1054 391h-954v159h954v-159z" />
    <glyph glyph-name="greater" unicode="&#x3e;" horiz-adv-x="1062" 
d="M962 609l-862 -406v187l632 282l-632 284v184l862 -404v-127z" />
    <glyph glyph-name="question" unicode="?" horiz-adv-x="979" 
d="M395 446q0 111 56.5 203.5t154.5 172.5q57 46 92 80.5t56.5 74.5t21.5 86q0 104 -74 155.5t-199 51.5q-272 0 -272 -224h-161q0 116 51 202.5t149 133.5t237 47q128 0 225.5 -46t151.5 -130.5t54 -196.5q0 -75 -34.5 -138.5t-84 -112t-124.5 -106.5q-70 -55 -106 -117
t-36 -141v-43h-158v48zM400 12q-32 31 -32 77t32 77t82 31q48 0 80.5 -31.5t32.5 -76.5q0 -46 -32 -77t-81 -31q-50 0 -82 31z" />
    <glyph glyph-name="at" unicode="@" horiz-adv-x="1821" 
d="M1314.5 1209.5q186.5 -102.5 296.5 -282.5t110 -403q0 -128 -38.5 -224t-111 -148.5t-172.5 -52.5q-95 0 -155 52t-87 134q-47 -76 -122 -118.5t-167 -42.5q-96 0 -178.5 50t-132 137.5t-49.5 195.5t48.5 196t130 138t176.5 50q89 0 163 -40t122 -110l27 134h113v-480
q0 -76 38.5 -114.5t91.5 -38.5q151 0 151 272q0 183 -84.5 333t-234 236.5t-337.5 86.5q-184 0 -335 -88t-238 -238.5t-87 -330.5q0 -184 89 -334.5t240 -236.5t327 -86q106 0 189 22t189 73l61 -124q-115 -59 -215 -85.5t-227 -26.5q-211 0 -396.5 101t-297.5 282t-112 411
q0 214 105 398.5t290 294.5t415 110q218 0 404.5 -102.5zM1016 297.5q54 31.5 85.5 86t31.5 121.5t-32 122t-85.5 86.5t-116.5 31.5q-64 0 -117.5 -32t-84.5 -87t-31 -121q0 -67 31.5 -121.5t85 -86t116.5 -31.5t117 31.5z" />
    <glyph glyph-name="A" unicode="A" horiz-adv-x="1320" 
d="M1300 0h-171l-128 330h-682l-128 -330h-171l565 1406h150zM651 1184l-274 -705h565l-274 705l-8 25z" />
    <glyph glyph-name="B" unicode="B" horiz-adv-x="1296" 
d="M200 0v1405h550q120 0 209.5 -45.5t138 -128t48.5 -189.5q0 -65 -25.5 -125t-69.5 -105.5t-98 -67.5q74 -17 135 -67.5t96 -125.5t35 -161q0 -119 -56 -207.5t-149.5 -135.5t-204.5 -47h-609zM741 798q66 0 122 31.5t89 85.5t33 117q0 65 -29.5 118t-84.5 84t-127 31
h-384v-467h381zM799 141q73 0 131.5 34t91.5 94t33 135q0 71 -34.5 131t-97.5 95t-144 35h-419v-524h439z" />
    <glyph glyph-name="C" unicode="C" horiz-adv-x="1368" 
d="M458.5 73.5q-165.5 96.5 -262 263t-96.5 366.5t96.5 366.5t262 262.5t364.5 96q138 0 259 -46.5t217 -129.5l-94 -123q-79 66 -177 103.5t-205 37.5q-151 0 -278.5 -75t-202.5 -205.5t-75 -287.5t75 -286.5t202.5 -204.5t278.5 -75q107 0 201 37t183 109l92 -125
q-98 -84 -219 -132t-257 -48q-199 0 -364.5 96.5z" />
    <glyph glyph-name="D" unicode="D" horiz-adv-x="1506" 
d="M200 0v1405h481q199 0 365.5 -93.5t263 -254.5t96.5 -356q0 -194 -96.5 -354.5t-262 -253.5t-363.5 -93h-484zM688 156q153 0 279 72t199 197t73 276q0 152 -73.5 277.5t-200.5 197.5t-281 72h-320v-1092h324z" />
    <glyph glyph-name="E" unicode="E" horiz-adv-x="1295" 
d="M1195 0h-995v1405h981v-155h-817v-455h666v-152h-666v-488h831v-155z" />
    <glyph glyph-name="F" unicode="F" horiz-adv-x="1193" 
d="M364 0h-164v1405h935v-150h-771v-520h615v-145h-615v-590z" />
    <glyph glyph-name="G" unicode="G" horiz-adv-x="1413" 
d="M1139 633h156v-498q-97 -75 -221 -117t-251 -42q-199 0 -364.5 97.5t-262 264.5t-96.5 366t96.5 365.5t262 263.5t364.5 97q133 0 255 -46.5t216 -129.5l-98 -125q-76 66 -172.5 104.5t-200.5 38.5q-150 0 -278 -75.5t-203.5 -206t-75.5 -286.5q0 -157 75.5 -288.5
t203.5 -208t278 -76.5q79 0 162.5 22.5t153.5 62.5v417z" />
    <glyph glyph-name="H" unicode="H" horiz-adv-x="1561" 
d="M364 0h-164v1405h164v-607h832v607h165v-1405h-165v640h-832v-640z" />
    <glyph glyph-name="I" unicode="I" horiz-adv-x="564" 
d="M364 0h-164v1405h164v-1405z" />
    <glyph glyph-name="J" unicode="J" horiz-adv-x="856" 
d="M167 10.5q-80 36.5 -147 99.5l94 117q48 -44 102.5 -68.5t103.5 -24.5q98 0 155 60.5t57 170.5v1040h164v-1050q0 -116 -45.5 -202t-130.5 -132.5t-200 -46.5q-73 0 -153 36.5z" />
    <glyph glyph-name="K" unicode="K" horiz-adv-x="1399" 
d="M1372 0h-199l-542 703l-267 -297v-406h-164v1405h164v-774l695 774h204l-523 -582z" />
    <glyph glyph-name="L" unicode="L" horiz-adv-x="1134" 
d="M1095 0h-895v1405h164v-1247h731v-158z" />
    <glyph glyph-name="M" unicode="M" horiz-adv-x="1774" 
d="M265 0h-166l160 1405h189l440 -1170l439 1170h188l160 -1405h-166l-119 1144l-432 -1144h-140l-431 1144z" />
    <glyph glyph-name="N" unicode="N" horiz-adv-x="1579" 
d="M364 0h-164v1405h169l846 -1138v1138h164v-1405h-162l-853 1147v-1147z" />
    <glyph glyph-name="O" unicode="O" horiz-adv-x="1646" 
d="M458.5 73.5q-165.5 96.5 -262 263t-96.5 366.5t96.5 366.5t262 262.5t364.5 96t365 -96t262 -262.5t96 -366.5t-96 -366.5t-262 -263t-365 -96.5t-364.5 96.5zM1102 211q128 75 203 204.5t75 286.5t-75 287.5t-203 205.5t-279 75t-278.5 -75t-202.5 -205.5t-75 -287.5
t75 -286.5t202.5 -204.5t278.5 -75t279 75z" />
    <glyph glyph-name="P" unicode="P" horiz-adv-x="1232" 
d="M200 0v1405h500q143 0 250.5 -56t165.5 -158t58 -235q0 -138 -57 -241.5t-164 -160t-252 -56.5h-337v-498h-164zM689 649q96 0 168.5 37.5t112 106.5t39.5 161q0 91 -39.5 158.5t-112 104.5t-168.5 37h-325v-605h325z" />
    <glyph glyph-name="Q" unicode="Q" horiz-adv-x="1646" 
d="M1462 358.5q-84 -158.5 -231 -258.5t-328 -119v-282h-164v283q-180 20 -326 120t-229.5 258t-83.5 343q0 200 96.5 366.5t262 262.5t364.5 96t365 -96t262 -262.5t96 -366.5q0 -186 -84 -344.5zM1102 211q128 75 203 204.5t75 286.5t-75 287.5t-203 205.5t-279 75
t-278.5 -75t-202.5 -205.5t-75 -287.5t75 -286.5t202.5 -204.5t278.5 -75t279 75z" />
    <glyph glyph-name="R" unicode="R" horiz-adv-x="1303" 
d="M1220 0h-185l-232 507q-46 -6 -96 -6h-343v-501h-164v1405h547q141 0 247 -56t164 -158.5t58 -237.5q0 -147 -67.5 -249.5t-187.5 -154.5zM364 648h369q95 0 166.5 37.5t110.5 106.5t39 160q0 93 -39 161t-110.5 104.5t-166.5 36.5h-369v-606z" />
    <glyph glyph-name="S" unicode="S" horiz-adv-x="1162" 
d="M283.5 45q-146.5 64 -242.5 183l108 104q79 -95 198 -146t245 -51q95 0 171 29t119.5 85.5t43.5 137.5q0 79 -47.5 128t-124 78.5t-212.5 65.5q-132 34 -223.5 74t-154.5 116.5t-63 197.5q0 110 60.5 195.5t169.5 133.5t251 48q134 0 258 -46.5t215 -131.5l-98 -113
q-70 64 -168.5 101.5t-199.5 37.5q-89 0 -163 -27.5t-117.5 -80t-43.5 -122.5q0 -73 45 -118t113 -70.5t195 -59.5q153 -44 250.5 -88t160.5 -120.5t63 -195.5q0 -128 -66 -220.5t-179.5 -140.5t-254.5 -48q-162 0 -308.5 64z" />
    <glyph glyph-name="T" unicode="T" horiz-adv-x="1166" 
d="M664 0h-164v1250h-454v155h1074v-155h-456v-1250z" />
    <glyph glyph-name="U" unicode="U" horiz-adv-x="1472" 
d="M425.5 54.5q-130.5 81.5 -198 224t-67.5 323.5v804h164v-795q0 -141 47.5 -250t140.5 -171t225 -62q131 0 223.5 61.5t140 171t47.5 250.5v795h164v-804q0 -181 -67.5 -323.5t-197.5 -224t-310 -81.5q-181 0 -311.5 81.5z" />
    <glyph glyph-name="V" unicode="V" horiz-adv-x="1311" 
d="M728 0h-145l-563 1405h176l459 -1179l2 1l458 1178h176z" />
    <glyph glyph-name="W" unicode="W" horiz-adv-x="1969" 
d="M734 0h-148l-566 1405h177l465 -1179l444 1179h175l-210 -554l244 -624l457 1178h177l-563 -1405h-146l-253 638z" />
    <glyph glyph-name="X" unicode="X" horiz-adv-x="1288" 
d="M217 0h-196l518 726l-480 679h197l385 -553l385 553h198l-477 -679l514 -726h-197l-423 605z" />
    <glyph glyph-name="Y" unicode="Y" horiz-adv-x="1170" 
d="M667 0h-164v596l-483 809h191l375 -653l372 653h192l-483 -808v-597z" />
    <glyph glyph-name="Z" unicode="Z" horiz-adv-x="1276" 
d="M1176 0h-1076v126l857 1129h-842v150h1059v-119l-860 -1136h862v-150z" />
    <glyph glyph-name="bracketleft" unicode="[" horiz-adv-x="652" 
d="M633 -383h-433v1880h433v-132h-273v-1617h273v-131z" />
    <glyph glyph-name="backslash" unicode="\" horiz-adv-x="894" 
d="M185 1517l737 -1789h-174l-736 1789h173z" />
    <glyph glyph-name="bracketright" unicode="]" horiz-adv-x="653" 
d="M452 1497v-1880h-432v131h272v1617h-272v132h432z" />
    <glyph glyph-name="asciicircum" unicode="^" horiz-adv-x="928" 
d="M465 1282l-218 -444l-147 13l336 626h57l335 -626l-146 -13z" />
    <glyph glyph-name="underscore" unicode="_" horiz-adv-x="995" 
d="M1000 -265h-1005v85h1005v-85z" />
    <glyph glyph-name="grave" unicode="`" horiz-adv-x="526" 
d="M426 1219h-135l-191 261h190z" />
    <glyph glyph-name="a" unicode="a" horiz-adv-x="1252" 
d="M931 1036h156v-1036h-152v167q-60 -89 -150 -140t-204 -51q-139 0 -250 71.5t-174 195.5t-63 274t63 273.5t174.5 195.5t249.5 72q114 0 202 -49t148 -135v162zM773.5 176.5q79.5 50.5 124 139.5t44.5 200t-44.5 200.5t-124 140.5t-181.5 51q-101 0 -179 -51t-121 -140.5
t-43 -200.5q0 -112 42.5 -200.5t120 -139t179.5 -50.5q103 0 182.5 50.5z" />
    <glyph glyph-name="b" unicode="b" horiz-adv-x="1252" 
d="M920.5 986q111.5 -72 174.5 -195.5t63 -273.5t-63 -274t-174 -195.5t-250 -71.5q-114 0 -204 51.5t-150 140.5v-168h-152v1496h157v-622q60 86 148 135t201 49q138 0 249.5 -72zM840.5 176.5q77.5 50.5 120.5 139.5t43 200t-43 200.5t-121 140.5t-180 51t-181.5 -51
t-124 -140.5t-44.5 -200.5t44.5 -200t124 -139.5t182.5 -50.5q102 0 179.5 50.5z" />
    <glyph glyph-name="c" unicode="c" horiz-adv-x="1056" 
d="M360.5 45.5q-123.5 72.5 -195 197t-71.5 272.5q0 149 71.5 273.5t195 197t271.5 72.5q113 0 209.5 -39.5t171.5 -112.5l-82 -111q-130 119 -292 119q-105 0 -195 -52.5t-143 -144t-53 -202.5t53 -201.5t143 -143t195 -52.5q163 0 294 116l81 -110q-75 -70 -172.5 -110.5
t-208.5 -40.5q-149 0 -272.5 72.5z" />
    <glyph glyph-name="d" unicode="d" horiz-adv-x="1252" 
d="M930 1496h157v-1496h-152v167q-60 -89 -150 -140t-204 -51q-139 0 -250 71.5t-174 195.5t-63 274t63 273.5t174.5 195.5t249.5 72q113 0 201 -48.5t148 -134.5v621zM773.5 176.5q79.5 50.5 124 139.5t44.5 200t-44.5 200.5t-124 140.5t-181.5 51q-101 0 -179 -51
t-121 -140.5t-43 -200.5q0 -112 42.5 -200.5t120 -139t179.5 -50.5q103 0 182.5 50.5z" />
    <glyph glyph-name="e" unicode="e" horiz-adv-x="1141" 
d="M248 461q12 -101 62 -178t127.5 -120t170.5 -43q88 0 163.5 31.5t132.5 87.5l82 -114q-76 -72 -173.5 -111.5t-212.5 -39.5q-141 0 -257 72t-182.5 196t-66.5 272q0 150 62 274.5t171 197t245 72.5q142 0 250 -69.5t166.5 -192.5t58.5 -278q0 -29 -4 -57h-795z
M425.5 873.5q-68.5 -38.5 -114 -109t-60.5 -162.5h638q-14 94 -56.5 164t-108 108t-147.5 38q-83 0 -151.5 -38.5z" />
    <glyph glyph-name="f" unicode="f" horiz-adv-x="604" 
d="M187 0v892h-154v144h154v144q0 168 88 252t257 84l69 -1v-144q-24 1 -65 1q-194 0 -194 -210v-126h250v-144h-250v-892h-155z" />
    <glyph glyph-name="g" unicode="g" horiz-adv-x="1252" 
d="M935 1036h152v-888q0 -141 -53.5 -260.5t-170 -193t-293.5 -73.5q-111 0 -220 26.5t-184 67.5l59 130q71 -37 157.5 -57.5t175.5 -20.5q137 0 221 58t119 146t35 186v52q-60 -82 -149 -128.5t-203 -46.5q-139 0 -250 67t-174 184.5t-63 260.5q0 137 63 255t174.5 188
t249.5 70q114 0 203.5 -50.5t150.5 -137.5v165zM774 230q80 46 124 127t44 182q0 103 -44.5 187.5t-124.5 133.5t-182 49q-101 0 -179 -48.5t-120.5 -131.5t-42.5 -182q0 -105 42.5 -187.5t120.5 -129t180 -46.5t182 46z" />
    <glyph glyph-name="h" unicode="h" horiz-adv-x="1198" 
d="M884.5 1007q91.5 -52 140.5 -151t49 -238v-618h-157v593q0 153 -73.5 235t-211.5 82q-87 0 -158 -41.5t-112.5 -115.5t-41.5 -166v-587h-155v1496h155v-591q57 70 149.5 112t195.5 42q128 0 219.5 -52z" />
    <glyph glyph-name="i" unicode="i" horiz-adv-x="485" 
d="M164 1304q-31 31 -31 73t31 74t77 32q47 0 78.5 -32t31.5 -74t-31.5 -73t-78.5 -31q-46 0 -77 31zM320 0h-155v1036h155v-1036z" />
    <glyph glyph-name="j" unicode="j" horiz-adv-x="483" 
d="M164 1304q-31 31 -31 73t31 74t77 32q47 0 78.5 -32t31.5 -74t-31.5 -73t-78.5 -31q-46 0 -77 31zM-34 -369v140h18q90 0 134.5 53t44.5 164v1048h155v-1044q0 -171 -80 -266t-237 -95h-35z" />
    <glyph glyph-name="k" unicode="k" horiz-adv-x="1107" 
d="M1097 0h-187l-395 506l-194 -197v-309h-156v1496h156v-993l516 533h202l-418 -423z" />
    <glyph glyph-name="l" unicode="l" horiz-adv-x="485" 
d="M320 0h-155v1496h155v-1496z" />
    <glyph glyph-name="m" unicode="m" horiz-adv-x="1796" 
d="M1489.5 1007.5q87.5 -51.5 135 -146t47.5 -220.5v-641h-155v624q0 89 -31 153.5t-87.5 99t-130.5 34.5q-76 0 -138.5 -42t-98 -113.5t-35.5 -157.5v-598h-155v624q0 89 -31 153.5t-87.5 99t-130.5 34.5q-76 0 -138.5 -42t-98 -113.5t-35.5 -157.5v-598h-155v1036h148
v-114q56 66 135.5 101.5t160.5 35.5q117 0 204 -51t135 -144q52 92 145.5 143.5t191.5 51.5q117 0 204.5 -51.5z" />
    <glyph glyph-name="n" unicode="n" horiz-adv-x="1198" 
d="M884.5 1007q91.5 -52 140.5 -151t49 -238v-618h-157v593q0 153 -73.5 235t-211.5 82q-87 0 -158 -41.5t-112.5 -115.5t-41.5 -166v-587h-155v1036h148v-140q56 73 151 118t201 45q128 0 219.5 -52z" />
    <glyph glyph-name="o" unicode="o" horiz-adv-x="1245" 
d="M356 45q-121 72 -191.5 196t-70.5 273q0 150 70.5 274.5t192 197t266.5 72.5t266.5 -72.5t192 -197t70.5 -274.5q0 -149 -71 -273t-192.5 -196t-266.5 -72t-266 72zM811.5 173q85.5 52 135.5 142t50 200q0 109 -50 199.5t-135.5 143t-187.5 52.5q-103 0 -189 -52
t-136 -142.5t-50 -200.5t50 -200t136 -142t189 -52q102 0 187.5 52z" />
    <glyph glyph-name="p" unicode="p" horiz-adv-x="1252" 
d="M920.5 986q111.5 -72 174.5 -195.5t63 -273.5t-63 -274t-174 -195.5t-250 -71.5q-113 0 -202 50t-149 138v-519h-155v1391h153v-168q60 89 149 139.5t204 50.5q138 0 249.5 -72zM840.5 176.5q77.5 50.5 120.5 139.5t43 200t-43 200.5t-121 140.5t-180 51t-181.5 -51
t-124 -140.5t-44.5 -200.5t44.5 -200t124 -139.5t182.5 -50.5q102 0 179.5 50.5z" />
    <glyph glyph-name="q" unicode="q" horiz-adv-x="1252" 
d="M934 1036h153v-1391h-155v518q-60 -88 -149 -137.5t-202 -49.5q-139 0 -250 71.5t-174 195.5t-63 274t63 273.5t174.5 195.5t249.5 72q115 0 204 -50t149 -139v167zM773.5 176.5q79.5 50.5 124 139.5t44.5 200t-44.5 200.5t-124 140.5t-181.5 51q-101 0 -179 -51
t-121 -140.5t-43 -200.5q0 -112 42.5 -200.5t120 -139t179.5 -50.5q103 0 182.5 50.5z" />
    <glyph glyph-name="r" unicode="r" horiz-adv-x="805" 
d="M831 981l-69 -126q-42 29 -88 43.5t-89 13.5q-66 -1 -125 -44t-97 -120t-43 -174v-574h-155v1036h148v-154q44 81 120 128.5t169 47.5q115 0 229 -77z" />
    <glyph glyph-name="s" unicode="s" horiz-adv-x="944" 
d="M244 17q-116 44 -200 115l91 117q70 -55 164.5 -92t192.5 -37q108 0 173.5 42.5t65.5 117.5q0 48 -31 82.5t-93 59.5t-163 49q-345 81 -345 306q0 78 45.5 142t132.5 101.5t207 37.5q102 0 207.5 -34t177.5 -98l-90 -114q-57 43 -137.5 70.5t-160.5 27.5
q-106 0 -161.5 -35.5t-55.5 -97.5q0 -42 23 -71.5t78.5 -54t153.5 -49.5q114 -29 195 -66.5t131 -99t50 -151.5t-51 -161t-142.5 -111t-207.5 -40q-134 0 -250 44z" />
    <glyph glyph-name="t" unicode="t" horiz-adv-x="614" 
d="M349 0h-157v892h-176v144h175v257l158 33v-290h262v-144h-262v-892z" />
    <glyph glyph-name="u" unicode="u" horiz-adv-x="1198" 
d="M878 1036h155v-1036h-148v140q-56 -73 -151 -118t-201 -45q-128 0 -219.5 52t-140.5 151t-49 238v618h157v-593q0 -153 73.5 -235t211.5 -82q87 0 158 41.5t112.5 115.5t41.5 166v587z" />
    <glyph glyph-name="v" unicode="v" horiz-adv-x="1053" 
d="M603 0h-154l-427 1036h170l335 -858l333 858h171z" />
    <glyph glyph-name="w" unicode="w" horiz-adv-x="1612" 
d="M1084 178l337 858h169l-418 -1036h-147l-217 540l-214 -540h-154l-418 1036h167l328 -858l321 858h166l-130 -327z" />
    <glyph glyph-name="x" unicode="x" horiz-adv-x="1033" 
d="M217 0h-182l388 535l-371 501h186l278 -398l279 398h185l-369 -507l388 -529h-185l-298 424z" />
    <glyph glyph-name="y" unicode="y" horiz-adv-x="1054" 
d="M465 -355h-167l149 355l-425 1036h170l333 -852l335 852h172z" />
    <glyph glyph-name="z" unicode="z" horiz-adv-x="965" 
d="M907 0h-830v109l610 787h-592v140h797v-106l-611 -790h626v-140z" />
    <glyph glyph-name="braceleft" unicode="{" horiz-adv-x="604" 
d="M584 -380q-152 0 -234 38t-112 105.5t-30 171.5v297q0 242 -188 291v109q98 27 143 100t45 199v294q0 102 30 169t112 105t233 38v-131q-90 -3 -135.5 -20.5t-62.5 -58.5t-17 -120v-314q0 -119 -45 -196.5t-131 -119.5q88 -44 132 -121.5t44 -193.5v-299q0 -86 17 -129
t62 -61t137 -21v-132z" />
    <glyph glyph-name="bar" unicode="|" horiz-adv-x="551" 
d="M351 -367h-151v1934h151v-1934z" />
    <glyph glyph-name="braceright" unicode="}" horiz-adv-x="604" 
d="M20 -248q92 3 137 21t62 61t17 129v299q0 116 44 193.5t132 121.5q-86 42 -131 119.5t-45 196.5v314q0 79 -17 120t-62.5 58.5t-135.5 20.5v131q151 0 233 -38t112 -105t30 -169v-294q0 -126 45 -199t143 -100v-109q-188 -49 -188 -291v-297q0 -104 -30 -171.5
t-112 -105.5t-234 -38v132z" />
    <glyph glyph-name="asciitilde" unicode="~" horiz-adv-x="1193" 
d="M710.5 516.5q-52.5 15.5 -131.5 46.5q-68 28 -115 42t-95 14q-66 0 -125.5 -24t-107.5 -69l-36 141q54 49 123.5 79.5t142.5 30.5q61 0 116 -16t131 -47q68 -28 113.5 -41.5t92.5 -13.5q71 0 128.5 23.5t109.5 68.5q26 -94 36 -139q-51 -49 -122.5 -80t-149.5 -31
q-58 0 -110.5 15.5z" />
    <glyph glyph-name="uni00A0" unicode="&#xa0;" horiz-adv-x="373" 
 />
    <glyph glyph-name="exclamdown" unicode="&#xa1;" horiz-adv-x="627" 
d="M394.5 1030q32.5 -29 32.5 -73q0 -43 -32.5 -72.5t-81.5 -29.5t-81 29.5t-32 72.5t32 72.5t81 29.5t81.5 -29zM232 -283l6 951h154l5 -951h-165z" />
    <glyph glyph-name="cent" unicode="&#xa2;" horiz-adv-x="1056" 
d="M1014 124q-63 -60 -143 -98t-171 -49v-224h-156v227q-129 21 -231.5 96.5t-160.5 190t-58 248.5t58.5 249t161 190.5t230.5 96.5v229h156v-226q92 -10 171 -48.5t142 -99.5l-82 -111q-130 119 -292 119q-105 0 -195 -52.5t-143 -144t-53 -202.5t53 -201.5t143 -143
t195 -52.5q163 0 294 116z" />
    <glyph glyph-name="sterling" unicode="&#xa3;" horiz-adv-x="1143" 
d="M389 150h715v-150h-872v554h-186v136h186v270q0 141 59 248.5t165.5 167t242.5 59.5q125 0 219.5 -43t164.5 -128l-91 -94q-57 54 -125 84t-152 30q-95 0 -169 -41.5t-115.5 -117t-41.5 -175.5v-260h444v-136h-444v-404z" />
    <glyph glyph-name="currency" unicode="&#xa4;" horiz-adv-x="919" 
d="M355.5 374q-51.5 16 -91.5 48l-84 -83l-80 79l81 81q-67 85 -67 200q0 110 67 196l-81 82l80 79l85 -85q40 32 90 49t104 17q109 0 195 -65l84 84l81 -79l-81 -80q34 -44 51.5 -94t17.5 -101q0 -117 -69 -205l81 -79l-81 -79l-83 82q-42 -31 -92 -47t-102 -16
q-54 0 -105.5 16zM579 493.5q54 31.5 85.5 85.5t31.5 118q0 63 -31.5 117.5t-85.5 86.5t-118 32t-118.5 -32t-86 -86t-31.5 -118t32 -118t86 -85.5t118 -31.5t118 31.5z" />
    <glyph glyph-name="yen" unicode="&#xa5;" horiz-adv-x="1170" 
d="M958 1405h192l-439 -734h255v-97h-299v-133h299v-97h-299v-344h-164v344h-304v97h304v133h-304v97h259l-438 734h191l375 -653z" />
    <glyph glyph-name="brokenbar" unicode="&#xa6;" horiz-adv-x="509" 
d="M333 711h-150v838h150v-838zM333 -345h-150v825h150v-825z" />
    <glyph glyph-name="section" unicode="&#xa7;" horiz-adv-x="952" 
d="M243.5 -207q-101.5 39 -175.5 106l96 110q53 -49 129.5 -79t155.5 -30q100 0 167.5 41.5t67.5 115.5q0 52 -34.5 85t-86.5 53t-146 46q-107 30 -186.5 66.5t-134.5 100t-55 157.5q0 103 60.5 174.5t160.5 103.5q-86 40 -133.5 93.5t-47.5 140.5q0 86 47.5 154.5t135 108
t203.5 39.5q109 0 211 -38t177 -107l-96 -110q-54 49 -130.5 79t-153.5 30q-100 0 -167 -41.5t-67 -115.5q0 -52 34 -84.5t84.5 -52t147.5 -46.5q119 -34 198 -71t128 -98.5t49 -155.5q0 -104 -60.5 -175t-160.5 -102q85 -39 133 -93t48 -142q0 -86 -47.5 -154.5t-135 -108
t-203.5 -39.5q-111 0 -212.5 39zM605 409q53 21 84 61t31 95q0 61 -44.5 101.5t-109.5 59t-129 18.5q-65 0 -118 -20.5t-84.5 -60t-31.5 -94.5q0 -58 42 -99t107.5 -61.5t134.5 -20.5q65 0 118 21z" />
    <glyph glyph-name="dieresis" unicode="&#xa8;" horiz-adv-x="777" 
d="M129 1244q-29 29 -29 73q0 43 29 71t74 28q44 0 73.5 -28t29.5 -71q0 -44 -29.5 -73t-73.5 -29q-45 0 -74 29zM501 1244q-29 29 -29 73q0 43 29 71t73 28q45 0 74 -28t29 -71q0 -44 -29 -73t-74 -29q-44 0 -73 29z" />
    <glyph glyph-name="copyright" unicode="&#xa9;" horiz-adv-x="1686" 
d="M1192.5 1334.5q166.5 -96.5 263.5 -263.5t97 -367q0 -199 -97 -365.5t-263.5 -263t-365.5 -96.5t-366 96.5t-264 263t-97 365.5q0 200 97 367t264 263.5t366 96.5t365.5 -96.5zM499 1268q-149 -87 -236 -236t-87 -327t87 -327t236 -236t328 -87t328.5 87t236 236
t86.5 327t-86.5 327t-236 236t-328.5 87t-328 -87zM627 330.5q-99 58.5 -156.5 158.5t-57.5 218q0 119 58 219t156.5 158t215.5 58q93 0 170 -32t133 -90l-78 -109q-41 42 -95.5 65t-120.5 23q-77 0 -142.5 -38.5t-104.5 -105.5t-39 -148t39 -147.5t104.5 -105t141.5 -38.5
q130 0 217 87l78 -108q-55 -58 -133 -90.5t-168 -32.5q-119 0 -218 58.5z" />
    <glyph glyph-name="ordfeminine" unicode="&#xaa;" horiz-adv-x="1249" 
d="M931 1036h156v-1036h-152v167q-60 -89 -150 -140t-204 -51q-139 0 -250 71.5t-174 195.5t-63 274t63 273.5t174.5 195.5t249.5 72q114 0 202 -49t148 -135v162zM773.5 176.5q79.5 50.5 124 139.5t44.5 200t-44.5 200.5t-124 140.5t-181.5 51q-101 0 -179 -51t-121 -140.5
t-43 -200.5q0 -112 42.5 -200.5t120 -139t179.5 -50.5q103 0 182.5 50.5z" />
    <glyph glyph-name="guillemotleft" unicode="&#xab;" horiz-adv-x="997" 
d="M534 137l-126 -116l-386 440l386 441l127 -114l-299 -327zM974 137l-126 -116l-386 440l386 441l127 -114l-299 -327z" />
    <glyph glyph-name="logicalnot" unicode="&#xac;" horiz-adv-x="1114" 
d="M1014 265h-150v318h-764v127h914v-445z" />
    <glyph glyph-name="uni00AD" unicode="&#xad;" horiz-adv-x="828" 
d="M728 455h-628v146h628v-146z" />
    <glyph glyph-name="registered" unicode="&#xae;" horiz-adv-x="818" 
d="M564 1487.5q71 -41.5 112.5 -112.5t41.5 -155q0 -82 -41.5 -152.5t-112.5 -112.5t-154 -42q-84 0 -155 42t-113 112.5t-42 152.5q0 84 42 155t113 112.5t155 41.5q83 0 154 -41.5zM545 984.5q62 36.5 98.5 99t36.5 136.5q0 75 -36.5 138t-98.5 100t-134 37
q-74 0 -136.5 -37t-99 -100t-36.5 -138q0 -74 36.5 -136.5t99 -99t136.5 -36.5q72 0 134 36.5zM523 1214q-19 -25 -50 -38l81 -124h-69l-71 114h-1h-61v-114h-60v336h138q49 0 80.5 -31.5t31.5 -79.5q0 -38 -19 -63zM352 1331v-114h70q26 0 42.5 17t16.5 41t-16.5 40
t-40.5 16h-72z" />
    <glyph glyph-name="macron" unicode="&#xaf;" horiz-adv-x="646" 
d="M546 1221h-446v121h446v-121z" />
    <glyph glyph-name="degree" unicode="&#xb0;" horiz-adv-x="818" 
d="M255.5 897q-71.5 42 -113.5 112.5t-42 153.5q0 84 42 154.5t113 112t156 41.5q83 0 153.5 -41.5t112 -112t41.5 -154.5q0 -83 -41.5 -153.5t-112 -112.5t-153.5 -42q-84 0 -155.5 42zM505.5 998q43.5 26 69.5 69.5t26 95.5t-26 96.5t-69.5 70t-94.5 25.5q-53 0 -97 -25.5
t-69.5 -69.5t-25.5 -97q0 -52 25.5 -95.5t69.5 -69.5t97 -26q51 0 94.5 26z" />
    <glyph glyph-name="plusminus" unicode="&#xb1;" horiz-adv-x="1102" 
d="M612 223h-132v388h-380v128h380v383h132v-383h382v-128h-382v-388zM1002 35h-902v144h902v-144z" />
    <glyph glyph-name="acute" unicode="&#xb4;" horiz-adv-x="526" 
d="M426 1480l-191 -261h-135l136 261h190z" />
    <glyph glyph-name="uni00B5" unicode="&#xb5;" horiz-adv-x="1198" 
d="M878 1036h155v-1036h-148v140q-56 -73 -151 -118t-201 -45q-135 0 -230 58v-416h-156v627q-23 78 -23 172v618h157v-469h22v-270q29 -84 95.5 -127.5t167.5 -43.5q87 0 158 41.5t112.5 115.5t41.5 166v587z" />
    <glyph glyph-name="paragraph" unicode="&#xb6;" horiz-adv-x="1261" 
d="M1215 1239h-160v-1409h-150v1409h-194v-1409h-145v827h-174q-95 0 -171 42.5t-119.5 122.5t-43.5 190q0 109 47 189t129.5 122.5t186.5 42.5h794v-127z" />
    <glyph glyph-name="periodcentered" unicode="&#xb7;" horiz-adv-x="427" 
d="M132 459q-32 31 -32 77t32 77t81 31t81.5 -31.5t32.5 -76.5q0 -46 -32.5 -77t-81.5 -31t-81 31z" />
    <glyph glyph-name="cedilla" unicode="&#xb8;" horiz-adv-x="460" 
d="M283 8q30 -44 53.5 -96t23.5 -93q0 -67 -51 -110t-185 -59l-24 96q57 6 85 18.5t36 28t8 39.5q0 32 -17 74.5t-50 101.5h121z" />
    <glyph glyph-name="ordmasculine" unicode="&#xba;" horiz-adv-x="1245" 
d="M356 45q-121 72 -191.5 196t-70.5 273q0 150 70.5 274.5t192 197t266.5 72.5t266.5 -72.5t192 -197t70.5 -274.5q0 -149 -71 -273t-192.5 -196t-266.5 -72t-266 72zM811.5 173q85.5 52 135.5 142t50 200q0 109 -50 199.5t-135.5 143t-187.5 52.5q-103 0 -189 -52
t-136 -142.5t-50 -200.5t50 -200t136 -142t189 -52q102 0 187.5 52z" />
    <glyph glyph-name="guillemotright" unicode="&#xbb;" horiz-adv-x="1074" 
d="M612 461l-386 -440l-125 116l297 324l-298 327l126 114zM1052 461l-386 -440l-125 116l297 324l-298 327l126 114z" />
    <glyph glyph-name="questiondown" unicode="&#xbf;" horiz-adv-x="988" 
d="M638 1031.5q32 -29.5 32 -72.5t-32 -72.5t-82 -29.5q-48 0 -80.5 29.5t-32.5 72.5q0 44 32 73t81 29q50 0 82 -29.5zM643 621q0 -105 -56.5 -192t-154.5 -163q-57 -44 -92 -76.5t-56.5 -70t-21.5 -81.5q0 -99 73.5 -147t199.5 -48q272 0 272 212h161q0 -110 -51 -191.5
t-149 -126t-237 -44.5q-128 0 -225.5 43.5t-151.5 123t-54 185.5q0 71 34.5 131t84 105.5t124.5 100.5q70 52 106 110.5t36 133.5v41h158v-46z" />
    <glyph glyph-name="Agrave" unicode="&#xc0;" horiz-adv-x="1320" 
d="M1300 0h-171l-128 330h-682l-128 -330h-171l565 1406h150zM651 1184l-274 -705h565l-274 705l-8 25zM726 1504h-143l-208 206h202z" />
    <glyph glyph-name="Aacute" unicode="&#xc1;" horiz-adv-x="1320" 
d="M1300 0h-171l-128 330h-682l-128 -330h-171l565 1406h150zM651 1184l-274 -705h565l-274 705l-8 25zM892 1710l-209 -206h-142l149 206h202z" />
    <glyph glyph-name="Acircumflex" unicode="&#xc2;" horiz-adv-x="1320" 
d="M1300 0h-171l-128 330h-682l-128 -330h-171l565 1406h150zM651 1184l-274 -705h565l-274 705l-8 25zM654 1587l-187 -98l-58 99l224 145h44l222 -145l-58 -99z" />
    <glyph glyph-name="Atilde" unicode="&#xc3;" horiz-adv-x="1320" 
d="M1300 0h-171l-128 330h-682l-128 -330h-171l565 1406h150zM651 1184l-274 -705h565l-274 705l-8 25zM391 1524q19 88 66.5 127.5t98.5 39.5q28 0 51.5 -8.5t60.5 -25.5q28 -14 47 -21t38 -7q27 0 41 13.5t23 54.5l101 -29q-19 -88 -66 -127.5t-98 -39.5q-28 0 -52 8.5
t-61 25.5q-27 14 -46 21t-38 7q-26 0 -41.5 -14t-23.5 -54z" />
    <glyph glyph-name="Adieresis" unicode="&#xc4;" horiz-adv-x="1320" 
d="M1300 0h-171l-128 330h-682l-128 -330h-171l565 1406h150zM651 1184l-274 -705h565l-274 705l-8 25zM395 1533q-29 29 -29 73q0 43 29 71t74 28q44 0 73.5 -28t29.5 -71q0 -44 -29.5 -73t-73.5 -29q-45 0 -74 29zM767 1533q-29 29 -29 73q0 43 29 71t73 28q45 0 74 -28
t29 -71q0 -44 -29 -73t-74 -29q-44 0 -73 29z" />
    <glyph glyph-name="Aring" unicode="&#xc5;" horiz-adv-x="1320" 
d="M1300 0h-171l-128 330h-682l-128 -330h-171l565 1406h150zM651 1184l-274 -705h565l-274 705l-8 25zM548.5 1538q-41.5 39 -41.5 102t41.5 102.5t108.5 39.5q68 0 109.5 -39.5t41.5 -102.5t-41.5 -102t-109.5 -39q-67 0 -108.5 39zM707.5 1592.5q19.5 18.5 19.5 47.5
q0 30 -19.5 48.5t-50.5 18.5t-50 -18.5t-19 -48.5q0 -29 19 -47.5t50 -18.5t50.5 18.5z" />
    <glyph glyph-name="AE" unicode="&#xc6;" horiz-adv-x="2217" 
d="M1286 643v-488h831v-155h-995v329h-662l-243 -329h-197l1066 1405h1017v-155h-817v-455h666v-152h-666zM1122 1224l-547 -740h547v740z" />
    <glyph glyph-name="Ccedilla" unicode="&#xc7;" horiz-adv-x="1368" 
d="M1299 157q-86 -74 -191.5 -120.5t-223.5 -56.5q30 -45 51.5 -96t21.5 -96q0 -68 -52 -114t-188 -65l-28 110q57 7 85 19t36 27t8 37q0 37 -16 78.5t-48 99.5q-183 17 -332.5 116.5t-235.5 259t-86 347.5q0 200 96.5 366.5t262 262.5t364.5 96q138 0 259 -46.5t217 -129.5
l-94 -123q-79 66 -177 103.5t-205 37.5q-151 0 -278.5 -75t-202.5 -205.5t-75 -287.5t75 -286.5t202.5 -204.5t278.5 -75q107 0 201 37t183 109z" />
    <glyph glyph-name="Egrave" unicode="&#xc8;" horiz-adv-x="1295" 
d="M1195 0h-995v1405h981v-155h-817v-455h666v-152h-666v-488h831v-155zM759 1504h-143l-208 206h202z" />
    <glyph glyph-name="Eacute" unicode="&#xc9;" horiz-adv-x="1295" 
d="M1195 0h-995v1405h981v-155h-817v-455h666v-152h-666v-488h831v-155zM925 1710l-209 -206h-142l149 206h202z" />
    <glyph glyph-name="Ecircumflex" unicode="&#xca;" horiz-adv-x="1295" 
d="M1195 0h-995v1405h981v-155h-817v-455h666v-152h-666v-488h831v-155zM687 1587l-187 -98l-58 99l224 145h44l222 -145l-58 -99z" />
    <glyph glyph-name="Edieresis" unicode="&#xcb;" horiz-adv-x="1295" 
d="M1195 0h-995v1405h981v-155h-817v-455h666v-152h-666v-488h831v-155zM428 1533q-29 29 -29 73q0 43 29 71t74 28q44 0 73.5 -28t29.5 -71q0 -44 -29.5 -73t-73.5 -29q-45 0 -74 29zM800 1533q-29 29 -29 73q0 43 29 71t73 28q45 0 74 -28t29 -71q0 -44 -29 -73t-74 -29
q-44 0 -73 29z" />
    <glyph glyph-name="Igrave" unicode="&#xcc;" horiz-adv-x="564" 
d="M364 0h-164v1405h164v-1405zM349 1504h-143l-208 206h202z" />
    <glyph glyph-name="Iacute" unicode="&#xcd;" horiz-adv-x="564" 
d="M364 0h-164v1405h164v-1405zM515 1710l-209 -206h-142l149 206h202z" />
    <glyph glyph-name="Icircumflex" unicode="&#xce;" horiz-adv-x="564" 
d="M364 0h-164v1405h164v-1405zM277 1587l-187 -98l-58 99l224 145h44l222 -145l-58 -99z" />
    <glyph glyph-name="Idieresis" unicode="&#xcf;" horiz-adv-x="564" 
d="M364 0h-164v1405h164v-1405zM18 1533q-29 29 -29 73q0 43 29 71t74 28q44 0 73.5 -28t29.5 -71q0 -44 -29.5 -73t-73.5 -29q-45 0 -74 29zM390 1533q-29 29 -29 73q0 43 29 71t73 28q45 0 74 -28t29 -71q0 -44 -29 -73t-74 -29q-44 0 -73 29z" />
    <glyph glyph-name="Eth" unicode="&#xd0;" horiz-adv-x="1506" 
d="M681 1405q199 0 365.5 -93.5t263 -254.5t96.5 -356q0 -194 -96.5 -354.5t-262 -253.5t-363.5 -93h-484v638h-170v146h170v621h481zM688 156q153 0 279 72t199 197t73 276q0 152 -73.5 277.5t-200.5 197.5t-281 72h-320v-464h294v-146h-294v-482h324z" />
    <glyph glyph-name="Ntilde" unicode="&#xd1;" horiz-adv-x="1579" 
d="M364 0h-164v1405h169l846 -1138v1138h164v-1405h-162l-853 1147v-1147zM511 1524q19 88 66.5 127.5t98.5 39.5q28 0 51.5 -8.5t60.5 -25.5q28 -14 47 -21t38 -7q27 0 41 13.5t23 54.5l101 -29q-19 -88 -66 -127.5t-98 -39.5q-28 0 -52 8.5t-61 25.5q-27 14 -46 21t-38 7
q-26 0 -41.5 -14t-23.5 -54z" />
    <glyph glyph-name="Ograve" unicode="&#xd2;" horiz-adv-x="1646" 
d="M458.5 73.5q-165.5 96.5 -262 263t-96.5 366.5t96.5 366.5t262 262.5t364.5 96t365 -96t262 -262.5t96 -366.5t-96 -366.5t-262 -263t-365 -96.5t-364.5 96.5zM1102 211q128 75 203 204.5t75 286.5t-75 287.5t-203 205.5t-279 75t-278.5 -75t-202.5 -205.5t-75 -287.5
t75 -286.5t202.5 -204.5t278.5 -75t279 75zM894 1517h-143l-208 206h202z" />
    <glyph glyph-name="Oacute" unicode="&#xd3;" horiz-adv-x="1646" 
d="M458.5 73.5q-165.5 96.5 -262 263t-96.5 366.5t96.5 366.5t262 262.5t364.5 96t365 -96t262 -262.5t96 -366.5t-96 -366.5t-262 -263t-365 -96.5t-364.5 96.5zM1102 211q128 75 203 204.5t75 286.5t-75 287.5t-203 205.5t-279 75t-278.5 -75t-202.5 -205.5t-75 -287.5
t75 -286.5t202.5 -204.5t278.5 -75t279 75zM1060 1723l-209 -206h-142l149 206h202z" />
    <glyph glyph-name="Ocircumflex" unicode="&#xd4;" horiz-adv-x="1646" 
d="M458.5 73.5q-165.5 96.5 -262 263t-96.5 366.5t96.5 366.5t262 262.5t364.5 96t365 -96t262 -262.5t96 -366.5t-96 -366.5t-262 -263t-365 -96.5t-364.5 96.5zM1102 211q128 75 203 204.5t75 286.5t-75 287.5t-203 205.5t-279 75t-278.5 -75t-202.5 -205.5t-75 -287.5
t75 -286.5t202.5 -204.5t278.5 -75t279 75zM822 1600l-187 -98l-58 99l224 145h44l222 -145l-58 -99z" />
    <glyph glyph-name="Otilde" unicode="&#xd5;" horiz-adv-x="1646" 
d="M458.5 73.5q-165.5 96.5 -262 263t-96.5 366.5t96.5 366.5t262 262.5t364.5 96t365 -96t262 -262.5t96 -366.5t-96 -366.5t-262 -263t-365 -96.5t-364.5 96.5zM1102 211q128 75 203 204.5t75 286.5t-75 287.5t-203 205.5t-279 75t-278.5 -75t-202.5 -205.5t-75 -287.5
t75 -286.5t202.5 -204.5t278.5 -75t279 75zM559 1537q19 88 66.5 127.5t98.5 39.5q28 0 51.5 -8.5t60.5 -25.5q28 -14 47 -21t38 -7q27 0 41 13.5t23 54.5l101 -29q-19 -88 -66 -127.5t-98 -39.5q-28 0 -52 8.5t-61 25.5q-27 14 -46 21t-38 7q-26 0 -41.5 -14t-23.5 -54z
" />
    <glyph glyph-name="Odieresis" unicode="&#xd6;" horiz-adv-x="1646" 
d="M458.5 73.5q-165.5 96.5 -262 263t-96.5 366.5t96.5 366.5t262 262.5t364.5 96t365 -96t262 -262.5t96 -366.5t-96 -366.5t-262 -263t-365 -96.5t-364.5 96.5zM1102 211q128 75 203 204.5t75 286.5t-75 287.5t-203 205.5t-279 75t-278.5 -75t-202.5 -205.5t-75 -287.5
t75 -286.5t202.5 -204.5t278.5 -75t279 75zM563 1546q-29 29 -29 73q0 43 29 71t74 28q44 0 73.5 -28t29.5 -71q0 -44 -29.5 -73t-73.5 -29q-45 0 -74 29zM935 1546q-29 29 -29 73q0 43 29 71t73 28q45 0 74 -28t29 -71q0 -44 -29 -73t-74 -29q-44 0 -73 29z" />
    <glyph glyph-name="multiply" unicode="&#xd7;" horiz-adv-x="984" 
d="M495 557l-290 -289l-105 100l290 291l-284 286l103 99l285 -284l287 287l103 -100l-288 -290l285 -285l-101 -100z" />
    <glyph glyph-name="Oslash" unicode="&#xd8;" horiz-adv-x="1646" 
d="M1262 1283q133 -101 208.5 -252t75.5 -328q0 -200 -96 -366.5t-262 -263t-365 -96.5q-160 0 -306 66l-77 -128h-185l126 210q-131 101 -206 251.5t-75 326.5q0 200 96.5 366.5t262 262.5t364.5 96q162 0 304 -65l78 130h184zM320 458q53 -113 146 -192l577 959
q-104 45 -220 45q-151 0 -278.5 -75t-202.5 -205.5t-75 -287.5q0 -131 53 -244zM1102 211q128 75 203 204.5t75 286.5q0 132 -54 246.5t-148 193.5l-577 -960q104 -46 222 -46q151 0 279 75z" />
    <glyph glyph-name="Ugrave" unicode="&#xd9;" horiz-adv-x="1472" 
d="M425.5 54.5q-130.5 81.5 -198 224t-67.5 323.5v804h164v-795q0 -141 47.5 -250t140.5 -171t225 -62q131 0 223.5 61.5t140 171t47.5 250.5v795h164v-804q0 -181 -67.5 -323.5t-197.5 -224t-310 -81.5q-181 0 -311.5 81.5zM788 1504h-143l-208 206h202z" />
    <glyph glyph-name="Uacute" unicode="&#xda;" horiz-adv-x="1472" 
d="M425.5 54.5q-130.5 81.5 -198 224t-67.5 323.5v804h164v-795q0 -141 47.5 -250t140.5 -171t225 -62q131 0 223.5 61.5t140 171t47.5 250.5v795h164v-804q0 -181 -67.5 -323.5t-197.5 -224t-310 -81.5q-181 0 -311.5 81.5zM954 1710l-209 -206h-142l149 206h202z" />
    <glyph glyph-name="Ucircumflex" unicode="&#xdb;" horiz-adv-x="1472" 
d="M425.5 54.5q-130.5 81.5 -198 224t-67.5 323.5v804h164v-795q0 -141 47.5 -250t140.5 -171t225 -62q131 0 223.5 61.5t140 171t47.5 250.5v795h164v-804q0 -181 -67.5 -323.5t-197.5 -224t-310 -81.5q-181 0 -311.5 81.5zM716 1587l-187 -98l-58 99l224 145h44l222 -145
l-58 -99z" />
    <glyph glyph-name="Udieresis" unicode="&#xdc;" horiz-adv-x="1472" 
d="M425.5 54.5q-130.5 81.5 -198 224t-67.5 323.5v804h164v-795q0 -141 47.5 -250t140.5 -171t225 -62q131 0 223.5 61.5t140 171t47.5 250.5v795h164v-804q0 -181 -67.5 -323.5t-197.5 -224t-310 -81.5q-181 0 -311.5 81.5zM456 1533q-29 29 -29 73q0 43 29 71t74 28
q44 0 73.5 -28t29.5 -71q0 -44 -29.5 -73t-73.5 -29q-45 0 -74 29zM828 1533q-29 29 -29 73q0 43 29 71t73 28q45 0 74 -28t29 -71q0 -44 -29 -73t-74 -29q-44 0 -73 29z" />
    <glyph glyph-name="Yacute" unicode="&#xdd;" horiz-adv-x="1170" 
d="M667 0h-164v596l-483 809h191l375 -653l372 653h192l-483 -808v-597zM823 1710l-209 -206h-142l149 206h202z" />
    <glyph glyph-name="Thorn" unicode="&#xde;" horiz-adv-x="1214" 
d="M649 1162q133 0 239 -57.5t166 -161t60 -236.5q0 -134 -60 -238t-165.5 -161t-235.5 -57h-287v-251h-166v1405h166v-243h283zM633 408q89 0 161.5 37.5t114.5 105.5t42 156q0 87 -42.5 155.5t-115.5 106t-162 37.5h-265v-598h267z" />
    <glyph glyph-name="germandbls" unicode="&#xdf;" horiz-adv-x="1271" 
d="M165 1091q0 127 57 223.5t160 149t238 52.5q140 0 243.5 -53t158.5 -142t55 -196q0 -91 -34 -156.5t-86 -104.5t-111 -55q88 -16 163.5 -65t121.5 -129.5t46 -185.5q0 -136 -66.5 -232.5t-180 -146.5t-253.5 -50h-141v146h146q97 0 174 33.5t121.5 97.5t44.5 153
q0 87 -45 153t-122.5 101.5t-170.5 35.5h-38v137h22q50 0 109.5 24.5t103 79.5t43.5 141q0 78 -38 138.5t-107 94.5t-159 34q-92 0 -159.5 -37.5t-103.5 -102t-36 -142.5v-1087h-156v1091z" />
    <glyph glyph-name="agrave" unicode="&#xe0;" horiz-adv-x="1252" 
d="M931 1036h156v-1036h-152v167q-60 -89 -150 -140t-204 -51q-139 0 -250 71.5t-174 195.5t-63 274t63 273.5t174.5 195.5t249.5 72q114 0 202 -49t148 -135v162zM773.5 176.5q79.5 50.5 124 139.5t44.5 200t-44.5 200.5t-124 140.5t-181.5 51q-101 0 -179 -51t-121 -140.5
t-43 -200.5q0 -112 42.5 -200.5t120 -139t179.5 -50.5q103 0 182.5 50.5zM769 1205h-135l-191 261h190z" />
    <glyph glyph-name="aacute" unicode="&#xe1;" horiz-adv-x="1252" 
d="M931 1036h156v-1036h-152v167q-60 -89 -150 -140t-204 -51q-139 0 -250 71.5t-174 195.5t-63 274t63 273.5t174.5 195.5t249.5 72q114 0 202 -49t148 -135v162zM773.5 176.5q79.5 50.5 124 139.5t44.5 200t-44.5 200.5t-124 140.5t-181.5 51q-101 0 -179 -51t-121 -140.5
t-43 -200.5q0 -112 42.5 -200.5t120 -139t179.5 -50.5q103 0 182.5 50.5zM908 1466l-191 -261h-135l136 261h190z" />
    <glyph glyph-name="acircumflex" unicode="&#xe2;" horiz-adv-x="1252" 
d="M931 1036h156v-1036h-152v167q-60 -89 -150 -140t-204 -51q-139 0 -250 71.5t-174 195.5t-63 274t63 273.5t174.5 195.5t249.5 72q114 0 202 -49t148 -135v162zM773.5 176.5q79.5 50.5 124 139.5t44.5 200t-44.5 200.5t-124 140.5t-181.5 51q-101 0 -179 -51t-121 -140.5
t-43 -200.5q0 -112 42.5 -200.5t120 -139t179.5 -50.5q103 0 182.5 50.5zM623 1315l-184 -124l-74 93l226 177h66l225 -177l-74 -93z" />
    <glyph glyph-name="atilde" unicode="&#xe3;" horiz-adv-x="1252" 
d="M931 1036h156v-1036h-152v167q-60 -89 -150 -140t-204 -51q-139 0 -250 71.5t-174 195.5t-63 274t63 273.5t174.5 195.5t249.5 72q114 0 202 -49t148 -135v162zM773.5 176.5q79.5 50.5 124 139.5t44.5 200t-44.5 200.5t-124 140.5t-181.5 51q-101 0 -179 -51t-121 -140.5
t-43 -200.5q0 -112 42.5 -200.5t120 -139t179.5 -50.5q103 0 182.5 50.5zM360 1216q19 88 66.5 127.5t98.5 39.5q28 0 51.5 -8.5t60.5 -25.5q28 -14 47 -21t38 -7q27 0 41 13.5t23 54.5l101 -29q-19 -88 -66 -127.5t-98 -39.5q-28 0 -52 8.5t-61 25.5q-27 14 -46 21t-38 7
q-26 0 -41.5 -14t-23.5 -54z" />
    <glyph glyph-name="adieresis" unicode="&#xe4;" horiz-adv-x="1252" 
d="M931 1036h156v-1036h-152v167q-60 -89 -150 -140t-204 -51q-139 0 -250 71.5t-174 195.5t-63 274t63 273.5t174.5 195.5t249.5 72q114 0 202 -49t148 -135v162zM773.5 176.5q79.5 50.5 124 139.5t44.5 200t-44.5 200.5t-124 140.5t-181.5 51q-101 0 -179 -51t-121 -140.5
t-43 -200.5q0 -112 42.5 -200.5t120 -139t179.5 -50.5q103 0 182.5 50.5zM363 1230q-29 29 -29 73q0 43 29 71t74 28q44 0 73.5 -28t29.5 -71q0 -44 -29.5 -73t-73.5 -29q-45 0 -74 29zM735 1230q-29 29 -29 73q0 43 29 71t73 28q45 0 74 -28t29 -71q0 -44 -29 -73t-74 -29
q-44 0 -73 29z" />
    <glyph glyph-name="aring" unicode="&#xe5;" horiz-adv-x="1252" 
d="M931 1036h156v-1036h-152v167q-60 -89 -150 -140t-204 -51q-139 0 -250 71.5t-174 195.5t-63 274t63 273.5t174.5 195.5t249.5 72q114 0 202 -49t148 -135v162zM773.5 176.5q79.5 50.5 124 139.5t44.5 200t-44.5 200.5t-124 140.5t-181.5 51q-101 0 -179 -51t-121 -140.5
t-43 -200.5q0 -112 42.5 -200.5t120 -139t179.5 -50.5q103 0 182.5 50.5zM508.5 1240q-42.5 40 -42.5 105t43 106t112 41t112 -41t43 -106t-42.5 -105t-112.5 -40t-112.5 40zM673 1296.5q20 18.5 20 49.5q0 30 -20 49t-52 19t-52 -19t-20 -49q0 -31 20 -49.5t52 -18.5
t52 18.5z" />
    <glyph glyph-name="ae" unicode="&#xe6;" horiz-adv-x="2044" 
d="M1151 461q12 -101 62 -178t127.5 -120t170.5 -43q88 0 163.5 31.5t132.5 87.5l82 -114q-76 -72 -173.5 -111.5t-212.5 -39.5q-116 0 -215.5 49.5t-170.5 136.5l1 -160h-153l-1 187q-64 -98 -159.5 -155t-211.5 -57q-139 0 -253 72t-180 195.5t-66 272.5t67 273.5t183 197
t255 72.5q114 0 208.5 -56.5t157.5 -154.5l1 189h152v-154q65 83 157 129.5t200 46.5q142 0 250 -69.5t166.5 -192.5t58.5 -278q0 -29 -4 -57h-795zM787 170q81 52 130 143t49 202q0 110 -49 201.5t-130.5 144t-174.5 52.5q-102 0 -185.5 -52.5t-131 -143.5t-47.5 -202
q0 -112 48 -202.5t131 -142.5t186 -52q93 0 174 52zM1328.5 873.5q-68.5 -38.5 -114 -109t-60.5 -162.5h638q-14 94 -56.5 164t-108 108t-147.5 38q-83 0 -151.5 -38.5z" />
    <glyph glyph-name="ccedilla" unicode="&#xe7;" horiz-adv-x="1056" 
d="M1014 124q-62 -58 -140 -96t-166 -50q25 -41 42.5 -84.5t17.5 -78.5q0 -67 -51 -110t-185 -59l-24 96q57 6 85 18.5t36 28t8 39.5q0 51 -51 147q-139 11 -251 85.5t-176.5 194t-64.5 260.5q0 149 71.5 273.5t195 197t271.5 72.5q113 0 209.5 -39.5t171.5 -112.5l-82 -111
q-130 119 -292 119q-105 0 -195 -52.5t-143 -144t-53 -202.5t53 -201.5t143 -143t195 -52.5q163 0 294 116z" />
    <glyph glyph-name="egrave" unicode="&#xe8;" horiz-adv-x="1141" 
d="M248 461q12 -101 62 -178t127.5 -120t170.5 -43q88 0 163.5 31.5t132.5 87.5l82 -114q-76 -72 -173.5 -111.5t-212.5 -39.5q-141 0 -257 72t-182.5 196t-66.5 272q0 150 62 274.5t171 197t245 72.5q142 0 250 -69.5t166.5 -192.5t58.5 -278q0 -29 -4 -57h-795z
M425.5 873.5q-68.5 -38.5 -114 -109t-60.5 -162.5h638q-14 94 -56.5 164t-108 108t-147.5 38q-83 0 -151.5 -38.5zM716 1210h-135l-191 261h190z" />
    <glyph glyph-name="eacute" unicode="&#xe9;" horiz-adv-x="1141" 
d="M248 461q12 -101 62 -178t127.5 -120t170.5 -43q88 0 163.5 31.5t132.5 87.5l82 -114q-76 -72 -173.5 -111.5t-212.5 -39.5q-141 0 -257 72t-182.5 196t-66.5 272q0 150 62 274.5t171 197t245 72.5q142 0 250 -69.5t166.5 -192.5t58.5 -278q0 -29 -4 -57h-795z
M425.5 873.5q-68.5 -38.5 -114 -109t-60.5 -162.5h638q-14 94 -56.5 164t-108 108t-147.5 38q-83 0 -151.5 -38.5zM854 1471l-191 -261h-135l136 261h190z" />
    <glyph glyph-name="ecircumflex" unicode="&#xea;" horiz-adv-x="1141" 
d="M248 461q12 -101 62 -178t127.5 -120t170.5 -43q88 0 163.5 31.5t132.5 87.5l82 -114q-76 -72 -173.5 -111.5t-212.5 -39.5q-141 0 -257 72t-182.5 196t-66.5 272q0 150 62 274.5t171 197t245 72.5q142 0 250 -69.5t166.5 -192.5t58.5 -278q0 -29 -4 -57h-795z
M425.5 873.5q-68.5 -38.5 -114 -109t-60.5 -162.5h638q-14 94 -56.5 164t-108 108t-147.5 38q-83 0 -151.5 -38.5zM569 1320l-184 -124l-74 93l226 177h66l225 -177l-74 -93z" />
    <glyph glyph-name="edieresis" unicode="&#xeb;" horiz-adv-x="1141" 
d="M248 461q12 -101 62 -178t127.5 -120t170.5 -43q88 0 163.5 31.5t132.5 87.5l82 -114q-76 -72 -173.5 -111.5t-212.5 -39.5q-141 0 -257 72t-182.5 196t-66.5 272q0 150 62 274.5t171 197t245 72.5q142 0 250 -69.5t166.5 -192.5t58.5 -278q0 -29 -4 -57h-795z
M425.5 873.5q-68.5 -38.5 -114 -109t-60.5 -162.5h638q-14 94 -56.5 164t-108 108t-147.5 38q-83 0 -151.5 -38.5zM309 1235q-29 29 -29 73q0 43 29 71t74 28q44 0 73.5 -28t29.5 -71q0 -44 -29.5 -73t-73.5 -29q-45 0 -74 29zM681 1235q-29 29 -29 73q0 43 29 71t73 28
q45 0 74 -28t29 -71q0 -44 -29 -73t-74 -29q-44 0 -73 29z" />
    <glyph glyph-name="igrave" unicode="&#xec;" horiz-adv-x="485" 
d="M320 0h-155v1036h155v-1036zM386 1210h-135l-191 261h190z" />
    <glyph glyph-name="iacute" unicode="&#xed;" horiz-adv-x="485" 
d="M320 0h-155v1036h155v-1036zM524 1471l-191 -261h-135l136 261h190z" />
    <glyph glyph-name="icircumflex" unicode="&#xee;" horiz-adv-x="485" 
d="M320 0h-155v1036h155v-1036zM240 1320l-184 -124l-74 93l226 177h66l225 -177l-74 -93z" />
    <glyph glyph-name="idieresis" unicode="&#xef;" horiz-adv-x="485" 
d="M320 0h-155v1036h155v-1036zM-21 1235q-29 29 -29 73q0 43 29 71t74 28q44 0 73.5 -28t29.5 -71q0 -44 -29.5 -73t-73.5 -29q-45 0 -74 29zM351 1235q-29 29 -29 73q0 43 29 71t73 28q45 0 74 -28t29 -71q0 -44 -29 -73t-74 -29q-44 0 -73 29z" />
    <glyph glyph-name="eth" unicode="&#xf0;" horiz-adv-x="1203" 
d="M842 1311q129 -168 198.5 -362.5t69.5 -428.5q0 -159 -65 -283.5t-179 -194t-258 -69.5q-141 0 -259 66t-186.5 180t-68.5 252q0 134 65.5 247t179 179t249.5 66q164 0 310 -100q-58 195 -190 370l-158 -93l-50 77l150 87q-55 63 -130 133l131 84q71 -67 133 -139l164 95
l49 -75zM784.5 168q76.5 49 119.5 138t43 206q0 96 -14 191q-73 55 -150 88.5t-175 33.5q-97 0 -178.5 -47t-129 -128t-47.5 -179q0 -101 47.5 -181.5t129.5 -125.5t180 -45t174.5 49z" />
    <glyph glyph-name="ntilde" unicode="&#xf1;" horiz-adv-x="1198" 
d="M884.5 1007q91.5 -52 140.5 -151t49 -238v-618h-157v593q0 153 -73.5 235t-211.5 82q-87 0 -158 -41.5t-112.5 -115.5t-41.5 -166v-587h-155v1036h148v-140q56 73 151 118t201 45q128 0 219.5 -52zM391 1225q19 88 66.5 127.5t98.5 39.5q28 0 51.5 -8.5t60.5 -25.5
q28 -14 47 -21t38 -7q27 0 41 13.5t23 54.5l101 -29q-19 -88 -66 -127.5t-98 -39.5q-28 0 -52 8.5t-61 25.5q-27 14 -46 21t-38 7q-26 0 -41.5 -14t-23.5 -54z" />
    <glyph glyph-name="ograve" unicode="&#xf2;" horiz-adv-x="1245" 
d="M356 45q-121 72 -191.5 196t-70.5 273q0 150 70.5 274.5t192 197t266.5 72.5t266.5 -72.5t192 -197t70.5 -274.5q0 -149 -71 -273t-192.5 -196t-266.5 -72t-266 72zM811.5 173q85.5 52 135.5 142t50 200q0 109 -50 199.5t-135.5 143t-187.5 52.5q-103 0 -189 -52
t-136 -142.5t-50 -200.5t50 -200t136 -142t189 -52q102 0 187.5 52zM766 1212h-135l-191 261h190z" />
    <glyph glyph-name="oacute" unicode="&#xf3;" horiz-adv-x="1245" 
d="M356 45q-121 72 -191.5 196t-70.5 273q0 150 70.5 274.5t192 197t266.5 72.5t266.5 -72.5t192 -197t70.5 -274.5q0 -149 -71 -273t-192.5 -196t-266.5 -72t-266 72zM811.5 173q85.5 52 135.5 142t50 200q0 109 -50 199.5t-135.5 143t-187.5 52.5q-103 0 -189 -52
t-136 -142.5t-50 -200.5t50 -200t136 -142t189 -52q102 0 187.5 52zM904 1473l-191 -261h-135l136 261h190z" />
    <glyph glyph-name="ocircumflex" unicode="&#xf4;" horiz-adv-x="1245" 
d="M356 45q-121 72 -191.5 196t-70.5 273q0 150 70.5 274.5t192 197t266.5 72.5t266.5 -72.5t192 -197t70.5 -274.5q0 -149 -71 -273t-192.5 -196t-266.5 -72t-266 72zM811.5 173q85.5 52 135.5 142t50 200q0 109 -50 199.5t-135.5 143t-187.5 52.5q-103 0 -189 -52
t-136 -142.5t-50 -200.5t50 -200t136 -142t189 -52q102 0 187.5 52zM619 1322l-184 -124l-74 93l226 177h66l225 -177l-74 -93z" />
    <glyph glyph-name="otilde" unicode="&#xf5;" horiz-adv-x="1245" 
d="M356 45q-121 72 -191.5 196t-70.5 273q0 150 70.5 274.5t192 197t266.5 72.5t266.5 -72.5t192 -197t70.5 -274.5q0 -149 -71 -273t-192.5 -196t-266.5 -72t-266 72zM811.5 173q85.5 52 135.5 142t50 200q0 109 -50 199.5t-135.5 143t-187.5 52.5q-103 0 -189 -52
t-136 -142.5t-50 -200.5t50 -200t136 -142t189 -52q102 0 187.5 52zM356 1223q19 88 66.5 127.5t98.5 39.5q28 0 51.5 -8.5t60.5 -25.5q28 -14 47 -21t38 -7q27 0 41 13.5t23 54.5l101 -29q-19 -88 -66 -127.5t-98 -39.5q-28 0 -52 8.5t-61 25.5q-27 14 -46 21t-38 7
q-26 0 -41.5 -14t-23.5 -54z" />
    <glyph glyph-name="odieresis" unicode="&#xf6;" horiz-adv-x="1245" 
d="M356 45q-121 72 -191.5 196t-70.5 273q0 150 70.5 274.5t192 197t266.5 72.5t266.5 -72.5t192 -197t70.5 -274.5q0 -149 -71 -273t-192.5 -196t-266.5 -72t-266 72zM811.5 173q85.5 52 135.5 142t50 200q0 109 -50 199.5t-135.5 143t-187.5 52.5q-103 0 -189 -52
t-136 -142.5t-50 -200.5t50 -200t136 -142t189 -52q102 0 187.5 52zM359 1237q-29 29 -29 73q0 43 29 71t74 28q44 0 73.5 -28t29.5 -71q0 -44 -29.5 -73t-73.5 -29q-45 0 -74 29zM731 1237q-29 29 -29 73q0 43 29 71t73 28q45 0 74 -28t29 -71q0 -44 -29 -73t-74 -29
q-44 0 -73 29z" />
    <glyph glyph-name="divide" unicode="&#xf7;" horiz-adv-x="1154" 
d="M499.5 1006q-31.5 30 -31.5 72q0 44 30.5 74.5t77.5 30.5q48 0 79 -30.5t31 -74.5q0 -43 -31 -72.5t-80 -29.5q-44 0 -75.5 30zM1054 608h-954v163h954v-163zM498.5 221.5q-30.5 29.5 -30.5 71.5q0 44 30.5 75t77.5 31q48 0 79 -31t31 -75q0 -42 -31 -71.5t-80 -29.5
q-46 0 -76.5 29.5z" />
    <glyph glyph-name="oslash" unicode="&#xf8;" horiz-adv-x="1245" 
d="M989 909q77 -75 120 -177.5t43 -217.5q0 -149 -71 -273t-192.5 -196t-266.5 -72q-142 0 -262 70l-67 -93h-162l125 172q-76 75 -119 176.5t-43 215.5q0 150 70.5 274.5t192 197t266.5 72.5q139 0 260 -69l67 93h164zM274.5 369.5q25.5 -68.5 71.5 -122.5l449 620
q-80 43 -171 43q-103 0 -189 -52t-136 -142.5t-50 -200.5q0 -77 25.5 -145.5zM811.5 173q85.5 52 135.5 142t50 200q0 78 -26 147.5t-73 122.5l-449 -620q82 -44 175 -44q102 0 187.5 52z" />
    <glyph glyph-name="ugrave" unicode="&#xf9;" horiz-adv-x="1198" 
d="M878 1036h155v-1036h-148v140q-56 -73 -151 -118t-201 -45q-128 0 -219.5 52t-140.5 151t-49 238v618h157v-593q0 -153 73.5 -235t211.5 -82q87 0 158 41.5t112.5 115.5t41.5 166v587zM757 1210h-135l-191 261h190z" />
    <glyph glyph-name="uacute" unicode="&#xfa;" horiz-adv-x="1198" 
d="M878 1036h155v-1036h-148v140q-56 -73 -151 -118t-201 -45q-128 0 -219.5 52t-140.5 151t-49 238v618h157v-593q0 -153 73.5 -235t211.5 -82q87 0 158 41.5t112.5 115.5t41.5 166v587zM895 1471l-191 -261h-135l136 261h190z" />
    <glyph glyph-name="ucircumflex" unicode="&#xfb;" horiz-adv-x="1198" 
d="M878 1036h155v-1036h-148v140q-56 -73 -151 -118t-201 -45q-128 0 -219.5 52t-140.5 151t-49 238v618h157v-593q0 -153 73.5 -235t211.5 -82q87 0 158 41.5t112.5 115.5t41.5 166v587zM611 1320l-184 -124l-74 93l226 177h66l225 -177l-74 -93z" />
    <glyph glyph-name="udieresis" unicode="&#xfc;" horiz-adv-x="1198" 
d="M878 1036h155v-1036h-148v140q-56 -73 -151 -118t-201 -45q-128 0 -219.5 52t-140.5 151t-49 238v618h157v-593q0 -153 73.5 -235t211.5 -82q87 0 158 41.5t112.5 115.5t41.5 166v587zM351 1235q-29 29 -29 73q0 43 29 71t74 28q44 0 73.5 -28t29.5 -71q0 -44 -29.5 -73
t-73.5 -29q-45 0 -74 29zM723 1235q-29 29 -29 73q0 43 29 71t73 28q45 0 74 -28t29 -71q0 -44 -29 -73t-74 -29q-44 0 -73 29z" />
    <glyph glyph-name="yacute" unicode="&#xfd;" horiz-adv-x="1054" 
d="M465 -355h-167l149 355l-425 1036h170l333 -852l335 852h172zM809 1471l-191 -261h-135l136 261h190z" />
    <glyph glyph-name="thorn" unicode="&#xfe;" horiz-adv-x="1252" 
d="M920.5 986q111.5 -72 174.5 -195.5t63 -273.5t-63 -274t-174 -195.5t-250 -71.5q-113 0 -202 50t-149 138v-519h-155v1851h155v-625q60 88 148.5 137.5t202.5 49.5q138 0 249.5 -72zM840.5 176.5q77.5 50.5 120.5 139.5t43 200t-43 200.5t-121 140.5t-180 51
q-95 0 -171 -45t-122.5 -124t-54.5 -179l-2 -34v-3l4 -72q12 -95 59 -168.5t121.5 -115t166.5 -41.5q102 0 179.5 50.5z" />
    <glyph glyph-name="ydieresis" unicode="&#xff;" horiz-adv-x="1054" 
d="M465 -355h-167l149 355l-425 1036h170l333 -852l335 852h172zM264 1235q-29 29 -29 73q0 43 29 71t74 28q44 0 73.5 -28t29.5 -71q0 -44 -29.5 -73t-73.5 -29q-45 0 -74 29zM636 1235q-29 29 -29 73q0 43 29 71t73 28q45 0 74 -28t29 -71q0 -44 -29 -73t-74 -29
q-44 0 -73 29z" />
    <glyph glyph-name="Amacron" unicode="&#x100;" horiz-adv-x="1320" 
d="M1300 0h-171l-128 330h-682l-128 -330h-171l565 1406h150zM651 1184l-274 -705h565l-274 705l-8 25zM878 1511h-446v121h446v-121z" />
    <glyph glyph-name="amacron" unicode="&#x101;" horiz-adv-x="1252" 
d="M931 1036h156v-1036h-152v167q-60 -89 -150 -140t-204 -51q-139 0 -250 71.5t-174 195.5t-63 274t63 273.5t174.5 195.5t249.5 72q114 0 202 -49t148 -135v162zM773.5 176.5q79.5 50.5 124 139.5t44.5 200t-44.5 200.5t-124 140.5t-181.5 51q-101 0 -179 -51t-121 -140.5
t-43 -200.5q0 -112 42.5 -200.5t120 -139t179.5 -50.5q103 0 182.5 50.5zM845 1207h-446v121h446v-121z" />
    <glyph glyph-name="Abreve" unicode="&#x102;" horiz-adv-x="1320" 
d="M1300 0h-171l-128 330h-682l-128 -330h-171l565 1406h150zM651 1184l-274 -705h565l-274 705l-8 25zM528 1527q-53 30 -80 81.5t-29 115.5h140q-1 -57 20.5 -84.5t76.5 -27.5q56 0 77.5 27.5t20.5 84.5h139q-2 -100 -63 -163.5t-174 -63.5q-75 0 -128 30z" />
    <glyph glyph-name="abreve" unicode="&#x103;" horiz-adv-x="1252" 
d="M931 1036h156v-1036h-152v167q-60 -89 -150 -140t-204 -51q-139 0 -250 71.5t-174 195.5t-63 274t63 273.5t174.5 195.5t249.5 72q114 0 202 -49t148 -135v162zM773.5 176.5q79.5 50.5 124 139.5t44.5 200t-44.5 200.5t-124 140.5t-181.5 51q-101 0 -179 -51t-121 -140.5
t-43 -200.5q0 -112 42.5 -200.5t120 -139t179.5 -50.5q103 0 182.5 50.5zM496 1227.5q-52 30.5 -79.5 84t-29.5 120.5h140q-1 -61 20.5 -90t72.5 -29t72.5 29t21.5 90h139q-2 -68 -29.5 -121t-79.5 -83.5t-124 -30.5t-124 30.5z" />
    <glyph glyph-name="Aogonek" unicode="&#x104;" horiz-adv-x="1320" 
d="M1300 0h-171l-128 330h-682l-128 -330h-171l565 1406h150zM651 1184l-274 -705h565l-274 705l-8 25zM1300 0q-54 -37 -83.5 -83.5t-29.5 -81.5q0 -30 21.5 -50t61.5 -20q26 0 61 7l8 -99q-27 -10 -49.5 -14t-53.5 -4q-92 0 -139 41.5t-47 108.5q0 35 20 74t50 71.5
t58 49.5h122z" />
    <glyph glyph-name="aogonek" unicode="&#x105;" horiz-adv-x="1252" 
d="M1127 -314q-27 -10 -50 -14t-54 -4q-85 0 -129 40.5t-44 100.5q0 35 19.5 72.5t48.5 69.5t55 49h-38v167q-60 -89 -150 -140t-204 -51q-139 0 -250 71.5t-174 195.5t-63 274t63 273.5t174.5 195.5t249.5 72q114 0 202 -49t148 -135v162h156v-1036q-53 -37 -82.5 -83.5
t-29.5 -81.5q0 -30 21.5 -50t61.5 -20q26 0 61 7zM773.5 176.5q79.5 50.5 124 139.5t44.5 200t-44.5 200.5t-124 140.5t-181.5 51q-101 0 -179 -51t-121 -140.5t-43 -200.5q0 -112 42.5 -200.5t120 -139t179.5 -50.5q103 0 182.5 50.5z" />
    <glyph glyph-name="Cacute" unicode="&#x106;" horiz-adv-x="1368" 
d="M458.5 73.5q-165.5 96.5 -262 263t-96.5 366.5t96.5 366.5t262 262.5t364.5 96q138 0 259 -46.5t217 -129.5l-94 -123q-79 66 -177 103.5t-205 37.5q-151 0 -278.5 -75t-202.5 -205.5t-75 -287.5t75 -286.5t202.5 -204.5t278.5 -75q107 0 201 37t183 109l92 -125
q-98 -84 -219 -132t-257 -48q-199 0 -364.5 96.5zM1060 1717l-209 -206h-142l149 206h202z" />
    <glyph glyph-name="cacute" unicode="&#x107;" horiz-adv-x="1056" 
d="M360.5 45.5q-123.5 72.5 -195 197t-71.5 272.5q0 149 71.5 273.5t195 197t271.5 72.5q113 0 209.5 -39.5t171.5 -112.5l-82 -111q-130 119 -292 119q-105 0 -195 -52.5t-143 -144t-53 -202.5t53 -201.5t143 -143t195 -52.5q163 0 294 116l81 -110q-75 -70 -172.5 -110.5
t-208.5 -40.5q-149 0 -272.5 72.5zM897 1468l-191 -261h-135l136 261h190z" />
    <glyph glyph-name="Ccircumflex" unicode="&#x108;" horiz-adv-x="1368" 
d="M458.5 73.5q-165.5 96.5 -262 263t-96.5 366.5t96.5 366.5t262 262.5t364.5 96q138 0 259 -46.5t217 -129.5l-94 -123q-79 66 -177 103.5t-205 37.5q-151 0 -278.5 -75t-202.5 -205.5t-75 -287.5t75 -286.5t202.5 -204.5t278.5 -75q107 0 201 37t183 109l92 -125
q-98 -84 -219 -132t-257 -48q-199 0 -364.5 96.5zM822 1594l-187 -98l-58 99l224 145h44l222 -145l-58 -99z" />
    <glyph glyph-name="ccircumflex" unicode="&#x109;" horiz-adv-x="1056" 
d="M360.5 45.5q-123.5 72.5 -195 197t-71.5 272.5q0 149 71.5 273.5t195 197t271.5 72.5q113 0 209.5 -39.5t171.5 -112.5l-82 -111q-130 119 -292 119q-105 0 -195 -52.5t-143 -144t-53 -202.5t53 -201.5t143 -143t195 -52.5q163 0 294 116l81 -110q-75 -70 -172.5 -110.5
t-208.5 -40.5q-149 0 -272.5 72.5zM612 1317l-184 -124l-74 93l226 177h66l225 -177l-74 -93z" />
    <glyph glyph-name="Cdotaccent" unicode="&#x10a;" horiz-adv-x="1368" 
d="M458.5 73.5q-165.5 96.5 -262 263t-96.5 366.5t96.5 366.5t262 262.5t364.5 96q138 0 259 -46.5t217 -129.5l-94 -123q-79 66 -177 103.5t-205 37.5q-151 0 -278.5 -75t-202.5 -205.5t-75 -287.5t75 -286.5t202.5 -204.5t278.5 -75q107 0 201 37t183 109l92 -125
q-98 -84 -219 -132t-257 -48q-199 0 -364.5 96.5zM749 1537q-29 29 -29 73q0 43 29 71t74 28q44 0 73.5 -28t29.5 -71q0 -44 -29.5 -73t-73.5 -29q-45 0 -74 29z" />
    <glyph glyph-name="cdotaccent" unicode="&#x10b;" horiz-adv-x="1056" 
d="M360.5 45.5q-123.5 72.5 -195 197t-71.5 272.5q0 149 71.5 273.5t195 197t271.5 72.5q113 0 209.5 -39.5t171.5 -112.5l-82 -111q-130 119 -292 119q-105 0 -195 -52.5t-143 -144t-53 -202.5t53 -201.5t143 -143t195 -52.5q163 0 294 116l81 -110q-75 -70 -172.5 -110.5
t-208.5 -40.5q-149 0 -272.5 72.5zM539 1232q-29 29 -29 73q0 43 29 71t74 28q44 0 73.5 -28t29.5 -71q0 -44 -29.5 -73t-73.5 -29q-45 0 -74 29z" />
    <glyph glyph-name="Ccaron" unicode="&#x10c;" horiz-adv-x="1368" 
d="M458.5 73.5q-165.5 96.5 -262 263t-96.5 366.5t96.5 366.5t262 262.5t364.5 96q138 0 259 -46.5t217 -129.5l-94 -123q-79 66 -177 103.5t-205 37.5q-151 0 -278.5 -75t-202.5 -205.5t-75 -287.5t75 -286.5t202.5 -204.5t278.5 -75q107 0 201 37t183 109l92 -125
q-98 -84 -219 -132t-257 -48q-199 0 -364.5 96.5zM582 1667l58 99l187 -98l187 98l58 -99l-222 -146h-44z" />
    <glyph glyph-name="ccaron" unicode="&#x10d;" horiz-adv-x="1056" 
d="M360.5 45.5q-123.5 72.5 -195 197t-71.5 272.5q0 149 71.5 273.5t195 197t271.5 72.5q113 0 209.5 -39.5t171.5 -112.5l-82 -111q-130 119 -292 119q-105 0 -195 -52.5t-143 -144t-53 -202.5t53 -201.5t143 -143t195 -52.5q163 0 294 116l81 -110q-75 -70 -172.5 -110.5
t-208.5 -40.5q-149 0 -272.5 72.5zM355 1369l74 94l184 -124l185 124l74 -94l-225 -177h-66z" />
    <glyph glyph-name="Dcaron" unicode="&#x10e;" horiz-adv-x="1506" 
d="M200 0v1405h481q199 0 365.5 -93.5t263 -254.5t96.5 -356q0 -194 -96.5 -354.5t-262 -253.5t-363.5 -93h-484zM688 156q153 0 279 72t199 197t73 276q0 152 -73.5 277.5t-200.5 197.5t-281 72h-320v-1092h324zM359 1660l58 99l187 -98l187 98l58 -99l-222 -146h-44z" />
    <glyph glyph-name="dcaron" unicode="&#x10f;" horiz-adv-x="1349" 
d="M930 1496h157v-1496h-152v167q-60 -89 -150 -140t-204 -51q-139 0 -250 71.5t-174 195.5t-63 274t63 273.5t174.5 195.5t249.5 72q113 0 201 -48.5t148 -134.5v621zM773.5 176.5q79.5 50.5 124 139.5t44.5 200t-44.5 200.5t-124 140.5t-181.5 51q-101 0 -179 -51
t-121 -140.5t-43 -200.5q0 -112 42.5 -200.5t120 -139t179.5 -50.5q103 0 182.5 50.5zM1335 1156h-117l-9 340h137z" />
    <glyph glyph-name="Dcroat" unicode="&#x110;" horiz-adv-x="1506" 
d="M681 1405q199 0 365.5 -93.5t263 -254.5t96.5 -356q0 -194 -96.5 -354.5t-262 -253.5t-363.5 -93h-484v638h-170v146h170v621h481zM688 156q153 0 279 72t199 197t73 276q0 152 -73.5 277.5t-200.5 197.5t-281 72h-320v-464h294v-146h-294v-482h324z" />
    <glyph glyph-name="dcroat" unicode="&#x111;" horiz-adv-x="1252" 
d="M1262 1363v-138h-175v-1225h-152v167q-60 -89 -150 -140t-204 -51q-139 0 -250 71.5t-174 195.5t-63 274t63 273.5t174.5 195.5t249.5 72q113 0 201 -48.5t148 -134.5v350h-296v138h296v133h157v-133h175zM773.5 176.5q79.5 50.5 124 139.5t44.5 200t-44.5 200.5
t-124 140.5t-181.5 51q-101 0 -179 -51t-121 -140.5t-43 -200.5q0 -112 42.5 -200.5t120 -139t179.5 -50.5q103 0 182.5 50.5z" />
    <glyph glyph-name="Emacron" unicode="&#x112;" horiz-adv-x="1295" 
d="M1195 0h-995v1405h981v-155h-817v-455h666v-152h-666v-488h831v-155zM911 1511h-446v121h446v-121z" />
    <glyph glyph-name="emacron" unicode="&#x113;" horiz-adv-x="1141" 
d="M248 461q12 -101 62 -178t127.5 -120t170.5 -43q88 0 163.5 31.5t132.5 87.5l82 -114q-76 -72 -173.5 -111.5t-212.5 -39.5q-141 0 -257 72t-182.5 196t-66.5 272q0 150 62 274.5t171 197t245 72.5q142 0 250 -69.5t166.5 -192.5t58.5 -278q0 -29 -4 -57h-795z
M425.5 873.5q-68.5 -38.5 -114 -109t-60.5 -162.5h638q-14 94 -56.5 164t-108 108t-147.5 38q-83 0 -151.5 -38.5zM791 1212h-446v121h446v-121z" />
    <glyph glyph-name="Ebreve" unicode="&#x114;" horiz-adv-x="1295" 
d="M1195 0h-995v1405h981v-155h-817v-455h666v-152h-666v-488h831v-155zM561 1527q-53 30 -80 81.5t-29 115.5h140q-1 -57 20.5 -84.5t76.5 -27.5q56 0 77.5 27.5t20.5 84.5h139q-2 -100 -63 -163.5t-174 -63.5q-75 0 -128 30z" />
    <glyph glyph-name="ebreve" unicode="&#x115;" horiz-adv-x="1141" 
d="M248 461q12 -101 62 -178t127.5 -120t170.5 -43q88 0 163.5 31.5t132.5 87.5l82 -114q-76 -72 -173.5 -111.5t-212.5 -39.5q-141 0 -257 72t-182.5 196t-66.5 272q0 150 62 274.5t171 197t245 72.5q142 0 250 -69.5t166.5 -192.5t58.5 -278q0 -29 -4 -57h-795z
M425.5 873.5q-68.5 -38.5 -114 -109t-60.5 -162.5h638q-14 94 -56.5 164t-108 108t-147.5 38q-83 0 -151.5 -38.5zM442 1232.5q-52 30.5 -79.5 84t-29.5 120.5h140q-1 -61 20.5 -90t72.5 -29t72.5 29t21.5 90h139q-2 -68 -29.5 -121t-79.5 -83.5t-124 -30.5t-124 30.5z" />
    <glyph glyph-name="Edotaccent" unicode="&#x116;" horiz-adv-x="1295" 
d="M1195 0h-995v1405h981v-155h-817v-455h666v-152h-666v-488h831v-155zM614 1530q-29 29 -29 73q0 43 29 71t74 28q44 0 73.5 -28t29.5 -71q0 -44 -29.5 -73t-73.5 -29q-45 0 -74 29z" />
    <glyph glyph-name="edotaccent" unicode="&#x117;" horiz-adv-x="1141" 
d="M248 461q12 -101 62 -178t127.5 -120t170.5 -43q88 0 163.5 31.5t132.5 87.5l82 -114q-76 -72 -173.5 -111.5t-212.5 -39.5q-141 0 -257 72t-182.5 196t-66.5 272q0 150 62 274.5t171 197t245 72.5q142 0 250 -69.5t166.5 -192.5t58.5 -278q0 -29 -4 -57h-795z
M425.5 873.5q-68.5 -38.5 -114 -109t-60.5 -162.5h638q-14 94 -56.5 164t-108 108t-147.5 38q-83 0 -151.5 -38.5zM495 1235q-29 29 -29 73q0 43 29 71t74 28q44 0 73.5 -28t29.5 -71q0 -44 -29.5 -73t-73.5 -29q-45 0 -74 29z" />
    <glyph glyph-name="Eogonek" unicode="&#x118;" horiz-adv-x="1295" 
d="M1195 0h-995v1405h981v-155h-817v-455h666v-152h-666v-488h831v-155zM1195 0q-54 -37 -83.5 -83.5t-29.5 -81.5q0 -30 21.5 -50t61.5 -20q26 0 61 7l8 -99q-27 -10 -49.5 -14t-53.5 -4q-92 0 -139 41.5t-47 108.5q0 35 20 74t50 71.5t58 49.5h122z" />
    <glyph glyph-name="eogonek" unicode="&#x119;" horiz-adv-x="1141" 
d="M248 461q12 -101 62 -178t127.5 -120t170.5 -43q88 0 163.5 31.5t132.5 87.5l82 -114q-20 -19 -49 -41q-31 -31 -47 -64.5t-16 -59.5q0 -30 21.5 -50t61.5 -20q26 0 61 7l8 -86q-27 -10 -50 -14t-54 -4q-85 0 -129 40.5t-44 100.5q0 28 15 63q-77 -23 -164 -23
q-141 0 -257 72t-182.5 196t-66.5 272q0 150 62 274.5t171 197t245 72.5q142 0 250 -69.5t166.5 -192.5t58.5 -278q0 -29 -4 -57h-795zM425.5 873.5q-68.5 -38.5 -114 -109t-60.5 -162.5h638q-14 94 -56.5 164t-108 108t-147.5 38q-83 0 -151.5 -38.5z" />
    <glyph glyph-name="Ecaron" unicode="&#x11a;" horiz-adv-x="1295" 
d="M1195 0h-995v1405h981v-155h-817v-455h666v-152h-666v-488h831v-155zM447 1660l58 99l187 -98l187 98l58 -99l-222 -146h-44z" />
    <glyph glyph-name="ecaron" unicode="&#x11b;" horiz-adv-x="1141" 
d="M248 461q12 -101 62 -178t127.5 -120t170.5 -43q88 0 163.5 31.5t132.5 87.5l82 -114q-76 -72 -173.5 -111.5t-212.5 -39.5q-141 0 -257 72t-182.5 196t-66.5 272q0 150 62 274.5t171 197t245 72.5q142 0 250 -69.5t166.5 -192.5t58.5 -278q0 -29 -4 -57h-795z
M425.5 873.5q-68.5 -38.5 -114 -109t-60.5 -162.5h638q-14 94 -56.5 164t-108 108t-147.5 38q-83 0 -151.5 -38.5zM311 1372l74 94l184 -124l185 124l74 -94l-225 -177h-66z" />
    <glyph glyph-name="Gcircumflex" unicode="&#x11c;" horiz-adv-x="1413" 
d="M1139 633h156v-498q-97 -75 -221 -117t-251 -42q-199 0 -364.5 97.5t-262 264.5t-96.5 366t96.5 365.5t262 263.5t364.5 97q133 0 255 -46.5t216 -129.5l-98 -125q-76 66 -172.5 104.5t-200.5 38.5q-150 0 -278 -75.5t-203.5 -206t-75.5 -286.5q0 -157 75.5 -288.5
t203.5 -208t278 -76.5q79 0 162.5 22.5t153.5 62.5v417zM821 1587l-187 -98l-58 99l224 145h44l222 -145l-58 -99z" />
    <glyph glyph-name="gcircumflex" unicode="&#x11d;" horiz-adv-x="1252" 
d="M935 1036h152v-888q0 -141 -53.5 -260.5t-170 -193t-293.5 -73.5q-111 0 -220 26.5t-184 67.5l59 130q71 -37 157.5 -57.5t175.5 -20.5q137 0 221 58t119 146t35 186v52q-60 -82 -149 -128.5t-203 -46.5q-139 0 -250 67t-174 184.5t-63 260.5q0 137 63 255t174.5 188
t249.5 70q114 0 203.5 -50.5t150.5 -137.5v165zM774 230q80 46 124 127t44 182q0 103 -44.5 187.5t-124.5 133.5t-182 49q-101 0 -179 -48.5t-120.5 -131.5t-42.5 -182q0 -105 42.5 -187.5t120.5 -129t180 -46.5t182 46zM576 1325l-184 -124l-74 93l226 177h66l225 -177
l-74 -93z" />
    <glyph glyph-name="Gbreve" unicode="&#x11e;" horiz-adv-x="1413" 
d="M1139 633h156v-498q-97 -75 -221 -117t-251 -42q-199 0 -364.5 97.5t-262 264.5t-96.5 366t96.5 365.5t262 263.5t364.5 97q133 0 255 -46.5t216 -129.5l-98 -125q-76 66 -172.5 104.5t-200.5 38.5q-150 0 -278 -75.5t-203.5 -206t-75.5 -286.5q0 -157 75.5 -288.5
t203.5 -208t278 -76.5q79 0 162.5 22.5t153.5 62.5v417zM695 1527q-53 30 -80 81.5t-29 115.5h140q-1 -57 20.5 -84.5t76.5 -27.5q56 0 77.5 27.5t20.5 84.5h139q-2 -100 -63 -163.5t-174 -63.5q-75 0 -128 30z" />
    <glyph glyph-name="gbreve" unicode="&#x11f;" horiz-adv-x="1252" 
d="M935 1036h152v-888q0 -141 -53.5 -260.5t-170 -193t-293.5 -73.5q-111 0 -220 26.5t-184 67.5l59 130q71 -37 157.5 -57.5t175.5 -20.5q137 0 221 58t119 146t35 186v52q-60 -82 -149 -128.5t-203 -46.5q-139 0 -250 67t-174 184.5t-63 260.5q0 137 63 255t174.5 188
t249.5 70q114 0 203.5 -50.5t150.5 -137.5v165zM774 230q80 46 124 127t44 182q0 103 -44.5 187.5t-124.5 133.5t-182 49q-101 0 -179 -48.5t-120.5 -131.5t-42.5 -182q0 -105 42.5 -187.5t120.5 -129t180 -46.5t182 46zM449 1237.5q-52 30.5 -79.5 84t-29.5 120.5h140
q-1 -61 20.5 -90t72.5 -29t72.5 29t21.5 90h139q-2 -68 -29.5 -121t-79.5 -83.5t-124 -30.5t-124 30.5z" />
    <glyph glyph-name="Gdotaccent" unicode="&#x120;" horiz-adv-x="1413" 
d="M1139 633h156v-498q-97 -75 -221 -117t-251 -42q-199 0 -364.5 97.5t-262 264.5t-96.5 366t96.5 365.5t262 263.5t364.5 97q133 0 255 -46.5t216 -129.5l-98 -125q-76 66 -172.5 104.5t-200.5 38.5q-150 0 -278 -75.5t-203.5 -206t-75.5 -286.5q0 -157 75.5 -288.5
t203.5 -208t278 -76.5q79 0 162.5 22.5t153.5 62.5v417zM748 1530q-29 29 -29 73q0 43 29 71t74 28q44 0 73.5 -28t29.5 -71q0 -44 -29.5 -73t-73.5 -29q-45 0 -74 29z" />
    <glyph glyph-name="gdotaccent" unicode="&#x121;" horiz-adv-x="1252" 
d="M935 1036h152v-888q0 -141 -53.5 -260.5t-170 -193t-293.5 -73.5q-111 0 -220 26.5t-184 67.5l59 130q71 -37 157.5 -57.5t175.5 -20.5q137 0 221 58t119 146t35 186v52q-60 -82 -149 -128.5t-203 -46.5q-139 0 -250 67t-174 184.5t-63 260.5q0 137 63 255t174.5 188
t249.5 70q114 0 203.5 -50.5t150.5 -137.5v165zM774 230q80 46 124 127t44 182q0 103 -44.5 187.5t-124.5 133.5t-182 49q-101 0 -179 -48.5t-120.5 -131.5t-42.5 -182q0 -105 42.5 -187.5t120.5 -129t180 -46.5t182 46zM502 1240q-29 29 -29 73q0 43 29 71t74 28
q44 0 73.5 -28t29.5 -71q0 -44 -29.5 -73t-73.5 -29q-45 0 -74 29z" />
    <glyph glyph-name="uni0122" unicode="&#x122;" horiz-adv-x="1413" 
d="M1139 633h156v-498q-97 -75 -221 -117t-251 -42q-199 0 -364.5 97.5t-262 264.5t-96.5 366t96.5 365.5t262 263.5t364.5 97q133 0 255 -46.5t216 -129.5l-98 -125q-76 66 -172.5 104.5t-200.5 38.5q-150 0 -278 -75.5t-203.5 -206t-75.5 -286.5q0 -157 75.5 -288.5
t203.5 -208t278 -76.5q79 0 162.5 22.5t153.5 62.5v417zM774 -384q77 66 77 116v4q-26 0 -48 23t-22 51q0 35 22.5 55.5t55.5 20.5q35 0 57 -21t22 -68q0 -64 -28.5 -119.5t-85.5 -106.5z" />
    <glyph glyph-name="uni0123" unicode="&#x123;" horiz-adv-x="1252" 
d="M935 1036h152v-888q0 -141 -53.5 -260.5t-170 -193t-293.5 -73.5q-111 0 -220 26.5t-184 67.5l59 130q71 -37 157.5 -57.5t175.5 -20.5q137 0 221 58t119 146t35 186v52q-60 -82 -149 -128.5t-203 -46.5q-139 0 -250 67t-174 184.5t-63 260.5q0 137 63 255t174.5 188
t249.5 70q114 0 203.5 -50.5t150.5 -137.5v165zM774 230q80 46 124 127t44 182q0 103 -44.5 187.5t-124.5 133.5t-182 49q-101 0 -179 -48.5t-120.5 -131.5t-42.5 -182q0 -105 42.5 -187.5t120.5 -129t180 -46.5t182 46zM663 1497q-78 -67 -78 -116v-4q27 0 48.5 -22.5
t21.5 -50.5q0 -36 -22 -56t-56 -20t-56 20.5t-22 67.5q0 124 114 226z" />
    <glyph glyph-name="Hcircumflex" unicode="&#x124;" horiz-adv-x="1561" 
d="M364 0h-164v1405h164v-607h832v607h165v-1405h-165v640h-832v-640zM779 1587l-187 -98l-58 99l224 145h44l222 -145l-58 -99z" />
    <glyph glyph-name="hcircumflex" unicode="&#x125;" horiz-adv-x="1198" 
d="M884.5 1007q91.5 -52 140.5 -151t49 -238v-618h-157v593q0 153 -73.5 235t-211.5 82q-87 0 -158 -41.5t-112.5 -115.5t-41.5 -166v-587h-155v1496h155v-591q57 70 149.5 112t195.5 42q128 0 219.5 -52zM635 1630l-187 -98l-58 99l224 145h44l222 -145l-58 -99z" />
    <glyph glyph-name="Hbar" unicode="&#x126;" horiz-adv-x="1561" 
d="M1361 1210h97v-133h-97v-1077h-165v640h-832v-640h-164v1077h-93v133h93v195h164v-195h832v195h165v-195zM364 798h832v279h-832v-279z" />
    <glyph glyph-name="hbar" unicode="&#x127;" horiz-adv-x="1198" 
d="M884.5 1007q91.5 -52 140.5 -151t49 -238v-618h-157v593q0 153 -73.5 235t-211.5 82q-87 0 -158 -41.5t-112.5 -115.5t-41.5 -166v-587h-155v1200h-139v139h139v157h155v-157h334v-139h-334v-295q57 70 149.5 112t195.5 42q128 0 219.5 -52z" />
    <glyph glyph-name="Itilde" unicode="&#x128;" horiz-adv-x="564" 
d="M364 0h-164v1405h164v-1405zM14 1524q19 88 66.5 127.5t98.5 39.5q28 0 51.5 -8.5t60.5 -25.5q28 -14 47 -21t38 -7q27 0 41 13.5t23 54.5l101 -29q-19 -88 -66 -127.5t-98 -39.5q-28 0 -52 8.5t-61 25.5q-27 14 -46 21t-38 7q-26 0 -41.5 -14t-23.5 -54z" />
    <glyph glyph-name="itilde" unicode="&#x129;" horiz-adv-x="485" 
d="M320 0h-155v1036h155v-1036zM-24 1221q19 88 66.5 127.5t98.5 39.5q28 0 51.5 -8.5t60.5 -25.5q28 -14 47 -21t38 -7q27 0 41 13.5t23 54.5l101 -29q-19 -88 -66 -127.5t-98 -39.5q-28 0 -52 8.5t-61 25.5q-27 14 -46 21t-38 7q-26 0 -41.5 -14t-23.5 -54z" />
    <glyph glyph-name="Imacron" unicode="&#x12a;" horiz-adv-x="564" 
d="M364 0h-164v1405h164v-1405zM501 1511h-446v121h446v-121z" />
    <glyph glyph-name="imacron" unicode="&#x12b;" horiz-adv-x="485" 
d="M320 0h-155v1036h155v-1036zM461 1212h-446v121h446v-121z" />
    <glyph glyph-name="Ibreve" unicode="&#x12c;" horiz-adv-x="564" 
d="M364 0h-164v1405h164v-1405zM151 1527q-53 30 -80 81.5t-29 115.5h140q-1 -57 20.5 -84.5t76.5 -27.5q56 0 77.5 27.5t20.5 84.5h139q-2 -100 -63 -163.5t-174 -63.5q-75 0 -128 30z" />
    <glyph glyph-name="ibreve" unicode="&#x12d;" horiz-adv-x="485" 
d="M320 0h-155v1036h155v-1036zM112 1232.5q-52 30.5 -79.5 84t-29.5 120.5h140q-1 -61 20.5 -90t72.5 -29t72.5 29t21.5 90h139q-2 -68 -29.5 -121t-79.5 -83.5t-124 -30.5t-124 30.5z" />
    <glyph glyph-name="Iogonek" unicode="&#x12e;" horiz-adv-x="564" 
d="M364 0h-164v1405h164v-1405zM364 0q-54 -37 -83.5 -83.5t-29.5 -81.5q0 -30 21.5 -50t61.5 -20q26 0 61 7l8 -99q-27 -10 -49.5 -14t-53.5 -4q-92 0 -139 41.5t-47 108.5q0 35 20 74t50 71.5t58 49.5h122z" />
    <glyph glyph-name="iogonek" unicode="&#x12f;" horiz-adv-x="485" 
d="M164 1304q-31 31 -31 73t31 74t77 32q47 0 78.5 -32t31.5 -74t-31.5 -73t-78.5 -31q-46 0 -77 31zM320 0h-155v1036h155v-1036zM320 0q-53 -37 -82.5 -83.5t-29.5 -81.5q0 -30 21.5 -50t61.5 -20q26 0 61 7l8 -86q-27 -10 -50 -14t-54 -4q-85 0 -129 40.5t-44 100.5
q0 35 19.5 72.5t48.5 69.5t55 49h114z" />
    <glyph glyph-name="Idotaccent" unicode="&#x130;" horiz-adv-x="564" 
d="M364 0h-164v1405h164v-1405zM204 1530q-29 29 -29 73q0 43 29 71t74 28q44 0 73.5 -28t29.5 -71q0 -44 -29.5 -73t-73.5 -29q-45 0 -74 29z" />
    <glyph glyph-name="dotlessi" unicode="&#x131;" horiz-adv-x="485" 
d="M320 0h-155v1036h155v-1036z" />
    <glyph glyph-name="IJ" unicode="&#x132;" horiz-adv-x="1420" 
d="M364 0h-164v1405h164v-1405zM731 10.5q-80 36.5 -147 99.5l94 117q48 -44 102.5 -68.5t103.5 -24.5q98 0 155 60.5t57 170.5v1040h164v-1050q0 -116 -45.5 -202t-130.5 -132.5t-200 -46.5q-73 0 -153 36.5z" />
    <glyph glyph-name="ij" unicode="&#x133;" horiz-adv-x="955" 
d="M164 1304q-31 31 -31 73t31 74t77 32q47 0 78.5 -32t31.5 -74t-31.5 -73t-78.5 -31q-46 0 -77 31zM320 0h-155v1036h155v-1036zM636 1304q-31 31 -31 73t31 74t77 32q47 0 78.5 -32t31.5 -74t-31.5 -73t-78.5 -31q-46 0 -77 31zM438 -369v140h18q90 0 134.5 53t44.5 164
v1048h155v-1044q0 -171 -80 -266t-237 -95h-35z" />
    <glyph glyph-name="Jcircumflex" unicode="&#x134;" horiz-adv-x="856" 
d="M167 10.5q-80 36.5 -147 99.5l94 117q48 -44 102.5 -68.5t103.5 -24.5q98 0 155 60.5t57 170.5v1040h164v-1050q0 -116 -45.5 -202t-130.5 -132.5t-200 -46.5q-73 0 -153 36.5zM612 1587l-187 -98l-58 99l224 145h44l222 -145l-58 -99z" />
    <glyph glyph-name="jcircumflex" unicode="&#x135;" horiz-adv-x="483" 
d="M-34 -369v140h18q90 0 134.5 53t44.5 164v1048h155v-1044q0 -171 -80 -266t-237 -95h-35zM240 1320l-184 -124l-74 93l226 177h66l225 -177l-74 -93z" />
    <glyph glyph-name="uni0136" unicode="&#x136;" horiz-adv-x="1399" 
d="M1372 0h-199l-542 703l-267 -297v-406h-164v1405h164v-774l695 774h204l-523 -582zM593 -362q77 66 77 116v4q-26 0 -48 23t-22 51q0 35 22.5 55.5t55.5 20.5q35 0 57 -21t22 -68q0 -64 -28.5 -119.5t-85.5 -106.5z" />
    <glyph glyph-name="uni0137" unicode="&#x137;" horiz-adv-x="1107" 
d="M1097 0h-187l-395 506l-194 -197v-309h-156v1496h156v-993l516 533h202l-418 -423zM500 -370q77 66 77 116v4q-26 0 -48 23t-22 51q0 35 22.5 55.5t55.5 20.5q35 0 57 -21t22 -68q0 -64 -28.5 -119.5t-85.5 -106.5z" />
    <glyph glyph-name="kgreenlandic" unicode="&#x138;" horiz-adv-x="1107" 
d="M1097 0h-187l-395 506l-194 -197v-309h-156v1036h156v-533l516 533h202l-418 -423z" />
    <glyph glyph-name="Lacute" unicode="&#x139;" horiz-adv-x="1134" 
d="M1095 0h-895v1405h164v-1247h731v-158zM521 1710l-209 -206h-142l149 206h202z" />
    <glyph glyph-name="lacute" unicode="&#x13a;" horiz-adv-x="485" 
d="M320 0h-155v1496h155v-1496zM481 1764l-209 -206h-142l149 206h202z" />
    <glyph glyph-name="uni013B" unicode="&#x13b;" horiz-adv-x="1134" 
d="M1095 0h-895v1405h164v-1247h731v-158zM467 -362q77 66 77 116v4q-26 0 -48 23t-22 51q0 35 22.5 55.5t55.5 20.5q35 0 57 -21t22 -68q0 -64 -28.5 -119.5t-85.5 -106.5z" />
    <glyph glyph-name="uni013C" unicode="&#x13c;" horiz-adv-x="485" 
d="M320 0h-155v1496h155v-1496zM174 -370q77 66 77 116v4q-26 0 -48 23t-22 51q0 35 22.5 55.5t55.5 20.5q35 0 57 -21t22 -68q0 -64 -28.5 -119.5t-85.5 -106.5z" />
    <glyph glyph-name="Lcaron" unicode="&#x13d;" horiz-adv-x="1134" 
d="M1095 0h-895v1405h164v-1247h731v-158zM1014 1065h-117l-9 340h137z" />
    <glyph glyph-name="lcaron" unicode="&#x13e;" horiz-adv-x="513" 
d="M320 0h-155v1496h155v-1496zM541 1156h-117l-9 340h137z" />
    <glyph glyph-name="Ldot" unicode="&#x13f;" horiz-adv-x="1134" 
d="M1095 0h-895v1405h164v-1247h731v-158zM692 640q-32 31 -32 77t32 77t81 31t81.5 -31.5t32.5 -76.5q0 -46 -32.5 -77t-81.5 -31t-81 31z" />
    <glyph glyph-name="ldot" unicode="&#x140;" horiz-adv-x="612" 
d="M320 0h-155v1496h155v-1496zM464 671q-24 24 -24 57t24 56.5t60 23.5t60.5 -23.5t24.5 -56.5q0 -34 -24.5 -57.5t-61.5 -23.5q-35 0 -59 24z" />
    <glyph glyph-name="Lslash" unicode="&#x141;" horiz-adv-x="1134" 
d="M364 634v-476h731v-158h-895v545l-128 -69l-64 115l192 104v710h164v-622l227 123l63 -116z" />
    <glyph glyph-name="lslash" unicode="&#x142;" horiz-adv-x="485" 
d="M448 926l60 -90l-188 -123v-713h-155v612l-134 -87l-61 89l195 127v755h155v-654z" />
    <glyph glyph-name="Nacute" unicode="&#x143;" horiz-adv-x="1579" 
d="M364 0h-164v1405h169l846 -1138v1138h164v-1405h-162l-853 1147v-1147zM1013 1710l-209 -206h-142l149 206h202z" />
    <glyph glyph-name="nacute" unicode="&#x144;" horiz-adv-x="1198" 
d="M884.5 1007q91.5 -52 140.5 -151t49 -238v-618h-157v593q0 153 -73.5 235t-211.5 82q-87 0 -158 -41.5t-112.5 -115.5t-41.5 -166v-587h-155v1036h148v-140q56 73 151 118t201 45q128 0 219.5 -52zM939 1475l-191 -261h-135l136 261h190z" />
    <glyph glyph-name="uni0145" unicode="&#x145;" horiz-adv-x="1579" 
d="M364 0h-164v1405h169l846 -1138v1138h164v-1405h-162l-853 1147v-1147zM721 -362q77 66 77 116v4q-26 0 -48 23t-22 51q0 35 22.5 55.5t55.5 20.5q35 0 57 -21t22 -68q0 -64 -28.5 -119.5t-85.5 -106.5z" />
    <glyph glyph-name="uni0146" unicode="&#x146;" horiz-adv-x="1198" 
d="M884.5 1007q91.5 -52 140.5 -151t49 -238v-618h-157v593q0 153 -73.5 235t-211.5 82q-87 0 -158 -41.5t-112.5 -115.5t-41.5 -166v-587h-155v1036h148v-140q56 73 151 118t201 45q128 0 219.5 -52zM537 -370q77 66 77 116v4q-26 0 -48 23t-22 51q0 35 22.5 55.5
t55.5 20.5q35 0 57 -21t22 -68q0 -64 -28.5 -119.5t-85.5 -106.5z" />
    <glyph glyph-name="Ncaron" unicode="&#x147;" horiz-adv-x="1579" 
d="M364 0h-164v1405h169l846 -1138v1138h164v-1405h-162l-853 1147v-1147zM534 1660l58 99l187 -98l187 98l58 -99l-222 -146h-44z" />
    <glyph glyph-name="ncaron" unicode="&#x148;" horiz-adv-x="1198" 
d="M884.5 1007q91.5 -52 140.5 -151t49 -238v-618h-157v593q0 153 -73.5 235t-211.5 82q-87 0 -158 -41.5t-112.5 -115.5t-41.5 -166v-587h-155v1036h148v-140q56 73 151 118t201 45q128 0 219.5 -52zM396 1376l74 94l184 -124l185 124l74 -94l-225 -177h-66z" />
    <glyph glyph-name="Eng" unicode="&#x14a;" horiz-adv-x="1579" 
d="M1215 1405h164v-1419q0 -177 -80.5 -273t-237.5 -96h-35v140h18q93 0 132 55.5t39 169.5v21l-851 1144v-1147h-164v1405h169l846 -1138v1138z" />
    <glyph glyph-name="eng" unicode="&#x14b;" horiz-adv-x="1198" 
d="M884.5 1007q91.5 -52 140.5 -151t49 -238v-632q0 -176 -77.5 -271t-227.5 -95h-34v139h17q90 0 127 55t37 168v168h1v443q0 153 -73.5 235t-211.5 82q-87 0 -158 -41.5t-112.5 -115.5t-41.5 -166v-587h-155v1036h148v-140q56 73 151 118t201 45q128 0 219.5 -52z" />
    <glyph glyph-name="Omacron" unicode="&#x14c;" horiz-adv-x="1646" 
d="M458.5 73.5q-165.5 96.5 -262 263t-96.5 366.5t96.5 366.5t262 262.5t364.5 96t365 -96t262 -262.5t96 -366.5t-96 -366.5t-262 -263t-365 -96.5t-364.5 96.5zM1102 211q128 75 203 204.5t75 286.5t-75 287.5t-203 205.5t-279 75t-278.5 -75t-202.5 -205.5t-75 -287.5
t75 -286.5t202.5 -204.5t278.5 -75t279 75zM1046 1524h-446v121h446v-121z" />
    <glyph glyph-name="omacron" unicode="&#x14d;" horiz-adv-x="1245" 
d="M356 45q-121 72 -191.5 196t-70.5 273q0 150 70.5 274.5t192 197t266.5 72.5t266.5 -72.5t192 -197t70.5 -274.5q0 -149 -71 -273t-192.5 -196t-266.5 -72t-266 72zM811.5 173q85.5 52 135.5 142t50 200q0 109 -50 199.5t-135.5 143t-187.5 52.5q-103 0 -189 -52
t-136 -142.5t-50 -200.5t50 -200t136 -142t189 -52q102 0 187.5 52zM841 1214h-446v121h446v-121z" />
    <glyph glyph-name="Obreve" unicode="&#x14e;" horiz-adv-x="1646" 
d="M458.5 73.5q-165.5 96.5 -262 263t-96.5 366.5t96.5 366.5t262 262.5t364.5 96t365 -96t262 -262.5t96 -366.5t-96 -366.5t-262 -263t-365 -96.5t-364.5 96.5zM1102 211q128 75 203 204.5t75 286.5t-75 287.5t-203 205.5t-279 75t-278.5 -75t-202.5 -205.5t-75 -287.5
t75 -286.5t202.5 -204.5t278.5 -75t279 75zM696 1540q-53 30 -80 81.5t-29 115.5h140q-1 -57 20.5 -84.5t76.5 -27.5q56 0 77.5 27.5t20.5 84.5h139q-2 -100 -63 -163.5t-174 -63.5q-75 0 -128 30z" />
    <glyph glyph-name="obreve" unicode="&#x14f;" horiz-adv-x="1245" 
d="M356 45q-121 72 -191.5 196t-70.5 273q0 150 70.5 274.5t192 197t266.5 72.5t266.5 -72.5t192 -197t70.5 -274.5q0 -149 -71 -273t-192.5 -196t-266.5 -72t-266 72zM811.5 173q85.5 52 135.5 142t50 200q0 109 -50 199.5t-135.5 143t-187.5 52.5q-103 0 -189 -52
t-136 -142.5t-50 -200.5t50 -200t136 -142t189 -52q102 0 187.5 52zM492 1234.5q-52 30.5 -79.5 84t-29.5 120.5h140q-1 -61 20.5 -90t72.5 -29t72.5 29t21.5 90h139q-2 -68 -29.5 -121t-79.5 -83.5t-124 -30.5t-124 30.5z" />
    <glyph glyph-name="Ohungarumlaut" unicode="&#x150;" horiz-adv-x="1646" 
d="M458.5 73.5q-165.5 96.5 -262 263t-96.5 366.5t96.5 366.5t262 262.5t364.5 96t365 -96t262 -262.5t96 -366.5t-96 -366.5t-262 -263t-365 -96.5t-364.5 96.5zM1102 211q128 75 203 204.5t75 286.5t-75 287.5t-203 205.5t-279 75t-278.5 -75t-202.5 -205.5t-75 -287.5
t75 -286.5t202.5 -204.5t278.5 -75t279 75zM929 1724l-196 -206h-134l140 206h190zM1152 1723l-196 -206h-133l140 206h189z" />
    <glyph glyph-name="ohungarumlaut" unicode="&#x151;" horiz-adv-x="1245" 
d="M356 45q-121 72 -191.5 196t-70.5 273q0 150 70.5 274.5t192 197t266.5 72.5t266.5 -72.5t192 -197t70.5 -274.5q0 -149 -71 -273t-192.5 -196t-266.5 -72t-266 72zM811.5 173q85.5 52 135.5 142t50 200q0 109 -50 199.5t-135.5 143t-187.5 52.5q-103 0 -189 -52
t-136 -142.5t-50 -200.5t50 -200t136 -142t189 -52q102 0 187.5 52zM803 1473l-187 -261h-133l134 261h186zM1039 1473l-188 -261h-132l134 261h186z" />
    <glyph glyph-name="OE" unicode="&#x152;" horiz-adv-x="2504" 
d="M1573 155h831v-155h-995v273q-99 -138 -252.5 -217t-333.5 -79q-199 0 -364.5 96.5t-262 263t-96.5 366.5t96.5 366.5t262 262.5t364.5 96q180 0 333.5 -79t252.5 -216v272h981v-155h-817v-455h666v-152h-666v-488zM1102 211q128 75 203 204.5t75 286.5t-75 287.5
t-203 205.5t-279 75t-278.5 -75t-202.5 -205.5t-75 -287.5t75 -286.5t202.5 -204.5t278.5 -75t279 75z" />
    <glyph glyph-name="oe" unicode="&#x153;" horiz-adv-x="2099" 
d="M1206 461q12 -101 62 -178t127.5 -120t170.5 -43q88 0 163.5 31.5t132.5 87.5l82 -114q-76 -72 -173.5 -111.5t-212.5 -39.5q-102 0 -191.5 38t-157.5 107t-108 160q-43 -91 -115 -160t-166 -107.5t-198 -38.5q-145 0 -266 72t-191.5 196t-70.5 273q0 150 70.5 274.5
t192 197t266.5 72.5q103 0 196 -37.5t165 -106t115 -159.5q57 138 171 220.5t260 82.5q142 0 250 -69.5t166.5 -192.5t58.5 -278q0 -29 -4 -57h-795zM1383.5 873.5q-68.5 -38.5 -114 -109t-60.5 -162.5h638q-14 94 -56.5 164t-108 108t-147.5 38q-83 0 -151.5 -38.5z
M811.5 173q85.5 52 135.5 142t50 200q0 109 -50 199.5t-135.5 143t-187.5 52.5q-103 0 -189 -52t-136 -142.5t-50 -200.5t50 -200t136 -142t189 -52q102 0 187.5 52z" />
    <glyph glyph-name="Racute" unicode="&#x154;" horiz-adv-x="1303" 
d="M1220 0h-185l-232 507q-46 -6 -96 -6h-343v-501h-164v1405h547q141 0 247 -56t164 -158.5t58 -237.5q0 -147 -67.5 -249.5t-187.5 -154.5zM364 648h369q95 0 166.5 37.5t110.5 106.5t39 160q0 93 -39 161t-110.5 104.5t-166.5 36.5h-369v-606zM825 1710l-209 -206h-142
l149 206h202z" />
    <glyph glyph-name="racute" unicode="&#x155;" horiz-adv-x="805" 
d="M831 981l-69 -126q-42 29 -88 43.5t-89 13.5q-66 -1 -125 -44t-97 -120t-43 -174v-574h-155v1036h148v-154q44 81 120 128.5t169 47.5q115 0 229 -77zM678 1471l-191 -261h-135l136 261h190z" />
    <glyph glyph-name="uni0156" unicode="&#x156;" horiz-adv-x="1303" 
d="M1220 0h-185l-232 507q-46 -6 -96 -6h-343v-501h-164v1405h547q141 0 247 -56t164 -158.5t58 -237.5q0 -147 -67.5 -249.5t-187.5 -154.5zM364 648h369q95 0 166.5 37.5t110.5 106.5t39 160q0 93 -39 161t-110.5 104.5t-166.5 36.5h-369v-606zM609 -362q77 66 77 116v4
q-26 0 -48 23t-22 51q0 35 22.5 55.5t55.5 20.5q35 0 57 -21t22 -68q0 -64 -28.5 -119.5t-85.5 -106.5z" />
    <glyph glyph-name="uni0157" unicode="&#x157;" horiz-adv-x="805" 
d="M831 981l-69 -126q-42 29 -88 43.5t-89 13.5q-66 -1 -125 -44t-97 -120t-43 -174v-574h-155v1036h148v-154q44 81 120 128.5t169 47.5q115 0 229 -77zM182 -370q77 66 77 116v4q-26 0 -48 23t-22 51q0 35 22.5 55.5t55.5 20.5q35 0 57 -21t22 -68q0 -64 -28.5 -119.5
t-85.5 -106.5z" />
    <glyph glyph-name="Rcaron" unicode="&#x158;" horiz-adv-x="1303" 
d="M1220 0h-185l-232 507q-46 -6 -96 -6h-343v-501h-164v1405h547q141 0 247 -56t164 -158.5t58 -237.5q0 -147 -67.5 -249.5t-187.5 -154.5zM364 648h369q95 0 166.5 37.5t110.5 106.5t39 160q0 93 -39 161t-110.5 104.5t-166.5 36.5h-369v-606zM347 1660l58 99l187 -98
l187 98l58 -99l-222 -146h-44z" />
    <glyph glyph-name="rcaron" unicode="&#x159;" horiz-adv-x="805" 
d="M831 981l-69 -126q-42 29 -88 43.5t-89 13.5q-66 -1 -125 -44t-97 -120t-43 -174v-574h-155v1036h148v-154q44 81 120 128.5t169 47.5q115 0 229 -77zM135 1372l74 94l184 -124l185 124l74 -94l-225 -177h-66z" />
    <glyph glyph-name="Sacute" unicode="&#x15a;" horiz-adv-x="1162" 
d="M283.5 45q-146.5 64 -242.5 183l108 104q79 -95 198 -146t245 -51q95 0 171 29t119.5 85.5t43.5 137.5q0 79 -47.5 128t-124 78.5t-212.5 65.5q-132 34 -223.5 74t-154.5 116.5t-63 197.5q0 110 60.5 195.5t169.5 133.5t251 48q134 0 258 -46.5t215 -131.5l-98 -113
q-70 64 -168.5 101.5t-199.5 37.5q-89 0 -163 -27.5t-117.5 -80t-43.5 -122.5q0 -73 45 -118t113 -70.5t195 -59.5q153 -44 250.5 -88t160.5 -120.5t63 -195.5q0 -128 -66 -220.5t-179.5 -140.5t-254.5 -48q-162 0 -308.5 64zM825 1710l-209 -206h-142l149 206h202z" />
    <glyph glyph-name="sacute" unicode="&#x15b;" horiz-adv-x="944" 
d="M244 17q-116 44 -200 115l91 117q70 -55 164.5 -92t192.5 -37q108 0 173.5 42.5t65.5 117.5q0 48 -31 82.5t-93 59.5t-163 49q-345 81 -345 306q0 78 45.5 142t132.5 101.5t207 37.5q102 0 207.5 -34t177.5 -98l-90 -114q-57 43 -137.5 70.5t-160.5 27.5
q-106 0 -161.5 -35.5t-55.5 -97.5q0 -42 23 -71.5t78.5 -54t153.5 -49.5q114 -29 195 -66.5t131 -99t50 -151.5t-51 -161t-142.5 -111t-207.5 -40q-134 0 -250 44zM748 1471l-191 -261h-135l136 261h190z" />
    <glyph glyph-name="Scircumflex" unicode="&#x15c;" horiz-adv-x="1162" 
d="M283.5 45q-146.5 64 -242.5 183l108 104q79 -95 198 -146t245 -51q95 0 171 29t119.5 85.5t43.5 137.5q0 79 -47.5 128t-124 78.5t-212.5 65.5q-132 34 -223.5 74t-154.5 116.5t-63 197.5q0 110 60.5 195.5t169.5 133.5t251 48q134 0 258 -46.5t215 -131.5l-98 -113
q-70 64 -168.5 101.5t-199.5 37.5q-89 0 -163 -27.5t-117.5 -80t-43.5 -122.5q0 -73 45 -118t113 -70.5t195 -59.5q153 -44 250.5 -88t160.5 -120.5t63 -195.5q0 -128 -66 -220.5t-179.5 -140.5t-254.5 -48q-162 0 -308.5 64zM587 1587l-187 -98l-58 99l224 145h44l222 -145
l-58 -99z" />
    <glyph glyph-name="scircumflex" unicode="&#x15d;" horiz-adv-x="944" 
d="M244 17q-116 44 -200 115l91 117q70 -55 164.5 -92t192.5 -37q108 0 173.5 42.5t65.5 117.5q0 48 -31 82.5t-93 59.5t-163 49q-345 81 -345 306q0 78 45.5 142t132.5 101.5t207 37.5q102 0 207.5 -34t177.5 -98l-90 -114q-57 43 -137.5 70.5t-160.5 27.5
q-106 0 -161.5 -35.5t-55.5 -97.5q0 -42 23 -71.5t78.5 -54t153.5 -49.5q114 -29 195 -66.5t131 -99t50 -151.5t-51 -161t-142.5 -111t-207.5 -40q-134 0 -250 44zM463 1320l-184 -124l-74 93l226 177h66l225 -177l-74 -93z" />
    <glyph glyph-name="Scedilla" unicode="&#x15e;" horiz-adv-x="1162" 
d="M1038.5 189.5q-53.5 -86.5 -147.5 -138t-214 -65.5q27 -43 45 -89t18 -87q0 -68 -52 -114t-188 -65l-28 110q57 7 85 19t36 27t8 37q0 34 -13.5 71.5t-39.5 86.5q-150 8 -284 71.5t-223 174.5l108 104q79 -95 198 -146t245 -51q95 0 171 29t119.5 85.5t43.5 137.5
q0 79 -47.5 128t-124 78.5t-212.5 65.5q-132 34 -223.5 74t-154.5 116.5t-63 197.5q0 110 60.5 195.5t169.5 133.5t251 48q134 0 258 -46.5t215 -131.5l-98 -113q-70 64 -168.5 101.5t-199.5 37.5q-89 0 -163 -27.5t-117.5 -80t-43.5 -122.5q0 -73 45 -118t113 -70.5
t195 -59.5q153 -44 250.5 -88t160.5 -120.5t63 -195.5q0 -114 -53.5 -200.5z" />
    <glyph glyph-name="scedilla" unicode="&#x15f;" horiz-adv-x="944" 
d="M851 135q-44 -67 -123 -109t-181 -51q24 -39 40 -81t16 -75q0 -67 -51 -110t-185 -59l-24 96q57 6 85 18.5t36 28t8 39.5q0 50 -50 144q-112 11 -209 53t-169 103l91 117q70 -55 164.5 -92t192.5 -37q108 0 173.5 42.5t65.5 117.5q0 48 -31 82.5t-93 59.5t-163 49
q-345 81 -345 306q0 78 45.5 142t132.5 101.5t207 37.5q102 0 207.5 -34t177.5 -98l-90 -114q-57 43 -137.5 70.5t-160.5 27.5q-106 0 -161.5 -35.5t-55.5 -97.5q0 -42 23 -71.5t78.5 -54t153.5 -49.5q114 -29 195 -66.5t131 -99t50 -151.5q0 -83 -44 -150z" />
    <glyph glyph-name="Scaron" unicode="&#x160;" horiz-adv-x="1162" 
d="M283.5 45q-146.5 64 -242.5 183l108 104q79 -95 198 -146t245 -51q95 0 171 29t119.5 85.5t43.5 137.5q0 79 -47.5 128t-124 78.5t-212.5 65.5q-132 34 -223.5 74t-154.5 116.5t-63 197.5q0 110 60.5 195.5t169.5 133.5t251 48q134 0 258 -46.5t215 -131.5l-98 -113
q-70 64 -168.5 101.5t-199.5 37.5q-89 0 -163 -27.5t-117.5 -80t-43.5 -122.5q0 -73 45 -118t113 -70.5t195 -59.5q153 -44 250.5 -88t160.5 -120.5t63 -195.5q0 -128 -66 -220.5t-179.5 -140.5t-254.5 -48q-162 0 -308.5 64zM347 1660l58 99l187 -98l187 98l58 -99
l-222 -146h-44z" />
    <glyph glyph-name="scaron" unicode="&#x161;" horiz-adv-x="944" 
d="M244 17q-116 44 -200 115l91 117q70 -55 164.5 -92t192.5 -37q108 0 173.5 42.5t65.5 117.5q0 48 -31 82.5t-93 59.5t-163 49q-345 81 -345 306q0 78 45.5 142t132.5 101.5t207 37.5q102 0 207.5 -34t177.5 -98l-90 -114q-57 43 -137.5 70.5t-160.5 27.5
q-106 0 -161.5 -35.5t-55.5 -97.5q0 -42 23 -71.5t78.5 -54t153.5 -49.5q114 -29 195 -66.5t131 -99t50 -151.5t-51 -161t-142.5 -111t-207.5 -40q-134 0 -250 44zM205 1372l74 94l184 -124l185 124l74 -94l-225 -177h-66z" />
    <glyph glyph-name="uni0162" unicode="&#x162;" horiz-adv-x="1166" 
d="M664 1250v-1250h-5q29 -44 50.5 -94.5t21.5 -95.5q0 -68 -52 -114t-188 -65l-28 110q57 7 85 19t36 27t8 37q0 36 -16 78t-47 98h-29v1250h-454v155h1074v-155h-456z" />
    <glyph glyph-name="uni0163" unicode="&#x163;" horiz-adv-x="614" 
d="M349 892v-892h-2q29 -44 50.5 -93t21.5 -88q0 -67 -51 -110t-185 -59l-24 96q57 6 85 18.5t36 28t8 39.5q0 31 -16 72t-47 96h-33v892h-176v144h175v257l158 33v-290h262v-144h-262z" />
    <glyph glyph-name="Tcaron" unicode="&#x164;" horiz-adv-x="1166" 
d="M664 0h-164v1250h-454v155h1074v-155h-456v-1250zM343 1660l58 99l187 -98l187 98l58 -99l-222 -146h-44z" />
    <glyph glyph-name="tcaron" unicode="&#x165;" horiz-adv-x="614" 
d="M349 0h-157v892h-176v144h175v257l158 33v-290h262v-144h-262v-892zM584 1181h-117l-9 340h137z" />
    <glyph glyph-name="Tbar" unicode="&#x166;" horiz-adv-x="1166" 
d="M1120 1405v-155h-456v-470h233v-146h-233v-634h-164v634h-231v146h231v470h-454v155h1074z" />
    <glyph glyph-name="tbar" unicode="&#x167;" horiz-adv-x="614" 
d="M611 1036v-144h-262v-304h204v-135h-204v-453h-157v453h-196v135h196v304h-176v144h175v257l158 33v-290h262z" />
    <glyph glyph-name="Utilde" unicode="&#x168;" horiz-adv-x="1472" 
d="M425.5 54.5q-130.5 81.5 -198 224t-67.5 323.5v804h164v-795q0 -141 47.5 -250t140.5 -171t225 -62q131 0 223.5 61.5t140 171t47.5 250.5v795h164v-804q0 -181 -67.5 -323.5t-197.5 -224t-310 -81.5q-181 0 -311.5 81.5zM452 1524q19 88 66.5 127.5t98.5 39.5
q28 0 51.5 -8.5t60.5 -25.5q28 -14 47 -21t38 -7q27 0 41 13.5t23 54.5l101 -29q-19 -88 -66 -127.5t-98 -39.5q-28 0 -52 8.5t-61 25.5q-27 14 -46 21t-38 7q-26 0 -41.5 -14t-23.5 -54z" />
    <glyph glyph-name="utilde" unicode="&#x169;" horiz-adv-x="1198" 
d="M878 1036h155v-1036h-148v140q-56 -73 -151 -118t-201 -45q-128 0 -219.5 52t-140.5 151t-49 238v618h157v-593q0 -153 73.5 -235t211.5 -82q87 0 158 41.5t112.5 115.5t41.5 166v587zM347 1221q19 88 66.5 127.5t98.5 39.5q28 0 51.5 -8.5t60.5 -25.5q28 -14 47 -21
t38 -7q27 0 41 13.5t23 54.5l101 -29q-19 -88 -66 -127.5t-98 -39.5q-28 0 -52 8.5t-61 25.5q-27 14 -46 21t-38 7q-26 0 -41.5 -14t-23.5 -54z" />
    <glyph glyph-name="Umacron" unicode="&#x16a;" horiz-adv-x="1472" 
d="M425.5 54.5q-130.5 81.5 -198 224t-67.5 323.5v804h164v-795q0 -141 47.5 -250t140.5 -171t225 -62q131 0 223.5 61.5t140 171t47.5 250.5v795h164v-804q0 -181 -67.5 -323.5t-197.5 -224t-310 -81.5q-181 0 -311.5 81.5zM940 1511h-446v121h446v-121z" />
    <glyph glyph-name="umacron" unicode="&#x16b;" horiz-adv-x="1198" 
d="M878 1036h155v-1036h-148v140q-56 -73 -151 -118t-201 -45q-128 0 -219.5 52t-140.5 151t-49 238v618h157v-593q0 -153 73.5 -235t211.5 -82q87 0 158 41.5t112.5 115.5t41.5 166v587zM833 1212h-446v121h446v-121z" />
    <glyph glyph-name="Ubreve" unicode="&#x16c;" horiz-adv-x="1472" 
d="M425.5 54.5q-130.5 81.5 -198 224t-67.5 323.5v804h164v-795q0 -141 47.5 -250t140.5 -171t225 -62q131 0 223.5 61.5t140 171t47.5 250.5v795h164v-804q0 -181 -67.5 -323.5t-197.5 -224t-310 -81.5q-181 0 -311.5 81.5zM590 1527q-53 30 -80 81.5t-29 115.5h140
q-1 -57 20.5 -84.5t76.5 -27.5q56 0 77.5 27.5t20.5 84.5h139q-2 -100 -63 -163.5t-174 -63.5q-75 0 -128 30z" />
    <glyph glyph-name="ubreve" unicode="&#x16d;" horiz-adv-x="1198" 
d="M878 1036h155v-1036h-148v140q-56 -73 -151 -118t-201 -45q-128 0 -219.5 52t-140.5 151t-49 238v618h157v-593q0 -153 73.5 -235t211.5 -82q87 0 158 41.5t112.5 115.5t41.5 166v587zM484 1232.5q-52 30.5 -79.5 84t-29.5 120.5h140q-1 -61 20.5 -90t72.5 -29t72.5 29
t21.5 90h139q-2 -68 -29.5 -121t-79.5 -83.5t-124 -30.5t-124 30.5z" />
    <glyph glyph-name="Uring" unicode="&#x16e;" horiz-adv-x="1472" 
d="M425.5 54.5q-130.5 81.5 -198 224t-67.5 323.5v804h164v-795q0 -141 47.5 -250t140.5 -171t225 -62q131 0 223.5 61.5t140 171t47.5 250.5v795h164v-804q0 -181 -67.5 -323.5t-197.5 -224t-310 -81.5q-181 0 -311.5 81.5zM609.5 1538q-41.5 39 -41.5 102t41.5 102.5
t108.5 39.5q68 0 109.5 -39.5t41.5 -102.5t-41.5 -102t-109.5 -39q-67 0 -108.5 39zM768.5 1592.5q19.5 18.5 19.5 47.5q0 30 -19.5 48.5t-50.5 18.5t-50 -18.5t-19 -48.5q0 -29 19 -47.5t50 -18.5t50.5 18.5z" />
    <glyph glyph-name="uring" unicode="&#x16f;" horiz-adv-x="1198" 
d="M878 1036h155v-1036h-148v140q-56 -73 -151 -118t-201 -45q-128 0 -219.5 52t-140.5 151t-49 238v618h157v-593q0 -153 73.5 -235t211.5 -82q87 0 158 41.5t112.5 115.5t41.5 166v587zM496.5 1245q-42.5 40 -42.5 105t43 106t112 41t112 -41t43 -106t-42.5 -105
t-112.5 -40t-112.5 40zM661 1301.5q20 18.5 20 49.5q0 30 -20 49t-52 19t-52 -19t-20 -49q0 -31 20 -49.5t52 -18.5t52 18.5z" />
    <glyph glyph-name="Uhungarumlaut" unicode="&#x170;" horiz-adv-x="1472" 
d="M425.5 54.5q-130.5 81.5 -198 224t-67.5 323.5v804h164v-795q0 -141 47.5 -250t140.5 -171t225 -62q131 0 223.5 61.5t140 171t47.5 250.5v795h164v-804q0 -181 -67.5 -323.5t-197.5 -224t-310 -81.5q-181 0 -311.5 81.5zM823 1711l-196 -206h-134l140 206h190z
M1046 1710l-196 -206h-133l140 206h189z" />
    <glyph glyph-name="uhungarumlaut" unicode="&#x171;" horiz-adv-x="1198" 
d="M878 1036h155v-1036h-148v140q-56 -73 -151 -118t-201 -45q-128 0 -219.5 52t-140.5 151t-49 238v618h157v-593q0 -153 73.5 -235t211.5 -82q87 0 158 41.5t112.5 115.5t41.5 166v587zM794 1471l-187 -261h-133l134 261h186zM1030 1471l-188 -261h-132l134 261h186z" />
    <glyph glyph-name="Uogonek" unicode="&#x172;" horiz-adv-x="1472" 
d="M1312 602q0 -163 -55 -295.5t-159 -216.5h12q-54 -37 -83.5 -83.5t-29.5 -81.5q0 -30 21.5 -50t61.5 -20q26 0 61 7l8 -99q-27 -10 -49.5 -14t-53.5 -4q-92 0 -139 41.5t-47 108.5q0 44 32 96q-72 -18 -155 -18q-181 0 -311.5 81.5t-198 224t-67.5 323.5v804h164v-795
q0 -141 47.5 -250t140.5 -171t225 -62q131 0 223.5 61.5t140 171t47.5 250.5v795h164v-804z" />
    <glyph glyph-name="uogonek" unicode="&#x173;" horiz-adv-x="1198" 
d="M1096 -314q-27 -10 -50 -14t-54 -4q-85 0 -129 40.5t-44 100.5q0 35 19.5 72.5t48.5 69.5t55 49h-57v140q-56 -73 -151 -118t-201 -45q-128 0 -219.5 52t-140.5 151t-49 238v618h157v-593q0 -153 73.5 -235t211.5 -82q87 0 158 41.5t112.5 115.5t41.5 166v587h155v-1036
h23q-53 -37 -82.5 -83.5t-29.5 -81.5q0 -30 21.5 -50t61.5 -20q26 0 61 7z" />
    <glyph glyph-name="Wcircumflex" unicode="&#x174;" horiz-adv-x="1969" 
d="M734 0h-148l-566 1405h177l465 -1179l444 1179h175l-210 -554l244 -624l457 1178h177l-563 -1405h-146l-253 638zM987 1588l-187 -98l-58 99l224 145h44l222 -145l-58 -99z" />
    <glyph glyph-name="wcircumflex" unicode="&#x175;" horiz-adv-x="1612" 
d="M1084 178l337 858h169l-418 -1036h-147l-217 540l-214 -540h-154l-418 1036h167l328 -858l321 858h166l-130 -327zM805 1320l-184 -124l-74 93l226 177h66l225 -177l-74 -93z" />
    <glyph glyph-name="Ycircumflex" unicode="&#x176;" horiz-adv-x="1170" 
d="M667 0h-164v596l-483 809h191l375 -653l372 653h192l-483 -808v-597zM585 1587l-187 -98l-58 99l224 145h44l222 -145l-58 -99z" />
    <glyph glyph-name="ycircumflex" unicode="&#x177;" horiz-adv-x="1054" 
d="M465 -355h-167l149 355l-425 1036h170l333 -852l335 852h172zM524 1320l-184 -124l-74 93l226 177h66l225 -177l-74 -93z" />
    <glyph glyph-name="Ydieresis" unicode="&#x178;" horiz-adv-x="1170" 
d="M667 0h-164v596l-483 809h191l375 -653l372 653h192l-483 -808v-597zM326 1533q-29 29 -29 73q0 43 29 71t74 28q44 0 73.5 -28t29.5 -71q0 -44 -29.5 -73t-73.5 -29q-45 0 -74 29zM698 1533q-29 29 -29 73q0 43 29 71t73 28q45 0 74 -28t29 -71q0 -44 -29 -73t-74 -29
q-44 0 -73 29z" />
    <glyph glyph-name="Zacute" unicode="&#x179;" horiz-adv-x="1276" 
d="M1176 0h-1076v126l857 1129h-842v150h1059v-119l-860 -1136h862v-150zM846 1710l-209 -206h-142l149 206h202z" />
    <glyph glyph-name="zacute" unicode="&#x17a;" horiz-adv-x="965" 
d="M907 0h-830v109l610 787h-592v140h797v-106l-611 -790h626v-140zM775 1471l-191 -261h-135l136 261h190z" />
    <glyph glyph-name="Zdotaccent" unicode="&#x17b;" horiz-adv-x="1276" 
d="M1176 0h-1076v126l857 1129h-842v150h1059v-119l-860 -1136h862v-150zM535 1530q-29 29 -29 73q0 43 29 71t74 28q44 0 73.5 -28t29.5 -71q0 -44 -29.5 -73t-73.5 -29q-45 0 -74 29z" />
    <glyph glyph-name="zdotaccent" unicode="&#x17c;" horiz-adv-x="965" 
d="M907 0h-830v109l610 787h-592v140h797v-106l-611 -790h626v-140zM417 1235q-29 29 -29 73q0 43 29 71t74 28q44 0 73.5 -28t29.5 -71q0 -44 -29.5 -73t-73.5 -29q-45 0 -74 29z" />
    <glyph glyph-name="Zcaron" unicode="&#x17d;" horiz-adv-x="1276" 
d="M1176 0h-1076v126l857 1129h-842v150h1059v-119l-860 -1136h862v-150zM368 1660l58 99l187 -98l187 98l58 -99l-222 -146h-44z" />
    <glyph glyph-name="zcaron" unicode="&#x17e;" horiz-adv-x="965" 
d="M907 0h-830v109l610 787h-592v140h797v-106l-611 -790h626v-140zM233 1372l74 94l184 -124l185 124l74 -94l-225 -177h-66z" />
    <glyph glyph-name="uni0189" unicode="&#x189;" horiz-adv-x="1506" 
d="M681 1405q199 0 365.5 -93.5t263 -254.5t96.5 -356q0 -194 -96.5 -354.5t-262 -253.5t-363.5 -93h-484v638h-170v146h170v621h481zM688 156q153 0 279 72t199 197t73 276q0 152 -73.5 277.5t-200.5 197.5t-281 72h-320v-464h294v-146h-294v-482h324z" />
    <glyph glyph-name="uni0189" unicode="&#x256;" horiz-adv-x="1506" 
d="M681 1405q199 0 365.5 -93.5t263 -254.5t96.5 -356q0 -194 -96.5 -354.5t-262 -253.5t-363.5 -93h-484v638h-170v146h170v621h481zM688 156q153 0 279 72t199 197t73 276q0 152 -73.5 277.5t-200.5 197.5t-281 72h-320v-464h294v-146h-294v-482h324z" />
    <glyph glyph-name="uni018F" unicode="&#x18f;" horiz-adv-x="1573" 
d="M1113.5 1336.5q166.5 -97.5 263 -264.5t96.5 -367q0 -201 -90 -368.5t-248.5 -264.5t-352.5 -97q-208 0 -362.5 93.5t-237 259t-82.5 374.5q0 29 4 60h1203q-15 149 -94.5 266.5t-204 183.5t-268.5 66q-256 0 -430 -169l-90 117q104 99 236.5 153.5t289.5 54.5
q201 0 367.5 -97.5zM1033 189q116 66 188.5 183t85.5 266h-1043q12 -153 77.5 -269.5t177.5 -181t258 -64.5q140 0 256 66z" />
    <glyph glyph-name="florin" unicode="&#x192;" horiz-adv-x="768" 
d="M-142.5 -397.5q-37.5 10.5 -54.5 23.5l57 108q3 -1 18.5 -6.5t48.5 -5.5q88 0 143.5 53.5t75.5 172.5l152 920h-184l17 122h184l9 58q27 177 119 282.5t242 105.5q48 0 86.5 -10t51.5 -22l-57 -108q-25 14 -70 14q-184 0 -225 -239l-13 -81h269l-19 -122h-268l-151 -922
q-25 -160 -114 -257t-242 -97q-38 0 -75.5 10.5z" />
    <glyph glyph-name="uni019D" unicode="&#x19d;" horiz-adv-x="1579" 
d="M1215 1405h164v-1405h-162l-853 1147v-1161q0 -177 -80.5 -273t-237.5 -96h-35v140h18q93 0 132 55.5t39 169.5v1423h169l846 -1138v1138z" />
    <glyph glyph-name="Ohorn" unicode="&#x1a0;" horiz-adv-x="1646" 
d="M1461 1049.5q85 -158.5 85 -346.5q0 -200 -96 -366.5t-262 -263t-365 -96.5t-364.5 96.5t-262 263t-96.5 366.5t96.5 366.5t262 262.5t364.5 96q139 0 269 -50q58 1 84 29.5t26 74.5q0 37 -17 85l154 30q17 -56 17 -103q0 -66 -32 -114.5t-95 -73.5q147 -98 232 -256.5z
M1102 211q128 75 203 204.5t75 286.5t-75 287.5t-203 205.5t-279 75t-278.5 -75t-202.5 -205.5t-75 -287.5t75 -286.5t202.5 -204.5t278.5 -75t279 75z" />
    <glyph glyph-name="ohorn" unicode="&#x1a1;" horiz-adv-x="1245" 
d="M1104 743q48 -107 48 -229q0 -149 -71 -273t-192.5 -196t-266.5 -72t-266 72t-191.5 196t-70.5 273q0 150 70.5 274.5t192 197t266.5 72.5q140 0 261 -69l-1 4q90 15 90 85q0 31 -18 70l145 39q18 -49 18 -91q0 -62 -38 -106t-109 -64q85 -76 133 -183zM811.5 173
q85.5 52 135.5 142t50 200q0 109 -50 199.5t-135.5 143t-187.5 52.5q-103 0 -189 -52t-136 -142.5t-50 -200.5t50 -200t136 -142t189 -52q102 0 187.5 52z" />
    <glyph glyph-name="Uhorn" unicode="&#x1af;" horiz-adv-x="1540" 
d="M1503 1625q17 -57 17 -104q0 -86 -53 -140.5t-155 -66.5v-712q0 -181 -67.5 -323.5t-197.5 -224t-310 -81.5q-181 0 -311.5 81.5t-198 224t-67.5 323.5v804h164v-795q0 -141 47.5 -250t140.5 -171t225 -62q131 0 223.5 61.5t140 171t47.5 250.5v795h103q61 1 88 29.5
t27 75.5q0 39 -16 84z" />
    <glyph glyph-name="uhorn" unicode="&#x1b0;" horiz-adv-x="1296" 
d="M1275 1225q17 -45 17 -89q0 -77 -56.5 -124.5t-161.5 -57.5l-13 80q89 15 89 83q0 30 -18 69zM878 1036h155v-1036h-148v140q-56 -73 -151 -118t-201 -45q-128 0 -219.5 52t-140.5 151t-49 238v618h157v-593q0 -153 73.5 -235t211.5 -82q87 0 158 41.5t112.5 115.5
t41.5 166v587z" />
    <glyph glyph-name="uni01B5" unicode="&#x1b5;" horiz-adv-x="1276" 
d="M678 631l-364 -481h862v-150h-1076v126l383 505h-187v146h298l363 478h-842v150h1059v-119l-385 -509h201v-146h-312z" />
    <glyph glyph-name="uni01B6" unicode="&#x1b6;" horiz-adv-x="965" 
d="M526 457l-245 -317h626v-140h-830v109l270 348h-170v127h268l242 312h-592v140h797v-106l-268 -346h181v-127h-279z" />
    <glyph glyph-name="uni01C4" unicode="&#x1c4;" horiz-adv-x="2744" 
d="M200 0v1405h481q199 0 365.5 -93.5t263 -254.5t96.5 -356q0 -194 -96.5 -354.5t-262 -253.5t-363.5 -93h-484zM688 156q153 0 279 72t199 197t73 276q0 152 -73.5 277.5t-200.5 197.5t-281 72h-320v-1092h324zM2644 0h-1076v126l857 1129h-842v150h1059v-119l-860 -1136
h862v-150zM1836 1660l58 99l187 -98l187 98l58 -99l-222 -146h-44z" />
    <glyph glyph-name="uni01C5" unicode="&#x1c5;" horiz-adv-x="2471" 
d="M200 0v1405h481q199 0 365.5 -93.5t263 -254.5t96.5 -356q0 -194 -96.5 -354.5t-262 -253.5t-363.5 -93h-484zM688 156q153 0 279 72t199 197t73 276q0 152 -73.5 277.5t-200.5 197.5t-281 72h-320v-1092h324zM2413 0h-830v109l610 787h-592v140h797v-106l-611 -790h626
v-140zM1739 1372l74 94l184 -124l185 124l74 -94l-225 -177h-66z" />
    <glyph glyph-name="uni01C6" unicode="&#x1c6;" horiz-adv-x="2217" 
d="M930 1496h157v-1496h-152v167q-60 -89 -150 -140t-204 -51q-139 0 -250 71.5t-174 195.5t-63 274t63 273.5t174.5 195.5t249.5 72q113 0 201 -48.5t148 -134.5v621zM773.5 176.5q79.5 50.5 124 139.5t44.5 200t-44.5 200.5t-124 140.5t-181.5 51q-101 0 -179 -51
t-121 -140.5t-43 -200.5q0 -112 42.5 -200.5t120 -139t179.5 -50.5q103 0 182.5 50.5zM2159 0h-830v109l610 787h-592v140h797v-106l-611 -790h626v-140zM1485 1372l74 94l184 -124l185 124l74 -94l-225 -177h-66z" />
    <glyph glyph-name="uni01C7" unicode="&#x1c7;" horiz-adv-x="2015" 
d="M1095 0h-895v1405h164v-1247h731v-158zM1326 10.5q-80 36.5 -147 99.5l94 117q48 -44 102.5 -68.5t103.5 -24.5q98 0 155 60.5t57 170.5v1040h164v-1050q0 -116 -45.5 -202t-130.5 -132.5t-200 -46.5q-73 0 -153 36.5z" />
    <glyph glyph-name="uni01C8" unicode="&#x1c8;" horiz-adv-x="1617" 
d="M1095 0h-895v1405h164v-1247h731v-158zM1298 1304q-31 31 -31 73t31 74t77 32q47 0 78.5 -32t31.5 -74t-31.5 -73t-78.5 -31q-46 0 -77 31zM1100 -369v140h18q90 0 134.5 53t44.5 164v1048h155v-1044q0 -171 -80 -266t-237 -95h-35z" />
    <glyph glyph-name="uni01C9" unicode="&#x1c9;" horiz-adv-x="952" 
d="M320 0h-155v1496h155v-1496zM633 1304q-31 31 -31 73t31 74t77 32q47 0 78.5 -32t31.5 -74t-31.5 -73t-78.5 -31q-46 0 -77 31zM435 -369v140h18q90 0 134.5 53t44.5 164v1048h155v-1044q0 -171 -80 -266t-237 -95h-35z" />
    <glyph glyph-name="uni01CA" unicode="&#x1ca;" horiz-adv-x="2435" 
d="M364 0h-164v1405h169l846 -1138v1138h164v-1405h-162l-853 1147v-1147zM1746 10.5q-80 36.5 -147 99.5l94 117q48 -44 102.5 -68.5t103.5 -24.5q98 0 155 60.5t57 170.5v1040h164v-1050q0 -116 -45.5 -202t-130.5 -132.5t-200 -46.5q-73 0 -153 36.5z" />
    <glyph glyph-name="uni01CB" unicode="&#x1cb;" horiz-adv-x="2032" 
d="M364 0h-164v1405h169l846 -1138v1138h164v-1405h-162l-853 1147v-1147zM1712 1304q-31 31 -31 73t31 74t77 32q47 0 78.5 -32t31.5 -74t-31.5 -73t-78.5 -31q-46 0 -77 31zM1514 -369v140h18q90 0 134.5 53t44.5 164v1048h155v-1044q0 -171 -80 -266t-237 -95h-35z" />
    <glyph glyph-name="uni01CC" unicode="&#x1cc;" horiz-adv-x="1694" 
d="M884.5 1007q91.5 -52 140.5 -151t49 -238v-618h-157v593q0 153 -73.5 235t-211.5 82q-87 0 -158 -41.5t-112.5 -115.5t-41.5 -166v-587h-155v1036h148v-140q56 73 151 118t201 45q128 0 219.5 -52zM1375 1304q-31 31 -31 73t31 74t77 32q47 0 78.5 -32t31.5 -74
t-31.5 -73t-78.5 -31q-46 0 -77 31zM1177 -369v140h18q90 0 134.5 53t44.5 164v1048h155v-1044q0 -171 -80 -266t-237 -95h-35z" />
    <glyph glyph-name="uni01CD" unicode="&#x1cd;" horiz-adv-x="1320" 
d="M1300 0h-171l-128 330h-682l-128 -330h-171l565 1406h150zM651 1184l-274 -705h565l-274 705l-8 25zM414 1660l58 99l187 -98l187 98l58 -99l-222 -146h-44z" />
    <glyph glyph-name="uni01CE" unicode="&#x1ce;" horiz-adv-x="1252" 
d="M931 1036h156v-1036h-152v167q-60 -89 -150 -140t-204 -51q-139 0 -250 71.5t-174 195.5t-63 274t63 273.5t174.5 195.5t249.5 72q114 0 202 -49t148 -135v162zM773.5 176.5q79.5 50.5 124 139.5t44.5 200t-44.5 200.5t-124 140.5t-181.5 51q-101 0 -179 -51t-121 -140.5
t-43 -200.5q0 -112 42.5 -200.5t120 -139t179.5 -50.5q103 0 182.5 50.5zM365 1367l74 94l184 -124l185 124l74 -94l-225 -177h-66z" />
    <glyph glyph-name="uni01CF" unicode="&#x1cf;" horiz-adv-x="564" 
d="M364 0h-164v1405h164v-1405zM37 1660l58 99l187 -98l187 98l58 -99l-222 -146h-44z" />
    <glyph glyph-name="uni01D0" unicode="&#x1d0;" horiz-adv-x="485" 
d="M320 0h-155v1036h155v-1036zM-18 1372l74 94l184 -124l185 124l74 -94l-225 -177h-66z" />
    <glyph glyph-name="uni01D1" unicode="&#x1d1;" horiz-adv-x="1646" 
d="M458.5 73.5q-165.5 96.5 -262 263t-96.5 366.5t96.5 366.5t262 262.5t364.5 96t365 -96t262 -262.5t96 -366.5t-96 -366.5t-262 -263t-365 -96.5t-364.5 96.5zM1102 211q128 75 203 204.5t75 286.5t-75 287.5t-203 205.5t-279 75t-278.5 -75t-202.5 -205.5t-75 -287.5
t75 -286.5t202.5 -204.5t278.5 -75t279 75zM582 1673l58 99l187 -98l187 98l58 -99l-222 -146h-44z" />
    <glyph glyph-name="uni01D2" unicode="&#x1d2;" horiz-adv-x="1245" 
d="M356 45q-121 72 -191.5 196t-70.5 273q0 150 70.5 274.5t192 197t266.5 72.5t266.5 -72.5t192 -197t70.5 -274.5q0 -149 -71 -273t-192.5 -196t-266.5 -72t-266 72zM811.5 173q85.5 52 135.5 142t50 200q0 109 -50 199.5t-135.5 143t-187.5 52.5q-103 0 -189 -52
t-136 -142.5t-50 -200.5t50 -200t136 -142t189 -52q102 0 187.5 52zM361 1374l74 94l184 -124l185 124l74 -94l-225 -177h-66z" />
    <glyph glyph-name="uni01D3" unicode="&#x1d3;" horiz-adv-x="1472" 
d="M425.5 54.5q-130.5 81.5 -198 224t-67.5 323.5v804h164v-795q0 -141 47.5 -250t140.5 -171t225 -62q131 0 223.5 61.5t140 171t47.5 250.5v795h164v-804q0 -181 -67.5 -323.5t-197.5 -224t-310 -81.5q-181 0 -311.5 81.5zM476 1660l58 99l187 -98l187 98l58 -99
l-222 -146h-44z" />
    <glyph glyph-name="uni01D4" unicode="&#x1d4;" horiz-adv-x="1198" 
d="M878 1036h155v-1036h-148v140q-56 -73 -151 -118t-201 -45q-128 0 -219.5 52t-140.5 151t-49 238v618h157v-593q0 -153 73.5 -235t211.5 -82q87 0 158 41.5t112.5 115.5t41.5 166v587zM353 1372l74 94l184 -124l185 124l74 -94l-225 -177h-66z" />
    <glyph glyph-name="uni01D5" unicode="&#x1d5;" horiz-adv-x="1472" 
d="M425.5 54.5q-130.5 81.5 -198 224t-67.5 323.5v804h164v-795q0 -141 47.5 -250t140.5 -171t225 -62q131 0 223.5 61.5t140 171t47.5 250.5v795h164v-804q0 -181 -67.5 -323.5t-197.5 -224t-310 -81.5q-181 0 -311.5 81.5zM456 1533q-29 29 -29 73q0 43 29 71t74 28
q44 0 73.5 -28t29.5 -71q0 -44 -29.5 -73t-73.5 -29q-45 0 -74 29zM828 1533q-29 29 -29 73q0 43 29 71t73 28q45 0 74 -28t29 -71q0 -44 -29 -73t-74 -29q-44 0 -73 29zM940 1751h-446v121h446v-121z" />
    <glyph glyph-name="uni01D6" unicode="&#x1d6;" horiz-adv-x="1198" 
d="M878 1036h155v-1036h-148v140q-56 -73 -151 -118t-201 -45q-128 0 -219.5 52t-140.5 151t-49 238v618h157v-593q0 -153 73.5 -235t211.5 -82q87 0 158 41.5t112.5 115.5t41.5 166v587zM351 1235q-29 29 -29 73q0 43 29 71t74 28q44 0 73.5 -28t29.5 -71q0 -44 -29.5 -73
t-73.5 -29q-45 0 -74 29zM723 1235q-29 29 -29 73q0 43 29 71t73 28q45 0 74 -28t29 -71q0 -44 -29 -73t-74 -29q-44 0 -73 29zM833 1461h-446v121h446v-121z" />
    <glyph glyph-name="uni01D7" unicode="&#x1d7;" horiz-adv-x="1472" 
d="M425.5 54.5q-130.5 81.5 -198 224t-67.5 323.5v804h164v-795q0 -141 47.5 -250t140.5 -171t225 -62q131 0 223.5 61.5t140 171t47.5 250.5v795h164v-804q0 -181 -67.5 -323.5t-197.5 -224t-310 -81.5q-181 0 -311.5 81.5zM456 1533q-29 29 -29 73q0 43 29 71t74 28
q44 0 73.5 -28t29.5 -71q0 -44 -29.5 -73t-73.5 -29q-45 0 -74 29zM828 1533q-29 29 -29 73q0 43 29 71t73 28q45 0 74 -28t29 -71q0 -44 -29 -73t-74 -29q-44 0 -73 29zM954 1950l-209 -206h-142l149 206h202z" />
    <glyph glyph-name="uni01D8" unicode="&#x1d8;" horiz-adv-x="1198" 
d="M878 1036h155v-1036h-148v140q-56 -73 -151 -118t-201 -45q-128 0 -219.5 52t-140.5 151t-49 238v618h157v-593q0 -153 73.5 -235t211.5 -82q87 0 158 41.5t112.5 115.5t41.5 166v587zM351 1235q-29 29 -29 73q0 43 29 71t74 28q44 0 73.5 -28t29.5 -71q0 -44 -29.5 -73
t-73.5 -29q-45 0 -74 29zM723 1235q-29 29 -29 73q0 43 29 71t73 28q45 0 74 -28t29 -71q0 -44 -29 -73t-74 -29q-44 0 -73 29zM895 1720l-191 -261h-135l136 261h190z" />
    <glyph glyph-name="uni01D9" unicode="&#x1d9;" horiz-adv-x="1472" 
d="M425.5 54.5q-130.5 81.5 -198 224t-67.5 323.5v804h164v-795q0 -141 47.5 -250t140.5 -171t225 -62q131 0 223.5 61.5t140 171t47.5 250.5v795h164v-804q0 -181 -67.5 -323.5t-197.5 -224t-310 -81.5q-181 0 -311.5 81.5zM456 1533q-29 29 -29 73q0 43 29 71t74 28
q44 0 73.5 -28t29.5 -71q0 -44 -29.5 -73t-73.5 -29q-45 0 -74 29zM828 1533q-29 29 -29 73q0 43 29 71t73 28q45 0 74 -28t29 -71q0 -44 -29 -73t-74 -29q-44 0 -73 29zM476 1900l58 99l187 -98l187 98l58 -99l-222 -146h-44z" />
    <glyph glyph-name="uni01DA" unicode="&#x1da;" horiz-adv-x="1198" 
d="M878 1036h155v-1036h-148v140q-56 -73 -151 -118t-201 -45q-128 0 -219.5 52t-140.5 151t-49 238v618h157v-593q0 -153 73.5 -235t211.5 -82q87 0 158 41.5t112.5 115.5t41.5 166v587zM351 1235q-29 29 -29 73q0 43 29 71t74 28q44 0 73.5 -28t29.5 -71q0 -44 -29.5 -73
t-73.5 -29q-45 0 -74 29zM723 1235q-29 29 -29 73q0 43 29 71t73 28q45 0 74 -28t29 -71q0 -44 -29 -73t-74 -29q-44 0 -73 29zM353 1621l74 94l184 -124l185 124l74 -94l-225 -177h-66z" />
    <glyph glyph-name="uni01DB" unicode="&#x1db;" horiz-adv-x="1472" 
d="M425.5 54.5q-130.5 81.5 -198 224t-67.5 323.5v804h164v-795q0 -141 47.5 -250t140.5 -171t225 -62q131 0 223.5 61.5t140 171t47.5 250.5v795h164v-804q0 -181 -67.5 -323.5t-197.5 -224t-310 -81.5q-181 0 -311.5 81.5zM456 1533q-29 29 -29 73q0 43 29 71t74 28
q44 0 73.5 -28t29.5 -71q0 -44 -29.5 -73t-73.5 -29q-45 0 -74 29zM828 1533q-29 29 -29 73q0 43 29 71t73 28q45 0 74 -28t29 -71q0 -44 -29 -73t-74 -29q-44 0 -73 29zM788 1744h-143l-208 206h202z" />
    </font>
</defs>
</svg>
